<?xml version="1.0" encoding="utf-8" standalone="no"?>
<!DOCTYPE svg PUBLIC "-//W3C//DTD SVG 1.1//EN"
  "http://www.w3.org/Graphics/SVG/1.1/DTD/svg11.dtd">
<svg xmlns:xlink="http://www.w3.org/1999/xlink" width="942.834667pt" height="839.478125pt" viewBox="0 0 942.834667 839.478125" xmlns="http://www.w3.org/2000/svg" version="1.1">
 <metadata>
  <rdf:RDF xmlns:dc="http://purl.org/dc/elements/1.1/" xmlns:cc="http://creativecommons.org/ns#" xmlns:rdf="http://www.w3.org/1999/02/22-rdf-syntax-ns#">
   <cc:Work>
    <dc:type rdf:resource="http://purl.org/dc/dcmitype/StillImage"/>
    <dc:date>2022-10-25T14:59:03.446147</dc:date>
    <dc:format>image/svg+xml</dc:format>
    <dc:creator>
     <cc:Agent>
      <dc:title>Matplotlib v3.5.2, https://matplotlib.org/</dc:title>
     </cc:Agent>
    </dc:creator>
   </cc:Work>
  </rdf:RDF>
 </metadata>
 <defs>
  <style type="text/css">*{stroke-linejoin: round; stroke-linecap: butt}</style>
 </defs>
 <g id="figure_1">
  <g id="patch_1">
   <path d="M 0 839.478125 
L 942.834667 839.478125 
L 942.834667 0 
L 0 0 
L 0 839.478125 
z
" style="fill: none"/>
  </g>
  <g id="axes_1">
   <g id="patch_2">
    <path d="M 716.198281 440.224524 
C 716.198281 408.10132 709.87071 376.290474 697.577692 346.612503 
C 685.284674 316.934532 667.265277 289.966599 644.550742 267.252064 
C 621.836207 244.537528 594.868273 226.518131 565.190302 214.225113 
C 535.512332 201.932095 503.701485 195.604524 471.578281 195.604524 
C 439.455077 195.604524 407.644231 201.932095 377.96626 214.225113 
C 348.288289 226.518131 321.320356 244.537528 298.60582 267.252064 
C 275.891285 289.966599 257.871888 316.934532 245.57887 346.612503 
C 233.285852 376.290474 226.958281 408.10132 226.958281 440.224524 
C 226.958281 472.347729 233.285852 504.158575 245.57887 533.836546 
C 257.871888 563.514516 275.891285 590.48245 298.60582 613.196985 
C 321.320356 635.911521 348.288289 653.930918 377.96626 666.223936 
C 407.644231 678.516954 439.455077 684.844524 471.578281 684.844524 
C 503.701485 684.844524 535.512332 678.516954 565.190302 666.223936 
C 594.868273 653.930918 621.836207 635.911521 644.550742 613.196985 
C 667.265277 590.48245 685.284674 563.514516 697.577692 533.836546 
C 709.87071 504.158575 716.198281 472.347729 716.198281 440.224524 
M 471.578281 440.224524 
C 471.578281 440.224524 471.578281 440.224524 471.578281 440.224524 
C 471.578281 440.224524 471.578281 440.224524 471.578281 440.224524 
C 471.578281 440.224524 471.578281 440.224524 471.578281 440.224524 
C 471.578281 440.224524 471.578281 440.224524 471.578281 440.224524 
C 471.578281 440.224524 471.578281 440.224524 471.578281 440.224524 
C 471.578281 440.224524 471.578281 440.224524 471.578281 440.224524 
C 471.578281 440.224524 471.578281 440.224524 471.578281 440.224524 
C 471.578281 440.224524 471.578281 440.224524 471.578281 440.224524 
C 471.578281 440.224524 471.578281 440.224524 471.578281 440.224524 
C 471.578281 440.224524 471.578281 440.224524 471.578281 440.224524 
C 471.578281 440.224524 471.578281 440.224524 471.578281 440.224524 
C 471.578281 440.224524 471.578281 440.224524 471.578281 440.224524 
C 471.578281 440.224524 471.578281 440.224524 471.578281 440.224524 
C 471.578281 440.224524 471.578281 440.224524 471.578281 440.224524 
C 471.578281 440.224524 471.578281 440.224524 471.578281 440.224524 
C 471.578281 440.224524 471.578281 440.224524 471.578281 440.224524 
M 716.198281 440.224524 
z
" style="fill: #ffffff"/>
   </g>
   <g id="patch_3">
    <path d="M 471.578281 440.224524 
C 471.578281 440.224524 471.578281 440.224524 471.578281 440.224524 
C 471.578281 440.224524 471.578281 440.224524 471.578281 440.224524 
L 472.761923 371.812067 
C 474.073252 371.834755 475.383658 371.895142 476.691516 371.993153 
C 477.999374 372.091163 479.304143 372.226757 480.604208 372.399765 
z
" clip-path="url(#p9bda94ee5e)" style="fill: #ebe6d9"/>
   </g>
   <g id="patch_4">
    <path d="M 471.578281 440.224524 
C 471.578281 440.224524 471.578281 440.224524 471.578281 440.224524 
C 471.578281 440.224524 471.578281 440.224524 471.578281 440.224524 
L 484.299639 364.711894 
C 485.747064 364.955737 487.187179 365.241146 488.618199 365.567766 
C 490.049219 365.894387 491.470552 366.262085 492.880436 366.670405 
z
" clip-path="url(#p9bda94ee5e)" style="fill: #ebe6d9"/>
   </g>
   <g id="patch_5">
    <path d="M 471.578281 440.224524 
C 471.578281 440.224524 471.578281 440.224524 471.578281 440.224524 
C 471.578281 440.224524 471.578281 440.224524 471.578281 440.224524 
L 496.184519 365.092937 
C 497.62464 365.564589 499.050903 366.07755 500.461539 366.631184 
C 501.872175 367.184818 503.266602 367.778896 504.64309 368.412682 
z
" clip-path="url(#p9bda94ee5e)" style="fill: #ebe6d9"/>
   </g>
   <g id="patch_6">
    <path d="M 471.578281 440.224524 
C 471.578281 440.224524 471.578281 440.224524 471.578281 440.224524 
C 471.578281 440.224524 471.578281 440.224524 471.578281 440.224524 
L 507.585441 368.649351 
C 508.957393 369.339536 510.309217 370.069024 511.639238 370.836912 
C 512.969259 371.6048 514.276926 372.41077 515.56062 373.253823 
z
" clip-path="url(#p9bda94ee5e)" style="fill: #ebe6d9"/>
   </g>
   <g id="patch_7">
    <path d="M 471.578281 440.224524 
C 471.578281 440.224524 471.578281 440.224524 471.578281 440.224524 
C 471.578281 440.224524 471.578281 440.224524 471.578281 440.224524 
L 521.741181 369.316376 
C 523.100347 370.277898 524.431587 371.2783 525.73325 372.316342 
C 527.034913 373.354383 528.306462 374.429636 529.546319 375.540766 
z
" clip-path="url(#p9bda94ee5e)" style="fill: #e8e2d3"/>
   </g>
   <g id="patch_8">
    <path d="M 471.578281 440.224524 
C 471.578281 440.224524 471.578281 440.224524 471.578281 440.224524 
C 471.578281 440.224524 471.578281 440.224524 471.578281 440.224524 
L 540.590657 368.380543 
C 541.967761 369.703371 543.306547 371.06552 544.605355 372.465302 
C 545.904163 373.865084 547.162456 375.30192 548.378674 376.774029 
z
" clip-path="url(#p9bda94ee5e)" style="fill: #e8e2d3"/>
   </g>
   <g id="patch_9">
    <path d="M 471.578281 440.224524 
C 471.578281 440.224524 471.578281 440.224524 471.578281 440.224524 
C 471.578281 440.224524 471.578281 440.224524 471.578281 440.224524 
L 555.865848 375.360699 
C 557.109157 376.976322 558.305756 378.627359 559.454163 380.311762 
C 560.60257 381.996166 561.70231 383.713241 562.752019 385.460858 
z
" clip-path="url(#p9bda94ee5e)" style="fill: #e8e2d3"/>
   </g>
   <g id="patch_10">
    <path d="M 471.578281 440.224524 
C 471.578281 440.224524 471.578281 440.224524 471.578281 440.224524 
C 471.578281 440.224524 471.578281 440.224524 471.578281 440.224524 
L 572.032965 384.521429 
C 573.100681 386.446943 574.112814 388.402758 575.068109 390.38645 
C 576.023405 392.370142 576.921468 394.38089 577.761185 396.416202 
z
" clip-path="url(#p9bda94ee5e)" style="fill: #ebe1d0"/>
   </g>
   <g id="patch_11">
    <path d="M 471.578281 440.224524 
C 471.578281 440.224524 471.578281 440.224524 471.578281 440.224524 
C 471.578281 440.224524 471.578281 440.224524 471.578281 440.224524 
L 588.847064 396.525582 
C 589.684684 398.773389 590.457503 401.044814 591.164562 403.337042 
C 591.871621 405.62927 592.512627 407.941354 593.086787 410.270428 
z
" clip-path="url(#p9bda94ee5e)" style="fill: #ebddca"/>
   </g>
   <g id="patch_12">
    <path d="M 471.578281 440.224524 
C 471.578281 440.224524 471.578281 440.224524 471.578281 440.224524 
C 471.578281 440.224524 471.578281 440.224524 471.578281 440.224524 
L 603.764749 412.450535 
C 604.29712 414.984284 604.756531 417.532815 605.142412 420.092971 
C 605.528294 422.653126 605.840486 425.223848 606.078602 427.801948 
z
" clip-path="url(#p9bda94ee5e)" style="fill: #ebddca"/>
   </g>
   <g id="patch_13">
    <path d="M 471.578281 440.224524 
C 471.578281 440.224524 471.578281 440.224524 471.578281 440.224524 
C 471.578281 440.224524 471.578281 440.224524 471.578281 440.224524 
L 625.186432 431.382309 
C 625.35592 434.326668 625.440716 437.275291 625.440716 440.224524 
C 625.440716 443.173758 625.35592 446.122381 625.186432 449.06674 
z
" clip-path="url(#p9bda94ee5e)" style="fill: #ebddca"/>
   </g>
   <g id="patch_14">
    <path d="M 471.578281 440.224524 
C 471.578281 440.224524 471.578281 440.224524 471.578281 440.224524 
C 471.578281 440.224524 471.578281 440.224524 471.578281 440.224524 
L 630.436927 454.896859 
C 630.155688 457.941859 629.786958 460.978144 629.331192 464.00195 
C 628.875427 467.025756 628.332815 470.035832 627.70403 473.028449 
z
" clip-path="url(#p9bda94ee5e)" style="fill: #e9dac5"/>
   </g>
   <g id="patch_15">
    <path d="M 471.578281 440.224524 
C 471.578281 440.224524 471.578281 440.224524 471.578281 440.224524 
C 471.578281 440.224524 471.578281 440.224524 471.578281 440.224524 
L 632.327494 479.852182 
C 631.567912 482.933421 630.719894 485.992184 629.784494 489.024678 
C 628.849093 492.057173 627.826695 495.062146 626.718568 498.035873 
z
" clip-path="url(#p9bda94ee5e)" style="fill: #e9dac5"/>
   </g>
   <g id="patch_16">
    <path d="M 471.578281 440.224524 
C 471.578281 440.224524 471.578281 440.224524 471.578281 440.224524 
C 471.578281 440.224524 471.578281 440.224524 471.578281 440.224524 
L 628.558562 504.990531 
C 627.317128 507.999527 625.989436 510.972208 624.577132 513.904888 
C 623.164828 516.837568 621.668495 519.729035 620.089989 522.575705 
z
" clip-path="url(#p9bda94ee5e)" style="fill: #e7d7bf"/>
   </g>
   <g id="patch_17">
    <path d="M 471.578281 440.224524 
C 471.578281 440.224524 471.578281 440.224524 471.578281 440.224524 
C 471.578281 440.224524 471.578281 440.224524 471.578281 440.224524 
L 628.701023 534.600577 
C 626.892024 537.612303 624.996806 540.571395 623.017718 543.474184 
C 621.03863 546.376973 618.97649 549.22226 616.833854 552.006517 
z
" clip-path="url(#p9bda94ee5e)" style="fill: #e7d7bf"/>
   </g>
   <g id="patch_18">
    <path d="M 471.578281 440.224524 
C 471.578281 440.224524 471.578281 440.224524 471.578281 440.224524 
C 471.578281 440.224524 471.578281 440.224524 471.578281 440.224524 
L 627.365555 568.931935 
C 624.898493 571.918063 622.346084 574.832642 619.711491 577.672057 
C 617.076899 580.511472 614.361212 583.274551 611.567797 585.957868 
z
" clip-path="url(#p9bda94ee5e)" style="fill: #e7d5bc"/>
   </g>
   <g id="patch_19">
    <path d="M 471.578281 440.224524 
C 471.578281 440.224524 471.578281 440.224524 471.578281 440.224524 
C 471.578281 440.224524 471.578281 440.224524 471.578281 440.224524 
L 618.746116 604.442065 
C 615.598396 607.262976 612.37022 609.992801 609.06559 612.628156 
C 605.760959 615.263511 602.38124 617.803307 598.930622 620.244395 
z
" clip-path="url(#p9bda94ee5e)" style="fill: #e7d5bc"/>
   </g>
   <g id="patch_20">
    <path d="M 471.578281 440.224524 
C 471.578281 440.224524 471.578281 440.224524 471.578281 440.224524 
C 471.578281 440.224524 471.578281 440.224524 471.578281 440.224524 
L 596.130036 629.876068 
C 592.494798 632.263475 588.791668 634.545867 585.025238 636.720417 
C 581.258807 638.894967 577.430632 640.960775 573.545459 642.91528 
z
" clip-path="url(#p9bda94ee5e)" style="fill: #e9d3ba"/>
   </g>
   <g id="patch_21">
    <path d="M 471.578281 440.224524 
C 471.578281 440.224524 471.578281 440.224524 471.578281 440.224524 
C 471.578281 440.224524 471.578281 440.224524 471.578281 440.224524 
L 570.32789 654.693974 
C 566.216943 656.586806 562.052422 658.361048 557.839491 660.014501 
C 553.626559 661.667955 549.366959 663.199937 545.065969 664.608548 
z
" clip-path="url(#p9bda94ee5e)" style="fill: #e7d2b8"/>
   </g>
   <g id="patch_22">
    <path d="M 471.578281 440.224524 
C 471.578281 440.224524 471.578281 440.224524 471.578281 440.224524 
C 471.578281 440.224524 471.578281 440.224524 471.578281 440.224524 
L 537.457168 667.69745 
C 533.09697 668.960216 528.701366 670.097356 524.275805 671.107461 
C 519.850244 672.117567 515.396555 673.00022 510.920259 673.754326 
z
" clip-path="url(#p9bda94ee5e)" style="fill: #e8d1b6"/>
   </g>
   <g id="patch_23">
    <path d="M 471.578281 440.224524 
C 471.578281 440.224524 471.578281 440.224524 471.578281 440.224524 
C 471.578281 440.224524 471.578281 440.224524 471.578281 440.224524 
L 502.818275 674.975504 
C 498.318571 675.574312 493.802581 676.04362 489.275901 676.382848 
C 484.749221 676.722076 480.213724 676.931082 475.67503 677.009609 
z
" clip-path="url(#p9bda94ee5e)" style="fill: #e7d0b4"/>
   </g>
   <g id="patch_24">
    <path d="M 471.578281 440.224524 
C 471.578281 440.224524 471.578281 440.224524 471.578281 440.224524 
C 471.578281 440.224524 471.578281 440.224524 471.578281 440.224524 
L 467.487665 676.65514 
C 462.955766 676.576731 458.427058 676.368037 453.907155 676.029318 
C 449.387252 675.690598 444.878022 675.221992 440.385054 674.62408 
z
" clip-path="url(#p9bda94ee5e)" style="fill: #e8cdb1"/>
   </g>
   <g id="patch_25">
    <path d="M 471.578281 440.224524 
C 471.578281 440.224524 471.578281 440.224524 471.578281 440.224524 
C 471.578281 440.224524 471.578281 440.224524 471.578281 440.224524 
L 432.53078 672.006349 
C 428.087989 671.257887 423.667636 670.38184 419.2752 669.379296 
C 414.882764 668.376751 410.520062 667.248122 406.1925 665.994808 
z
" clip-path="url(#p9bda94ee5e)" style="fill: #e9cdaf"/>
   </g>
   <g id="patch_26">
    <path d="M 471.578281 440.224524 
C 471.578281 440.224524 471.578281 440.224524 471.578281 440.224524 
C 471.578281 440.224524 471.578281 440.224524 471.578281 440.224524 
L 398.531961 663.260896 
C 394.256803 661.860745 390.022786 660.337964 385.835157 658.694441 
C 381.647529 657.050918 377.50802 655.287332 373.421763 653.405869 
z
" clip-path="url(#p9bda94ee5e)" style="fill: #e8ccad"/>
   </g>
   <g id="patch_27">
    <path d="M 471.578281 440.224524 
C 471.578281 440.224524 471.578281 440.224524 471.578281 440.224524 
C 471.578281 440.224524 471.578281 440.224524 471.578281 440.224524 
L 366.42463 649.249366 
C 362.418044 647.233783 358.470239 645.103418 354.586107 642.860914 
C 350.701976 640.618409 346.883123 638.264692 343.134284 635.802679 
z
" clip-path="url(#p9bda94ee5e)" style="fill: #e8cbab"/>
   </g>
   <g id="patch_28">
    <path d="M 471.578281 440.224524 
C 471.578281 440.224524 471.578281 440.224524 471.578281 440.224524 
C 471.578281 440.224524 471.578281 440.224524 471.578281 440.224524 
L 336.445573 631.242393 
C 332.784145 628.652171 329.197948 625.957211 325.691427 623.160854 
C 322.184905 620.364497 318.75951 617.467898 315.419486 614.474648 
z
" clip-path="url(#p9bda94ee5e)" style="fill: #e8c9a9"/>
   </g>
   <g id="patch_29">
    <path d="M 471.578281 440.224524 
C 471.578281 440.224524 471.578281 440.224524 471.578281 440.224524 
C 471.578281 440.224524 471.578281 440.224524 471.578281 440.224524 
L 309.239562 609.224069 
C 306.000181 606.112362 302.850937 602.908161 299.795734 599.615435 
C 296.740531 596.322709 293.780632 592.942821 290.919706 589.47996 
z
" clip-path="url(#p9bda94ee5e)" style="fill: #e8c7a6"/>
   </g>
   <g id="patch_30">
    <path d="M 471.578281 440.224524 
C 471.578281 440.224524 471.578281 440.224524 471.578281 440.224524 
C 471.578281 440.224524 471.578281 440.224524 471.578281 440.224524 
L 285.864676 583.141153 
C 283.125252 579.581397 280.488744 575.943613 277.958421 572.23231 
C 275.428097 568.521007 273.005004 564.737719 270.692145 560.887137 
z
" clip-path="url(#p9bda94ee5e)" style="fill: #e8c7a6"/>
   </g>
   <g id="patch_31">
    <path d="M 471.578281 440.224524 
C 471.578281 440.224524 471.578281 440.224524 471.578281 440.224524 
C 471.578281 440.224524 471.578281 440.224524 471.578281 440.224524 
L 268.188552 553.0061 
C 266.026756 549.107528 263.977499 545.147607 262.04332 541.131243 
C 260.109142 537.11488 258.290841 533.043735 256.590673 528.922856 
z
" clip-path="url(#p9bda94ee5e)" style="fill: #e8c4a2"/>
   </g>
   <g id="patch_32">
    <path d="M 471.578281 440.224524 
C 471.578281 440.224524 471.578281 440.224524 471.578281 440.224524 
C 471.578281 440.224524 471.578281 440.224524 471.578281 440.224524 
L 253.983232 521.308964 
C 252.429007 517.138105 250.995023 512.923421 249.683058 508.670136 
C 248.371094 504.416851 247.181691 500.126724 246.116323 495.805072 
z
" clip-path="url(#p9bda94ee5e)" style="fill: #e8c4a2"/>
   </g>
   <g id="patch_33">
    <path d="M 471.578281 440.224524 
C 471.578281 440.224524 471.578281 440.224524 471.578281 440.224524 
C 471.578281 440.224524 471.578281 440.224524 471.578281 440.224524 
L 244.32858 487.972458 
C 243.413349 483.616539 242.623547 479.235205 241.960155 474.833888 
C 241.296764 470.432571 240.760055 466.01309 240.350696 461.580922 
z
" clip-path="url(#p9bda94ee5e)" style="fill: #e8c19e"/>
   </g>
   <g id="patch_34">
    <path d="M 471.578281 440.224524 
C 471.578281 440.224524 471.578281 440.224524 471.578281 440.224524 
C 471.578281 440.224524 471.578281 440.224524 471.578281 440.224524 
L 240.104247 453.548969 
C 239.848844 449.112078 239.721064 444.668761 239.721064 440.224524 
C 239.721064 435.780288 239.848844 431.336971 240.104247 426.90008 
z
" clip-path="url(#p9bda94ee5e)" style="fill: #e8c19e"/>
   </g>
   <g id="patch_35">
    <path d="M 471.578281 440.224524 
C 471.578281 440.224524 471.578281 440.224524 471.578281 440.224524 
C 471.578281 440.224524 471.578281 440.224524 471.578281 440.224524 
L 239.644658 418.802916 
C 240.055267 414.357215 240.593614 409.92424 241.259031 405.509483 
C 241.924449 401.094727 242.716662 396.700015 243.634688 392.330795 
z
" clip-path="url(#p9bda94ee5e)" style="fill: #e8be98"/>
   </g>
   <g id="patch_36">
    <path d="M 471.578281 440.224524 
C 471.578281 440.224524 471.578281 440.224524 471.578281 440.224524 
C 471.578281 440.224524 471.578281 440.224524 471.578281 440.224524 
L 245.42789 384.474265 
C 246.49651 380.139417 247.689545 375.83619 249.005515 371.569919 
C 250.321486 367.303647 251.759848 363.076093 253.31882 358.892499 
z
" clip-path="url(#p9bda94ee5e)" style="fill: #e8be98"/>
   </g>
   <g id="patch_37">
    <path d="M 471.578281 440.224524 
C 471.578281 440.224524 471.578281 440.224524 471.578281 440.224524 
C 471.578281 440.224524 471.578281 440.224524 471.578281 440.224524 
L 256.262948 351.390982 
C 257.965708 347.263821 259.78678 343.18647 261.723907 339.163984 
C 263.661035 335.141499 265.713416 331.17554 267.878507 327.271026 
z
" clip-path="url(#p9bda94ee5e)" style="fill: #e8bc94"/>
   </g>
   <g id="patch_38">
    <path d="M 471.578281 440.224524 
C 471.578281 440.224524 471.578281 440.224524 471.578281 440.224524 
C 471.578281 440.224524 471.578281 440.224524 471.578281 440.224524 
L 271.603882 320.109549 
C 273.906244 316.276442 276.31834 312.510325 278.83718 308.815866 
C 281.356019 305.121408 283.980561 301.500134 286.707552 297.956534 
z
" clip-path="url(#p9bda94ee5e)" style="fill: #e8bc94"/>
   </g>
   <g id="patch_39">
    <path d="M 471.578281 440.224524 
C 471.578281 440.224524 471.578281 440.224524 471.578281 440.224524 
C 471.578281 440.224524 471.578281 440.224524 471.578281 440.224524 
L 293.106194 292.775509 
C 295.932495 289.354558 298.856571 286.015576 301.874797 282.762702 
C 304.893023 279.509828 308.004152 276.344406 311.204327 273.27036 
z
" clip-path="url(#p9bda94ee5e)" style="fill: #e8ba92"/>
   </g>
   <g id="patch_40">
    <path d="M 471.578281 440.224524 
C 471.578281 440.224524 471.578281 440.224524 471.578281 440.224524 
C 471.578281 440.224524 471.578281 440.224524 471.578281 440.224524 
L 316.365903 267.030462 
C 319.685684 264.055353 323.09032 261.17631 326.575589 258.3969 
C 330.060859 255.61749 333.625322 252.938863 337.264559 250.36434 
z
" clip-path="url(#p9bda94ee5e)" style="fill: #e8b98e"/>
   </g>
   <g id="patch_41">
    <path d="M 471.578281 440.224524 
C 471.578281 440.224524 471.578281 440.224524 471.578281 440.224524 
C 471.578281 440.224524 471.578281 440.224524 471.578281 440.224524 
L 343.71812 245.535361 
C 347.449919 243.08454 351.251413 240.741521 355.11789 238.50921 
C 358.984366 236.276898 362.914227 234.156217 366.902601 232.149795 
z
" clip-path="url(#p9bda94ee5e)" style="fill: #e8b98e"/>
   </g>
   <g id="patch_42">
    <path d="M 471.578281 440.224524 
C 471.578281 440.224524 471.578281 440.224524 471.578281 440.224524 
C 471.578281 440.224524 471.578281 440.224524 471.578281 440.224524 
L 373.570036 227.365206 
C 377.65012 225.486585 381.783376 223.725663 385.964679 222.084622 
C 390.145981 220.443582 394.373603 218.923102 398.642303 217.525066 
z
" clip-path="url(#p9bda94ee5e)" style="fill: #e8b78b"/>
   </g>
   <g id="patch_43">
    <path d="M 471.578281 440.224524 
C 471.578281 440.224524 471.578281 440.224524 471.578281 440.224524 
C 471.578281 440.224524 471.578281 440.224524 471.578281 440.224524 
L 405.206289 211.048957 
C 409.599123 209.77674 414.027628 208.631088 418.486315 207.613422 
C 422.945002 206.595756 427.432026 205.706496 431.941828 204.946745 
z
" clip-path="url(#p9bda94ee5e)" style="fill: #e7b488"/>
   </g>
   <g id="patch_44">
    <path d="M 471.578281 440.224524 
C 471.578281 440.224524 471.578281 440.224524 471.578281 440.224524 
C 471.578281 440.224524 471.578281 440.224524 471.578281 440.224524 
L 439.823857 201.607885 
C 444.397657 200.999217 448.988013 200.52218 453.589234 200.177366 
C 458.190454 199.832552 462.800638 199.620104 467.414071 199.540285 
z
" clip-path="url(#p9bda94ee5e)" style="fill: #e7b488"/>
   </g>
   <g id="matplotlib.axis_1">
    <g id="xtick_1">
     <g id="line2d_1"/>
     <g id="line2d_2">
      <defs>
       <path id="m67f467d318" d="M 0 0 
L 7.97763 -0.597841 
" style="stroke: #000000; stroke-width: 0.8"/>
      </defs>
      <g>
       <use xlink:href="#m67f467d318" x="715.514274" y="421.944049" style="stroke: #000000; stroke-width: 0.8"/>
      </g>
     </g>
    </g>
    <g id="xtick_2">
     <g id="line2d_3"/>
     <g id="line2d_4">
      <defs>
       <path id="me5b70739f1" d="M 0 0 
L 7.799423 -1.780167 
" style="stroke: #000000; stroke-width: 0.8"/>
      </defs>
      <g>
       <use xlink:href="#me5b70739f1" x="710.065147" y="385.791454" style="stroke: #000000; stroke-width: 0.8"/>
      </g>
     </g>
    </g>
    <g id="xtick_3">
     <g id="line2d_5"/>
     <g id="line2d_6">
      <defs>
       <path id="m6772d58e08" d="M 0 0 
L 7.44699 -2.922728 
" style="stroke: #000000; stroke-width: 0.8"/>
      </defs>
      <g>
       <use xlink:href="#m6772d58e08" x="699.288618" y="350.854803" style="stroke: #000000; stroke-width: 0.8"/>
      </g>
     </g>
    </g>
    <g id="xtick_4">
     <g id="line2d_7"/>
     <g id="line2d_8">
      <defs>
       <path id="m0dd341bd1f" d="M 0 0 
L 6.928203 -4 
" style="stroke: #000000; stroke-width: 0.8"/>
      </defs>
      <g>
       <use xlink:href="#m0dd341bd1f" x="683.425416" y="317.914524" style="stroke: #000000; stroke-width: 0.8"/>
      </g>
     </g>
    </g>
    <g id="xtick_5">
     <g id="line2d_9"/>
     <g id="line2d_10">
      <defs>
       <path id="m5a89aa9d4f" d="M 0 0 
L 6.254652 -4.987918 
" style="stroke: #000000; stroke-width: 0.8"/>
      </defs>
      <g>
       <use xlink:href="#m5a89aa9d4f" x="662.829898" y="287.706449" style="stroke: #000000; stroke-width: 0.8"/>
      </g>
     </g>
    </g>
    <g id="xtick_6">
     <g id="line2d_11"/>
     <g id="line2d_12">
      <defs>
       <path id="md6b0686d04" d="M 0 0 
L 5.441382 -5.864415 
" style="stroke: #000000; stroke-width: 0.8"/>
      </defs>
      <g>
       <use xlink:href="#md6b0686d04" x="637.962136" y="260.905376" style="stroke: #000000; stroke-width: 0.8"/>
      </g>
     </g>
    </g>
    <g id="xtick_7">
     <g id="line2d_13"/>
     <g id="line2d_14">
      <defs>
       <path id="mf6b9f9df20" d="M 0 0 
L 4.50656 -6.60991 
" style="stroke: #000000; stroke-width: 0.8"/>
      </defs>
      <g>
       <use xlink:href="#mf6b9f9df20" x="609.377634" y="238.109995" style="stroke: #000000; stroke-width: 0.8"/>
      </g>
     </g>
    </g>
    <g id="xtick_8">
     <g id="line2d_15"/>
     <g id="line2d_16">
      <defs>
       <path id="mf90d1534bf" d="M 0 0 
L 3.47107 -7.207751 
" style="stroke: #000000; stroke-width: 0.8"/>
      </defs>
      <g>
       <use xlink:href="#mf90d1534bf" x="577.714922" y="219.82952" style="stroke: #000000; stroke-width: 0.8"/>
      </g>
     </g>
    </g>
    <g id="xtick_9">
     <g id="line2d_17"/>
     <g id="line2d_18">
      <defs>
       <path id="md9dda50b64" d="M 0 0 
L 2.358041 -7.644582 
" style="stroke: #000000; stroke-width: 0.8"/>
      </defs>
      <g>
       <use xlink:href="#md9dda50b64" x="543.681292" y="206.472305" style="stroke: #000000; stroke-width: 0.8"/>
      </g>
     </g>
    </g>
    <g id="xtick_10">
     <g id="line2d_19"/>
     <g id="line2d_20">
      <defs>
       <path id="md247a485d8" d="M 0 0 
L 1.192338 -7.910647 
" style="stroke: #000000; stroke-width: 0.8"/>
      </defs>
      <g>
       <use xlink:href="#md247a485d8" x="508.037" y="198.336728" style="stroke: #000000; stroke-width: 0.8"/>
      </g>
     </g>
    </g>
    <g id="xtick_11">
     <g id="line2d_21"/>
     <g id="line2d_22">
      <defs>
       <path id="m84269d2fe1" d="M 0 0 
L 0 -8 
" style="stroke: #000000; stroke-width: 0.8"/>
      </defs>
      <g>
       <use xlink:href="#m84269d2fe1" x="471.578281" y="195.604524" style="stroke: #000000; stroke-width: 0.8"/>
      </g>
     </g>
    </g>
    <g id="xtick_12">
     <g id="line2d_23"/>
     <g id="line2d_24">
      <defs>
       <path id="m2ece3aa4e6" d="M 0 0 
L -1.192338 -7.910647 
" style="stroke: #000000; stroke-width: 0.8"/>
      </defs>
      <g>
       <use xlink:href="#m2ece3aa4e6" x="435.119562" y="198.336728" style="stroke: #000000; stroke-width: 0.8"/>
      </g>
     </g>
    </g>
    <g id="xtick_13">
     <g id="line2d_25"/>
     <g id="line2d_26">
      <defs>
       <path id="m5a9638d597" d="M 0 0 
L -2.358041 -7.644582 
" style="stroke: #000000; stroke-width: 0.8"/>
      </defs>
      <g>
       <use xlink:href="#m5a9638d597" x="399.47527" y="206.472305" style="stroke: #000000; stroke-width: 0.8"/>
      </g>
     </g>
    </g>
    <g id="xtick_14">
     <g id="line2d_27"/>
     <g id="line2d_28">
      <defs>
       <path id="m5de9a315eb" d="M 0 0 
L -3.47107 -7.207751 
" style="stroke: #000000; stroke-width: 0.8"/>
      </defs>
      <g>
       <use xlink:href="#m5de9a315eb" x="365.441641" y="219.82952" style="stroke: #000000; stroke-width: 0.8"/>
      </g>
     </g>
    </g>
    <g id="xtick_15">
     <g id="line2d_29"/>
     <g id="line2d_30">
      <defs>
       <path id="mf9ff03a697" d="M 0 0 
L -4.50656 -6.60991 
" style="stroke: #000000; stroke-width: 0.8"/>
      </defs>
      <g>
       <use xlink:href="#mf9ff03a697" x="333.778929" y="238.109995" style="stroke: #000000; stroke-width: 0.8"/>
      </g>
     </g>
    </g>
    <g id="xtick_16">
     <g id="line2d_31"/>
     <g id="line2d_32">
      <defs>
       <path id="m407d922138" d="M 0 0 
L -5.441382 -5.864415 
" style="stroke: #000000; stroke-width: 0.8"/>
      </defs>
      <g>
       <use xlink:href="#m407d922138" x="305.194426" y="260.905376" style="stroke: #000000; stroke-width: 0.8"/>
      </g>
     </g>
    </g>
    <g id="xtick_17">
     <g id="line2d_33"/>
     <g id="line2d_34">
      <defs>
       <path id="m132cf5aca6" d="M 0 0 
L -6.254652 -4.987918 
" style="stroke: #000000; stroke-width: 0.8"/>
      </defs>
      <g>
       <use xlink:href="#m132cf5aca6" x="280.326664" y="287.706449" style="stroke: #000000; stroke-width: 0.8"/>
      </g>
     </g>
    </g>
    <g id="xtick_18">
     <g id="line2d_35"/>
     <g id="line2d_36">
      <defs>
       <path id="m3dff382685" d="M 0 0 
L -6.928203 -4 
" style="stroke: #000000; stroke-width: 0.8"/>
      </defs>
      <g>
       <use xlink:href="#m3dff382685" x="259.731147" y="317.914524" style="stroke: #000000; stroke-width: 0.8"/>
      </g>
     </g>
    </g>
    <g id="xtick_19">
     <g id="line2d_37"/>
     <g id="line2d_38">
      <defs>
       <path id="m0526006e9e" d="M 0 0 
L -7.44699 -2.922728 
" style="stroke: #000000; stroke-width: 0.8"/>
      </defs>
      <g>
       <use xlink:href="#m0526006e9e" x="243.867945" y="350.854803" style="stroke: #000000; stroke-width: 0.8"/>
      </g>
     </g>
    </g>
    <g id="xtick_20">
     <g id="line2d_39"/>
     <g id="line2d_40">
      <defs>
       <path id="m782a0b2a4b" d="M 0 0 
L -7.799423 -1.780167 
" style="stroke: #000000; stroke-width: 0.8"/>
      </defs>
      <g>
       <use xlink:href="#m782a0b2a4b" x="233.091415" y="385.791454" style="stroke: #000000; stroke-width: 0.8"/>
      </g>
     </g>
    </g>
    <g id="xtick_21">
     <g id="line2d_41"/>
     <g id="line2d_42">
      <defs>
       <path id="md1691bd039" d="M 0 0 
L -7.97763 -0.597841 
" style="stroke: #000000; stroke-width: 0.8"/>
      </defs>
      <g>
       <use xlink:href="#md1691bd039" x="227.642288" y="421.944049" style="stroke: #000000; stroke-width: 0.8"/>
      </g>
     </g>
    </g>
    <g id="xtick_22">
     <g id="line2d_43"/>
     <g id="line2d_44">
      <defs>
       <path id="m29e0d6a1e2" d="M 0 0 
L -7.97763 0.597841 
" style="stroke: #000000; stroke-width: 0.8"/>
      </defs>
      <g>
       <use xlink:href="#m29e0d6a1e2" x="227.642288" y="458.505" style="stroke: #000000; stroke-width: 0.8"/>
      </g>
     </g>
    </g>
    <g id="xtick_23">
     <g id="line2d_45"/>
     <g id="line2d_46">
      <defs>
       <path id="m8557883bed" d="M 0 0 
L -7.799423 1.780167 
" style="stroke: #000000; stroke-width: 0.8"/>
      </defs>
      <g>
       <use xlink:href="#m8557883bed" x="233.091415" y="494.657595" style="stroke: #000000; stroke-width: 0.8"/>
      </g>
     </g>
    </g>
    <g id="xtick_24">
     <g id="line2d_47"/>
     <g id="line2d_48">
      <defs>
       <path id="m924f6388c3" d="M 0 0 
L -7.44699 2.922728 
" style="stroke: #000000; stroke-width: 0.8"/>
      </defs>
      <g>
       <use xlink:href="#m924f6388c3" x="243.867945" y="529.594246" style="stroke: #000000; stroke-width: 0.8"/>
      </g>
     </g>
    </g>
    <g id="xtick_25">
     <g id="line2d_49"/>
     <g id="line2d_50">
      <defs>
       <path id="m64ae6dd5ba" d="M 0 0 
L -6.928203 4 
" style="stroke: #000000; stroke-width: 0.8"/>
      </defs>
      <g>
       <use xlink:href="#m64ae6dd5ba" x="259.731147" y="562.534524" style="stroke: #000000; stroke-width: 0.8"/>
      </g>
     </g>
    </g>
    <g id="xtick_26">
     <g id="line2d_51"/>
     <g id="line2d_52">
      <defs>
       <path id="m39954f382a" d="M 0 0 
L -6.254652 4.987918 
" style="stroke: #000000; stroke-width: 0.8"/>
      </defs>
      <g>
       <use xlink:href="#m39954f382a" x="280.326664" y="592.7426" style="stroke: #000000; stroke-width: 0.8"/>
      </g>
     </g>
    </g>
    <g id="xtick_27">
     <g id="line2d_53"/>
     <g id="line2d_54">
      <defs>
       <path id="m75687afa2a" d="M 0 0 
L -5.441382 5.864415 
" style="stroke: #000000; stroke-width: 0.8"/>
      </defs>
      <g>
       <use xlink:href="#m75687afa2a" x="305.194426" y="619.543673" style="stroke: #000000; stroke-width: 0.8"/>
      </g>
     </g>
    </g>
    <g id="xtick_28">
     <g id="line2d_55"/>
     <g id="line2d_56">
      <defs>
       <path id="ma67a254587" d="M 0 0 
L -4.50656 6.60991 
" style="stroke: #000000; stroke-width: 0.8"/>
      </defs>
      <g>
       <use xlink:href="#ma67a254587" x="333.778929" y="642.339053" style="stroke: #000000; stroke-width: 0.8"/>
      </g>
     </g>
    </g>
    <g id="xtick_29">
     <g id="line2d_57"/>
     <g id="line2d_58">
      <defs>
       <path id="m7ec9a04c1a" d="M 0 0 
L -3.47107 7.207751 
" style="stroke: #000000; stroke-width: 0.8"/>
      </defs>
      <g>
       <use xlink:href="#m7ec9a04c1a" x="365.441641" y="660.619529" style="stroke: #000000; stroke-width: 0.8"/>
      </g>
     </g>
    </g>
    <g id="xtick_30">
     <g id="line2d_59"/>
     <g id="line2d_60">
      <defs>
       <path id="m0334dde2f3" d="M 0 0 
L -2.358041 7.644582 
" style="stroke: #000000; stroke-width: 0.8"/>
      </defs>
      <g>
       <use xlink:href="#m0334dde2f3" x="399.47527" y="673.976744" style="stroke: #000000; stroke-width: 0.8"/>
      </g>
     </g>
    </g>
    <g id="xtick_31">
     <g id="line2d_61"/>
     <g id="line2d_62">
      <defs>
       <path id="m071cd04497" d="M 0 0 
L -1.192338 7.910647 
" style="stroke: #000000; stroke-width: 0.8"/>
      </defs>
      <g>
       <use xlink:href="#m071cd04497" x="435.119562" y="682.112321" style="stroke: #000000; stroke-width: 0.8"/>
      </g>
     </g>
    </g>
    <g id="xtick_32">
     <g id="line2d_63"/>
     <g id="line2d_64">
      <defs>
       <path id="m2a77645aa8" d="M 0 0 
L -0 8 
" style="stroke: #000000; stroke-width: 0.8"/>
      </defs>
      <g>
       <use xlink:href="#m2a77645aa8" x="471.578281" y="684.844524" style="stroke: #000000; stroke-width: 0.8"/>
      </g>
     </g>
    </g>
    <g id="xtick_33">
     <g id="line2d_65"/>
     <g id="line2d_66">
      <defs>
       <path id="m0505a6e956" d="M 0 0 
L 1.192338 7.910647 
" style="stroke: #000000; stroke-width: 0.8"/>
      </defs>
      <g>
       <use xlink:href="#m0505a6e956" x="508.037" y="682.112321" style="stroke: #000000; stroke-width: 0.8"/>
      </g>
     </g>
    </g>
    <g id="xtick_34">
     <g id="line2d_67"/>
     <g id="line2d_68">
      <defs>
       <path id="mc9996a6ef9" d="M 0 0 
L 2.358041 7.644582 
" style="stroke: #000000; stroke-width: 0.8"/>
      </defs>
      <g>
       <use xlink:href="#mc9996a6ef9" x="543.681292" y="673.976744" style="stroke: #000000; stroke-width: 0.8"/>
      </g>
     </g>
    </g>
    <g id="xtick_35">
     <g id="line2d_69"/>
     <g id="line2d_70">
      <defs>
       <path id="m182da3e49b" d="M 0 0 
L 3.47107 7.207751 
" style="stroke: #000000; stroke-width: 0.8"/>
      </defs>
      <g>
       <use xlink:href="#m182da3e49b" x="577.714922" y="660.619529" style="stroke: #000000; stroke-width: 0.8"/>
      </g>
     </g>
    </g>
    <g id="xtick_36">
     <g id="line2d_71"/>
     <g id="line2d_72">
      <defs>
       <path id="mf5c9d86d64" d="M 0 0 
L 4.50656 6.60991 
" style="stroke: #000000; stroke-width: 0.8"/>
      </defs>
      <g>
       <use xlink:href="#mf5c9d86d64" x="609.377634" y="642.339053" style="stroke: #000000; stroke-width: 0.8"/>
      </g>
     </g>
    </g>
    <g id="xtick_37">
     <g id="line2d_73"/>
     <g id="line2d_74">
      <defs>
       <path id="mb4697eb1cd" d="M 0 0 
L 5.441382 5.864415 
" style="stroke: #000000; stroke-width: 0.8"/>
      </defs>
      <g>
       <use xlink:href="#mb4697eb1cd" x="637.962136" y="619.543673" style="stroke: #000000; stroke-width: 0.8"/>
      </g>
     </g>
    </g>
    <g id="xtick_38">
     <g id="line2d_75"/>
     <g id="line2d_76">
      <defs>
       <path id="m288099189d" d="M 0 0 
L 6.254652 4.987918 
" style="stroke: #000000; stroke-width: 0.8"/>
      </defs>
      <g>
       <use xlink:href="#m288099189d" x="662.829898" y="592.7426" style="stroke: #000000; stroke-width: 0.8"/>
      </g>
     </g>
    </g>
    <g id="xtick_39">
     <g id="line2d_77"/>
     <g id="line2d_78">
      <defs>
       <path id="mf6027c956b" d="M 0 0 
L 6.928203 4 
" style="stroke: #000000; stroke-width: 0.8"/>
      </defs>
      <g>
       <use xlink:href="#mf6027c956b" x="683.425416" y="562.534524" style="stroke: #000000; stroke-width: 0.8"/>
      </g>
     </g>
    </g>
    <g id="xtick_40">
     <g id="line2d_79"/>
     <g id="line2d_80">
      <defs>
       <path id="m9373a426d9" d="M 0 0 
L 7.44699 2.922728 
" style="stroke: #000000; stroke-width: 0.8"/>
      </defs>
      <g>
       <use xlink:href="#m9373a426d9" x="699.288618" y="529.594246" style="stroke: #000000; stroke-width: 0.8"/>
      </g>
     </g>
    </g>
    <g id="xtick_41">
     <g id="line2d_81"/>
     <g id="line2d_82">
      <defs>
       <path id="md1b706de01" d="M 0 0 
L 7.799423 1.780167 
" style="stroke: #000000; stroke-width: 0.8"/>
      </defs>
      <g>
       <use xlink:href="#md1b706de01" x="710.065147" y="494.657595" style="stroke: #000000; stroke-width: 0.8"/>
      </g>
     </g>
    </g>
    <g id="xtick_42">
     <g id="line2d_83"/>
     <g id="line2d_84">
      <defs>
       <path id="mabbba05f31" d="M 0 0 
L 7.97763 0.597841 
" style="stroke: #000000; stroke-width: 0.8"/>
      </defs>
      <g>
       <use xlink:href="#mabbba05f31" x="715.514274" y="458.505" style="stroke: #000000; stroke-width: 0.8"/>
      </g>
     </g>
    </g>
   </g>
   <g id="matplotlib.axis_2">
    <g id="ytick_1">
     <g id="line2d_85">
      <path d="M 471.578281 440.224524 
C 471.578281 440.224524 471.578281 440.224524 471.578281 440.224524 
C 471.578281 440.224524 471.578281 440.224524 471.578281 440.224524 
C 471.578281 440.224524 471.578281 440.224524 471.578281 440.224524 
C 471.578281 440.224524 471.578281 440.224524 471.578281 440.224524 
C 471.578281 440.224524 471.578281 440.224524 471.578281 440.224524 
C 471.578281 440.224524 471.578281 440.224524 471.578281 440.224524 
C 471.578281 440.224524 471.578281 440.224524 471.578281 440.224524 
C 471.578281 440.224524 471.578281 440.224524 471.578281 440.224524 
C 471.578281 440.224524 471.578281 440.224524 471.578281 440.224524 
C 471.578281 440.224524 471.578281 440.224524 471.578281 440.224524 
C 471.578281 440.224524 471.578281 440.224524 471.578281 440.224524 
C 471.578281 440.224524 471.578281 440.224524 471.578281 440.224524 
C 471.578281 440.224524 471.578281 440.224524 471.578281 440.224524 
C 471.578281 440.224524 471.578281 440.224524 471.578281 440.224524 
C 471.578281 440.224524 471.578281 440.224524 471.578281 440.224524 
C 471.578281 440.224524 471.578281 440.224524 471.578281 440.224524 
" clip-path="url(#p9bda94ee5e)" style="fill: none; stroke-dasharray: 6.29,2.72; stroke-dashoffset: 0; stroke: #ffffff; stroke-width: 1.7"/>
     </g>
     <g id="text_1">
      <!--   -->
      <g transform="translate(471.578281 438.144837)scale(0.1 -0.1)">
       <defs>
        <path id="DejaVuSans-20" transform="scale(0.015625)"/>
       </defs>
       <use xlink:href="#DejaVuSans-20"/>
      </g>
     </g>
    </g>
    <g id="ytick_2">
     <g id="line2d_86">
      <path d="M 553.118281 440.224524 
C 553.118281 429.51679 551.009091 418.913174 546.911418 409.020517 
C 542.813746 399.12786 536.80728 390.138549 529.235768 382.567038 
C 521.664256 374.995526 512.674945 368.98906 502.782288 364.891387 
C 492.889631 360.793715 482.286016 358.684524 471.578281 358.684524 
C 460.870547 358.684524 450.266931 360.793715 440.374274 364.891387 
C 430.481617 368.98906 421.492306 374.995526 413.920794 382.567038 
C 406.349282 390.138549 400.342817 399.12786 396.245144 409.020517 
C 392.147472 418.913174 390.038281 429.51679 390.038281 440.224524 
C 390.038281 450.932259 392.147472 461.535875 396.245144 471.428532 
C 400.342817 481.321188 406.349282 490.3105 413.920794 497.882011 
C 421.492306 505.453523 430.481617 511.459989 440.374274 515.557662 
C 450.266931 519.655334 460.870547 521.764524 471.578281 521.764524 
C 482.286016 521.764524 492.889631 519.655334 502.782288 515.557662 
C 512.674945 511.459989 521.664256 505.453523 529.235768 497.882011 
C 536.80728 490.3105 542.813746 481.321188 546.911418 471.428532 
C 551.009091 461.535875 553.118281 450.932259 553.118281 440.224524 
" clip-path="url(#p9bda94ee5e)" style="fill: none; stroke-dasharray: 6.29,2.72; stroke-dashoffset: 0; stroke: #ffffff; stroke-width: 1.7"/>
     </g>
     <g id="text_2">
      <!--   -->
      <g transform="translate(546.911418 406.94083)scale(0.1 -0.1)">
       <use xlink:href="#DejaVuSans-20"/>
      </g>
     </g>
    </g>
    <g id="ytick_3">
     <g id="line2d_87">
      <path d="M 634.658281 440.224524 
C 634.658281 418.809055 630.439901 397.601824 622.244555 377.81651 
C 614.04921 358.031196 602.036279 340.052574 586.893255 324.909551 
C 571.750232 309.766527 553.771609 297.753596 533.986295 289.55825 
C 514.200982 281.362905 492.993751 277.144524 471.578281 277.144524 
C 450.162812 277.144524 428.955581 281.362905 409.170267 289.55825 
C 389.384953 297.753596 371.406331 309.766527 356.263307 324.909551 
C 341.120284 340.052574 329.107352 358.031196 320.912007 377.81651 
C 312.716662 397.601824 308.498281 418.809055 308.498281 440.224524 
C 308.498281 461.639994 312.716662 482.847225 320.912007 502.632539 
C 329.107352 522.417852 341.120284 540.396475 356.263307 555.539498 
C 371.406331 570.682522 389.384953 582.695453 409.170267 590.890799 
C 428.955581 599.086144 450.162812 603.304524 471.578281 603.304524 
C 492.993751 603.304524 514.200982 599.086144 533.986295 590.890799 
C 553.771609 582.695453 571.750232 570.682522 586.893255 555.539498 
C 602.036279 540.396475 614.04921 522.417852 622.244555 502.632539 
C 630.439901 482.847225 634.658281 461.639994 634.658281 440.224524 
" clip-path="url(#p9bda94ee5e)" style="fill: none; stroke-dasharray: 6.29,2.72; stroke-dashoffset: 0; stroke: #ffffff; stroke-width: 1.7"/>
     </g>
     <g id="text_3">
      <!--   -->
      <g transform="translate(622.244555 375.736823)scale(0.1 -0.1)">
       <use xlink:href="#DejaVuSans-20"/>
      </g>
     </g>
    </g>
    <g id="ytick_4">
     <g id="line2d_88">
      <path d="M 716.198281 440.224524 
C 716.198281 408.10132 709.87071 376.290474 697.577692 346.612503 
C 685.284674 316.934532 667.265277 289.966599 644.550742 267.252064 
C 621.836207 244.537528 594.868273 226.518131 565.190302 214.225113 
C 535.512332 201.932095 503.701485 195.604524 471.578281 195.604524 
C 439.455077 195.604524 407.644231 201.932095 377.96626 214.225113 
C 348.288289 226.518131 321.320356 244.537528 298.60582 267.252064 
C 275.891285 289.966599 257.871888 316.934532 245.57887 346.612503 
C 233.285852 376.290474 226.958281 408.10132 226.958281 440.224524 
C 226.958281 472.347729 233.285852 504.158575 245.57887 533.836546 
C 257.871888 563.514516 275.891285 590.48245 298.60582 613.196985 
C 321.320356 635.911521 348.288289 653.930918 377.96626 666.223936 
C 407.644231 678.516954 439.455077 684.844524 471.578281 684.844524 
C 503.701485 684.844524 535.512332 678.516954 565.190302 666.223936 
C 594.868273 653.930918 621.836207 635.911521 644.550742 613.196985 
C 667.265277 590.48245 685.284674 563.514516 697.577692 533.836546 
C 709.87071 504.158575 716.198281 472.347729 716.198281 440.224524 
" clip-path="url(#p9bda94ee5e)" style="fill: none; stroke-dasharray: 6.29,2.72; stroke-dashoffset: 0; stroke: #ffffff; stroke-width: 1.7"/>
     </g>
     <g id="text_4">
      <!--   -->
      <g transform="translate(697.577692 344.532816)scale(0.1 -0.1)">
       <use xlink:href="#DejaVuSans-20"/>
      </g>
     </g>
    </g>
   </g>
   <g id="line2d_89">
    <path d="M 471.578281 440.224524 
L 471.578281 195.604524 
" clip-path="url(#p9bda94ee5e)" style="fill: none; stroke: #4c4c4c; stroke-width: 1.5; stroke-linecap: square"/>
   </g>
   <g id="line2d_90">
    <path d="M 471.578281 440.224524 
L 464.487846 440.224524 
" clip-path="url(#p9bda94ee5e)" style="fill: none; stroke: #4c4c4c; stroke-width: 1.5; stroke-linecap: square"/>
   </g>
   <g id="line2d_91">
    <path d="M 471.578281 358.684524 
L 463.871326 358.693454 
" clip-path="url(#p9bda94ee5e)" style="fill: none; stroke: #4c4c4c; stroke-width: 1.5; stroke-linecap: square"/>
   </g>
   <g id="line2d_92">
    <path d="M 471.578281 358.684524 
L 463.871326 358.693454 
" clip-path="url(#p9bda94ee5e)" style="fill: none; stroke: #4c4c4c; stroke-width: 1.5; stroke-linecap: square"/>
   </g>
   <g id="line2d_93">
    <path d="M 471.578281 277.144524 
L 463.879461 276.971435 
" clip-path="url(#p9bda94ee5e)" style="fill: none; stroke: #4c4c4c; stroke-width: 1.5; stroke-linecap: square"/>
   </g>
   <g id="line2d_94">
    <path d="M 471.578281 195.781785 
L 463.894581 195.72523 
" clip-path="url(#p9bda94ee5e)" style="fill: none; stroke: #4c4c4c; stroke-width: 1.5; stroke-linecap: square"/>
   </g>
   <g id="patch_45">
    <path d="M 716.198281 440.224524 
C 716.198281 408.10132 709.87071 376.290474 697.577692 346.612503 
C 685.284674 316.934532 667.265277 289.966599 644.550742 267.252064 
C 621.836207 244.537528 594.868273 226.518131 565.190302 214.225113 
C 535.512332 201.932095 503.701485 195.604524 471.578281 195.604524 
C 439.455077 195.604524 407.644231 201.932095 377.96626 214.225113 
C 348.288289 226.518131 321.320356 244.537528 298.60582 267.252064 
C 275.891285 289.966599 257.871888 316.934532 245.57887 346.612503 
C 233.285852 376.290474 226.958281 408.10132 226.958281 440.224524 
C 226.958281 472.347729 233.285852 504.158575 245.57887 533.836546 
C 257.871888 563.514516 275.891285 590.48245 298.60582 613.196985 
C 321.320356 635.911521 348.288289 653.930918 377.96626 666.223936 
C 407.644231 678.516954 439.455077 684.844524 471.578281 684.844524 
C 503.701485 684.844524 535.512332 678.516954 565.190302 666.223936 
C 594.868273 653.930918 621.836207 635.911521 644.550742 613.196985 
C 667.265277 590.48245 685.284674 563.514516 697.577692 533.836546 
C 709.87071 504.158575 716.198281 472.347729 716.198281 440.224524 
" style="fill: none; stroke: #000000; stroke-width: 0.8; stroke-linejoin: miter; stroke-linecap: square"/>
   </g>
   <g id="text_5">
    <!-- 单位：个 -->
    <g style="fill: #4c4c4c" transform="translate(23.374875 92.562325)scale(0.17 -0.17)">
     <defs>
      <path id="SimHei-5355" d="M 5275 4075 
L 5275 1525 
L 3400 1525 
L 3400 925 
L 5050 925 
Q 5600 925 6000 950 
L 6000 450 
Q 5575 475 5050 475 
L 3400 475 
Q 3400 -300 3425 -625 
L 2875 -625 
Q 2925 -300 2925 475 
L 1300 475 
Q 700 475 425 450 
L 425 950 
Q 675 925 1250 925 
L 2925 925 
L 2925 1525 
L 1125 1525 
Q 1150 1950 1150 2750 
Q 1150 3550 1125 4075 
L 3600 4075 
Q 3875 4650 4075 5250 
Q 4325 5125 4650 4975 
Q 4550 4850 4400 4587 
Q 4250 4325 4100 4075 
L 5275 4075 
z
M 4775 1925 
L 4775 2600 
L 3400 2600 
L 3400 1925 
L 4775 1925 
z
M 4775 3000 
L 4775 3650 
L 3400 3650 
L 3400 3000 
L 4775 3000 
z
M 2925 1925 
L 2925 2600 
L 1625 2600 
L 1625 1925 
L 2925 1925 
z
M 2925 3000 
L 2925 3650 
L 1625 3650 
L 1625 3000 
L 2925 3000 
z
M 2100 5225 
Q 2350 4950 2675 4350 
Q 2400 4225 2225 4125 
Q 1975 4675 1725 4975 
Q 1900 5075 2100 5225 
z
" transform="scale(0.015625)"/>
      <path id="SimHei-4f4d" d="M 2125 4925 
Q 1950 4750 1625 3750 
L 1625 575 
Q 1625 -225 1650 -650 
L 1100 -650 
Q 1150 -200 1150 550 
L 1150 2950 
Q 775 2275 550 1950 
Q 375 2275 200 2425 
Q 525 2775 912 3575 
Q 1300 4375 1500 5200 
Q 1825 5000 2125 4925 
z
M 5375 3025 
Q 5275 2875 5100 2250 
Q 4925 1625 4600 300 
L 5450 300 
Q 5925 300 6100 325 
L 6100 -175 
Q 5875 -150 5450 -150 
L 2900 -150 
Q 2275 -150 2050 -175 
L 2050 325 
Q 2275 300 2850 300 
L 4075 300 
Q 4400 1400 4700 3175 
Q 5100 3075 5375 3025 
z
M 5250 4025 
Q 5700 4025 5925 4050 
L 5925 3575 
Q 5700 3600 5225 3600 
L 3000 3600 
Q 2650 3600 2275 3575 
L 2275 4050 
Q 2675 4025 3000 4025 
L 5250 4025 
z
M 3050 3050 
Q 3500 1775 3750 725 
Q 3450 625 3250 550 
Q 3125 1125 2962 1675 
Q 2800 2225 2550 2875 
Q 2800 2925 3050 3050 
z
M 3875 5200 
Q 4175 4675 4400 4300 
Q 4200 4250 3875 4075 
Q 3700 4525 3400 4950 
Q 3650 5050 3875 5200 
z
" transform="scale(0.015625)"/>
      <path id="SimHei-ff1a" d="M 1200 2425 
L 2025 2425 
L 2025 1600 
L 1200 1600 
L 1200 2425 
z
M 1200 825 
L 2025 825 
L 2025 0 
L 1200 0 
L 1200 825 
z
" transform="scale(0.015625)"/>
      <path id="SimHei-4e2a" d="M 3425 4825 
Q 4475 3275 6150 2775 
Q 5900 2475 5775 2200 
Q 4150 2900 3150 4425 
Q 2225 2950 675 2125 
Q 550 2350 250 2600 
Q 1450 3100 2112 3875 
Q 2775 4650 3000 5275 
Q 3300 5150 3600 5050 
Q 3500 4925 3425 4825 
z
M 2925 2350 
Q 2925 2750 2875 3375 
L 3450 3375 
Q 3425 2950 3425 2325 
L 3425 550 
Q 3425 -25 3450 -625 
L 2900 -625 
Q 2925 0 2925 525 
L 2925 2350 
z
" transform="scale(0.015625)"/>
     </defs>
     <use xlink:href="#SimHei-5355"/>
     <use xlink:href="#SimHei-4f4d" x="100"/>
     <use xlink:href="#SimHei-ff1a" x="200"/>
     <use xlink:href="#SimHei-4e2a" x="300"/>
    </g>
   </g>
   <g id="text_6">
    <!-- 数据来源：国家统计局 -->
    <g style="fill: #4c4c4c" transform="translate(28.977417 783.540946)scale(0.17 -0.17)">
     <defs>
      <path id="SimHei-6570" d="M 4525 4925 
Q 4475 4800 4400 4587 
Q 4325 4375 4175 3825 
L 5325 3825 
Q 5575 3825 5925 3850 
L 5925 3400 
Q 5650 3425 5500 3425 
Q 5500 3025 5362 2162 
Q 5225 1300 4875 675 
Q 5125 375 5437 137 
Q 5750 -100 6025 -200 
Q 5725 -425 5625 -625 
Q 5325 -450 5075 -225 
Q 4825 0 4575 325 
Q 4300 25 3987 -187 
Q 3675 -400 3200 -650 
Q 3075 -425 2850 -300 
Q 3225 -150 3650 125 
Q 4075 400 4300 675 
Q 4125 1025 3962 1425 
Q 3800 1825 3675 2475 
Q 3600 2275 3425 1950 
Q 3250 2050 3000 2150 
Q 3400 2850 3650 3675 
Q 3900 4500 3975 5100 
Q 4275 4975 4525 4925 
z
M 2100 2250 
Q 2000 2150 1875 1925 
L 3250 1925 
Q 3100 1300 2725 675 
Q 3125 525 3350 400 
Q 3225 225 3125 25 
Q 2900 175 2450 325 
Q 1950 -225 725 -650 
Q 600 -375 400 -275 
Q 1575 0 2000 475 
Q 1300 650 850 775 
Q 1000 1000 1250 1525 
Q 1000 1525 425 1500 
L 425 1950 
Q 900 1925 1400 1925 
Q 1500 2150 1550 2425 
Q 1825 2325 2100 2250 
z
M 1775 3950 
Q 1775 4550 1750 5100 
L 2250 5100 
Q 2225 4575 2225 3950 
Q 3075 3950 3425 3975 
L 3425 3525 
Q 3075 3550 2225 3550 
Q 2225 2825 2250 2425 
L 1750 2425 
Q 1775 2775 1775 3300 
Q 1650 3100 1300 2787 
Q 950 2475 650 2300 
Q 525 2525 275 2625 
Q 500 2700 875 2975 
Q 1250 3250 1450 3550 
Q 950 3550 500 3525 
L 500 3975 
Q 925 3950 1775 3950 
z
M 3975 3175 
Q 4200 1700 4600 1125 
Q 4850 1700 4937 2287 
Q 5025 2875 5050 3425 
L 4075 3425 
L 3975 3175 
z
M 1450 1000 
Q 1750 925 2275 800 
Q 2475 1050 2650 1525 
L 1725 1525 
Q 1600 1275 1450 1000 
z
M 3325 4825 
Q 3200 4625 3125 4450 
Q 3050 4275 2925 4025 
Q 2725 4125 2525 4175 
Q 2725 4500 2900 5000 
Q 3150 4875 3325 4825 
z
M 2575 3375 
Q 2900 3050 3200 2725 
Q 3050 2600 2875 2425 
Q 2525 2850 2300 3100 
Q 2450 3225 2575 3375 
z
M 925 5000 
Q 1275 4650 1500 4300 
L 1125 4075 
Q 950 4425 600 4725 
Q 825 4875 925 5000 
z
" transform="scale(0.015625)"/>
      <path id="SimHei-636e" d="M 5750 4775 
Q 5725 4550 5725 4225 
L 5725 3900 
Q 5725 3450 5750 3250 
L 3100 3250 
L 3100 2500 
L 4250 2500 
Q 4250 2725 4225 3175 
L 4700 3175 
Q 4675 2775 4675 2500 
L 5350 2500 
Q 5800 2500 6100 2525 
L 6100 2075 
Q 5800 2100 5375 2100 
L 4675 2100 
L 4675 1425 
L 5775 1425 
Q 5750 950 5750 800 
L 5750 175 
Q 5750 -225 5775 -575 
L 5325 -575 
L 5325 -225 
L 3675 -225 
L 3675 -600 
L 3225 -600 
Q 3250 -325 3250 100 
L 3250 825 
Q 3250 1075 3225 1425 
L 4250 1425 
L 4250 2100 
L 3075 2100 
Q 3050 1375 2887 737 
Q 2725 100 2425 -475 
Q 2200 -325 1950 -250 
Q 2250 150 2387 600 
Q 2525 1050 2600 1562 
Q 2675 2075 2675 2625 
L 2675 3575 
Q 2675 3975 2650 4775 
L 5750 4775 
z
M 1275 4425 
Q 1275 4775 1250 5075 
L 1750 5075 
Q 1725 4800 1725 4425 
L 1725 3775 
Q 1975 3775 2500 3800 
L 2500 3375 
Q 1975 3400 1725 3400 
L 1725 2450 
Q 2050 2625 2400 2850 
Q 2425 2650 2525 2475 
Q 2050 2200 1725 2000 
L 1725 175 
Q 1725 -300 1487 -400 
Q 1250 -500 775 -575 
Q 725 -325 600 -50 
Q 1025 -50 1150 -12 
Q 1275 25 1275 325 
L 1275 1800 
Q 900 1600 525 1325 
Q 450 1525 275 1800 
Q 775 1975 1275 2250 
L 1275 3400 
Q 800 3400 350 3375 
L 350 3800 
Q 800 3775 1275 3775 
L 1275 4425 
z
M 5300 3625 
L 5300 4400 
L 3100 4400 
L 3100 3625 
L 5300 3625 
z
M 5325 150 
L 5325 1075 
L 3675 1075 
L 3675 150 
L 5325 150 
z
" transform="scale(0.015625)"/>
      <path id="SimHei-6765" d="M 3450 5125 
Q 3425 4875 3425 4600 
L 3425 4300 
L 4925 4300 
Q 5225 4300 5575 4325 
L 5575 3825 
Q 5225 3875 4925 3875 
L 3425 3875 
L 3425 2425 
L 5150 2425 
Q 5525 2425 5975 2450 
L 5975 1975 
Q 5550 2000 5150 2000 
L 3850 2000 
Q 4025 1750 4275 1525 
Q 4525 1300 4812 1087 
Q 5100 875 5450 725 
Q 5800 575 6125 500 
Q 5875 275 5800 150 
Q 5725 25 5700 -75 
Q 5175 150 4837 387 
Q 4500 625 4212 900 
Q 3925 1175 3725 1425 
Q 3525 1675 3425 1900 
L 3425 475 
Q 3425 75 3450 -475 
L 2875 -475 
Q 2925 75 2925 475 
L 2925 1950 
Q 2400 1125 1825 612 
Q 1250 100 775 -175 
Q 625 50 325 275 
Q 1225 675 1775 1237 
Q 2325 1800 2425 2000 
L 1125 2000 
Q 825 2000 425 1950 
L 425 2450 
Q 825 2425 1125 2425 
L 2925 2425 
L 2925 3875 
L 1500 3875 
Q 1075 3875 775 3825 
L 775 4325 
Q 1075 4300 1475 4300 
L 2925 4300 
L 2925 4625 
Q 2875 4900 2875 5125 
L 3450 5125 
z
M 4950 3500 
Q 4700 3075 4350 2500 
Q 4125 2600 3925 2675 
Q 4325 3400 4525 3725 
Q 4750 3650 4950 3500 
z
M 1750 3700 
Q 2150 3250 2400 2750 
Q 2175 2650 1975 2525 
Q 1750 2975 1400 3425 
Q 1575 3550 1750 3700 
z
" transform="scale(0.015625)"/>
      <path id="SimHei-6e90" d="M 4475 4300 
Q 4350 4100 4225 3800 
L 5650 3800 
Q 5625 3425 5625 3050 
L 5625 2425 
Q 5625 2150 5650 1650 
L 4575 1650 
L 4575 -25 
Q 4575 -325 4387 -487 
Q 4200 -650 3800 -700 
Q 3725 -425 3575 -150 
Q 4100 -225 4100 100 
L 4100 1650 
L 3050 1650 
Q 3075 2050 3075 2400 
L 3075 3075 
Q 3075 3400 3050 3800 
L 3725 3800 
Q 3825 4025 3925 4425 
Q 4175 4350 4475 4300 
z
M 1200 -175 
Q 1550 150 1725 537 
Q 1900 925 1987 1450 
Q 2075 1975 2087 2537 
Q 2100 3100 2100 3750 
Q 2100 4425 2075 4975 
L 4925 4975 
Q 5500 4975 6025 5000 
L 6025 4525 
Q 5500 4550 4925 4550 
L 2575 4550 
L 2575 2875 
Q 2575 2275 2537 1787 
Q 2500 1300 2362 837 
Q 2225 375 2050 37 
Q 1875 -300 1625 -625 
Q 1500 -375 1200 -175 
z
M 1550 1775 
Q 1375 1275 1150 575 
Q 925 -125 825 -450 
Q 600 -275 250 -125 
Q 400 75 650 687 
Q 900 1300 1075 2100 
Q 1325 1900 1550 1775 
z
M 5150 2900 
L 5150 3400 
L 3550 3400 
L 3550 2900 
L 5150 2900 
z
M 2275 -100 
Q 2475 100 2700 412 
Q 2925 725 3150 1150 
Q 3325 975 3650 825 
Q 3400 600 3200 287 
Q 3000 -25 2700 -400 
Q 2475 -225 2275 -100 
z
M 5150 2050 
L 5150 2500 
L 3550 2500 
L 3550 2050 
L 5150 2050 
z
M 5300 1125 
Q 6000 350 6175 100 
Q 5950 -75 5775 -250 
Q 5575 25 5400 262 
Q 5225 500 4925 825 
Q 5100 950 5300 1125 
z
M 1325 2575 
Q 1125 2775 850 2925 
L 300 3225 
Q 400 3400 525 3625 
Q 750 3500 1062 3337 
Q 1375 3175 1625 3025 
L 1325 2575 
z
M 1425 3975 
Q 975 4475 550 4775 
Q 700 4950 875 5125 
Q 1550 4600 1775 4350 
Q 1600 4175 1425 3975 
z
" transform="scale(0.015625)"/>
      <path id="SimHei-56fd" d="M 5775 4975 
Q 5750 4350 5750 3575 
L 5750 900 
Q 5750 125 5775 -625 
L 5275 -625 
L 5275 -275 
L 1125 -275 
L 1125 -650 
L 625 -650 
Q 650 125 650 950 
L 650 3575 
Q 650 4325 625 4975 
L 5775 4975 
z
M 5275 100 
L 5275 4600 
L 1125 4600 
L 1125 100 
L 5275 100 
z
M 3975 3925 
Q 4350 3925 4775 3950 
L 4775 3500 
Q 4400 3525 3975 3525 
L 3350 3525 
L 3350 2700 
L 3800 2700 
Q 4250 2700 4650 2725 
L 4650 2275 
Q 4250 2300 3800 2300 
L 3350 2300 
L 3350 1175 
L 4050 1175 
Q 4500 1175 4900 1200 
L 4900 750 
Q 4525 775 4050 775 
L 2350 775 
Q 1925 775 1500 750 
L 1500 1200 
Q 1925 1175 2350 1175 
L 2900 1175 
L 2900 2300 
L 2550 2300 
Q 2125 2300 1750 2275 
L 1750 2725 
Q 2125 2700 2550 2700 
L 2900 2700 
L 2900 3525 
L 2525 3525 
Q 2075 3525 1650 3500 
L 1650 3950 
Q 2075 3925 2525 3925 
L 3975 3925 
z
M 4050 2125 
Q 4175 2000 4550 1600 
Q 4300 1450 4125 1325 
Q 4050 1425 3700 1850 
Q 3900 2000 4050 2125 
z
" transform="scale(0.015625)"/>
      <path id="SimHei-5bb6" d="M 3425 1125 
Q 2600 475 1900 100 
Q 1200 -275 700 -525 
Q 500 -275 325 -75 
Q 1550 325 2262 775 
Q 2975 1225 3275 1550 
Q 3175 1725 3075 1850 
Q 2300 1300 1700 975 
Q 1100 650 750 525 
Q 575 775 375 950 
Q 1375 1250 1962 1600 
Q 2550 1950 2800 2175 
Q 2700 2300 2575 2450 
Q 2175 2225 1712 2012 
Q 1250 1800 725 1575 
Q 575 1825 375 2075 
Q 1400 2325 1950 2600 
Q 2500 2875 2750 3150 
L 2400 3150 
Q 2050 3150 1575 3125 
L 1575 3575 
Q 2050 3550 2400 3550 
L 4100 3550 
Q 4425 3550 4900 3575 
L 4900 3125 
Q 4425 3150 4100 3150 
L 3425 3150 
Q 3200 2950 2925 2700 
Q 3125 2525 3300 2337 
Q 3475 2150 3675 1825 
Q 3975 1975 4350 2237 
Q 4725 2500 5025 2900 
Q 5400 2550 5525 2425 
Q 5225 2300 5000 2175 
Q 4775 2050 4625 1900 
Q 4850 1150 5200 825 
Q 5550 500 6175 200 
Q 5925 25 5725 -275 
Q 5025 175 4700 662 
Q 4375 1150 4250 1675 
Q 4050 1550 3850 1450 
Q 3975 775 3962 325 
Q 3950 -125 3587 -362 
Q 3225 -600 2725 -675 
Q 2625 -350 2500 -100 
Q 2925 -100 3175 -25 
Q 3425 50 3462 350 
Q 3500 650 3425 1125 
z
M 3350 5275 
Q 3400 5025 3575 4525 
L 5875 4525 
Q 5850 4125 5850 3875 
Q 5850 3650 5875 3300 
L 5350 3300 
L 5350 4125 
L 1000 4125 
L 1000 3175 
L 475 3175 
Q 500 3575 500 3875 
Q 500 4200 475 4525 
L 2975 4525 
Q 2875 4850 2750 5100 
Q 3075 5175 3350 5275 
z
" transform="scale(0.015625)"/>
      <path id="SimHei-7edf" d="M 5150 4300 
Q 5525 4300 5950 4325 
L 5950 3875 
Q 5550 3900 5175 3900 
L 3775 3900 
Q 3975 3750 4250 3600 
Q 4050 3450 3837 3162 
Q 3625 2875 3225 2375 
Q 3800 2375 5025 2500 
Q 4925 2625 4625 2975 
Q 4850 3100 5025 3250 
Q 5450 2800 5950 2100 
Q 5700 1950 5525 1775 
Q 5375 1975 5275 2125 
Q 4925 2100 4825 2075 
L 4825 200 
Q 4825 -100 5075 -100 
L 5325 -100 
Q 5550 -100 5625 575 
Q 5850 400 6150 325 
Q 5925 -525 5525 -525 
L 4850 -525 
Q 4350 -525 4350 0 
L 4350 2025 
Q 4000 2000 3875 1975 
Q 3900 1050 3637 462 
Q 3375 -125 2625 -700 
Q 2500 -500 2175 -375 
Q 2575 -125 2850 175 
Q 3125 475 3275 850 
Q 3425 1225 3400 1925 
Q 3025 1900 2725 1825 
Q 2650 2200 2525 2475 
Q 2825 2500 3187 2975 
Q 3550 3450 3675 3900 
L 3275 3900 
Q 2950 3900 2475 3875 
L 2475 4325 
Q 2875 4300 3250 4300 
L 5150 4300 
z
M 1875 4825 
Q 1700 4600 1500 4250 
Q 1300 3900 900 3250 
Q 1375 3275 1650 3275 
Q 1850 3625 1975 3975 
Q 2250 3800 2550 3675 
Q 2375 3500 2075 3037 
Q 1775 2575 1225 1725 
Q 1950 1800 2500 1900 
Q 2375 1600 2375 1425 
Q 2150 1400 1587 1325 
Q 1025 1250 600 1125 
Q 525 1375 425 1625 
Q 700 1700 950 2075 
Q 1200 2450 1450 2900 
Q 1225 2875 925 2837 
Q 625 2800 425 2750 
Q 325 3000 200 3225 
Q 500 3300 862 4025 
Q 1225 4750 1275 5075 
Q 1575 4925 1875 4825 
z
M 2550 825 
Q 2525 575 2550 350 
Q 1975 200 1412 37 
Q 850 -125 550 -250 
Q 450 0 275 275 
Q 900 375 1450 500 
Q 2000 625 2550 825 
z
M 4100 5275 
Q 4375 4825 4500 4575 
Q 4325 4500 4025 4350 
Q 3825 4825 3650 5075 
Q 3950 5175 4100 5275 
z
" transform="scale(0.015625)"/>
      <path id="SimHei-8ba1" d="M 3925 3100 
L 3925 4350 
Q 3925 4850 3900 5125 
L 4425 5125 
Q 4400 4800 4400 4550 
L 4400 3100 
L 5425 3100 
Q 5725 3100 6075 3125 
L 6075 2650 
Q 5700 2675 5450 2675 
L 4400 2675 
L 4400 175 
Q 4400 -125 4425 -550 
L 3900 -550 
Q 3925 -125 3925 150 
L 3925 2675 
L 2950 2675 
Q 2575 2675 2200 2650 
L 2200 3125 
Q 2575 3100 2900 3100 
L 3925 3100 
z
M 1775 3150 
Q 1750 2675 1750 2150 
L 1750 625 
Q 2175 1050 2425 1400 
Q 2575 1200 2775 1000 
L 2075 300 
Q 1750 -25 1450 -350 
Q 1275 -125 1125 50 
Q 1300 250 1275 650 
L 1275 2725 
Q 600 2725 275 2700 
L 275 3175 
Q 675 3150 825 3150 
L 1775 3150 
z
M 1150 5050 
Q 1475 4725 2175 4000 
Q 1950 3800 1750 3625 
Q 1425 4100 775 4750 
Q 950 4875 1150 5050 
z
" transform="scale(0.015625)"/>
      <path id="SimHei-5c40" d="M 5900 225 
Q 5825 -325 5537 -437 
Q 5250 -550 4800 -575 
Q 4750 -225 4575 50 
Q 5175 0 5275 75 
Q 5375 150 5425 400 
L 5475 2350 
L 1650 2350 
Q 1550 1150 1312 525 
Q 1075 -100 775 -500 
Q 550 -275 250 -200 
Q 625 225 825 762 
Q 1025 1300 1100 1837 
Q 1175 2375 1175 2875 
L 1175 3650 
Q 1175 3900 1150 5050 
L 5550 5050 
Q 5525 4650 5525 4250 
Q 5525 3850 5550 3450 
L 1675 3450 
L 1675 2775 
L 6000 2775 
L 5900 225 
z
M 4500 1875 
Q 4475 1400 4487 1025 
Q 4500 650 4500 200 
L 2075 200 
Q 2125 525 2125 950 
Q 2125 1400 2100 1875 
L 4500 1875 
z
M 5075 3875 
L 5075 4625 
L 1675 4625 
L 1675 3875 
L 5075 3875 
z
M 4025 600 
L 4025 1450 
L 2600 1450 
L 2600 600 
L 4025 600 
z
" transform="scale(0.015625)"/>
     </defs>
     <use xlink:href="#SimHei-6570"/>
     <use xlink:href="#SimHei-636e" x="100"/>
     <use xlink:href="#SimHei-6765" x="200"/>
     <use xlink:href="#SimHei-6e90" x="300"/>
     <use xlink:href="#SimHei-ff1a" x="400"/>
     <use xlink:href="#SimHei-56fd" x="500"/>
     <use xlink:href="#SimHei-5bb6" x="600"/>
     <use xlink:href="#SimHei-7edf" x="700"/>
     <use xlink:href="#SimHei-8ba1" x="800"/>
     <use xlink:href="#SimHei-5c40" x="900"/>
    </g>
   </g>
   <g id="text_7">
    <!--   -->
    <g transform="translate(7.2 56.0574)scale(0.1 -0.1)">
     <use xlink:href="#DejaVuSans-20"/>
    </g>
   </g>
   <g id="text_8">
    <!--   -->
    <g transform="translate(932.456542 440.224524)scale(0.1 -0.1)">
     <use xlink:href="#DejaVuSans-20"/>
    </g>
   </g>
   <g id="text_9">
    <!--   -->
    <g transform="translate(471.578281 14.798437)scale(0.1 -0.1)">
     <use xlink:href="#DejaVuSans-20"/>
    </g>
   </g>
   <g id="text_10">
    <!--   -->
    <g transform="translate(471.578281 830.198437)scale(0.1 -0.1)">
     <use xlink:href="#DejaVuSans-20"/>
    </g>
   </g>
   <g id="text_11">
    <!-- 0 -->
    <g style="fill: #4c4c4c" transform="translate(451.151582 446.159029)scale(0.15 -0.15)">
     <defs>
      <path id="DejaVuSans-30" d="M 2034 4250 
Q 1547 4250 1301 3770 
Q 1056 3291 1056 2328 
Q 1056 1369 1301 889 
Q 1547 409 2034 409 
Q 2525 409 2770 889 
Q 3016 1369 3016 2328 
Q 3016 3291 2770 3770 
Q 2525 4250 2034 4250 
z
M 2034 4750 
Q 2819 4750 3233 4129 
Q 3647 3509 3647 2328 
Q 3647 1150 3233 529 
Q 2819 -91 2034 -91 
Q 1250 -91 836 529 
Q 422 1150 422 2328 
Q 422 3509 836 4129 
Q 1250 4750 2034 4750 
z
" transform="scale(0.015625)"/>
     </defs>
     <use xlink:href="#DejaVuSans-30"/>
    </g>
   </g>
   <g id="text_12">
    <!-- 230 -->
    <g style="fill: #4c4c4c" transform="translate(432.874364 364.850142)scale(0.15 -0.15)">
     <defs>
      <path id="DejaVuSans-32" d="M 1228 531 
L 3431 531 
L 3431 0 
L 469 0 
L 469 531 
Q 828 903 1448 1529 
Q 2069 2156 2228 2338 
Q 2531 2678 2651 2914 
Q 2772 3150 2772 3378 
Q 2772 3750 2511 3984 
Q 2250 4219 1831 4219 
Q 1534 4219 1204 4116 
Q 875 4013 500 3803 
L 500 4441 
Q 881 4594 1212 4672 
Q 1544 4750 1819 4750 
Q 2544 4750 2975 4387 
Q 3406 4025 3406 3419 
Q 3406 3131 3298 2873 
Q 3191 2616 2906 2266 
Q 2828 2175 2409 1742 
Q 1991 1309 1228 531 
z
" transform="scale(0.015625)"/>
      <path id="DejaVuSans-33" d="M 2597 2516 
Q 3050 2419 3304 2112 
Q 3559 1806 3559 1356 
Q 3559 666 3084 287 
Q 2609 -91 1734 -91 
Q 1441 -91 1130 -33 
Q 819 25 488 141 
L 488 750 
Q 750 597 1062 519 
Q 1375 441 1716 441 
Q 2309 441 2620 675 
Q 2931 909 2931 1356 
Q 2931 1769 2642 2001 
Q 2353 2234 1838 2234 
L 1294 2234 
L 1294 2753 
L 1863 2753 
Q 2328 2753 2575 2939 
Q 2822 3125 2822 3475 
Q 2822 3834 2567 4026 
Q 2313 4219 1838 4219 
Q 1578 4219 1281 4162 
Q 984 4106 628 3988 
L 628 4550 
Q 988 4650 1302 4700 
Q 1616 4750 1894 4750 
Q 2613 4750 3031 4423 
Q 3450 4097 3450 3541 
Q 3450 3153 3228 2886 
Q 3006 2619 2597 2516 
z
" transform="scale(0.015625)"/>
     </defs>
     <use xlink:href="#DejaVuSans-32"/>
     <use xlink:href="#DejaVuSans-33" x="63.623047"/>
     <use xlink:href="#DejaVuSans-30" x="127.246094"/>
    </g>
   </g>
   <g id="text_13">
    <!-- 460 -->
    <g style="fill: #4c4c4c" transform="translate(432.937048 283.613766)scale(0.15 -0.15)">
     <defs>
      <path id="DejaVuSans-34" d="M 2419 4116 
L 825 1625 
L 2419 1625 
L 2419 4116 
z
M 2253 4666 
L 3047 4666 
L 3047 1625 
L 3713 1625 
L 3713 1100 
L 3047 1100 
L 3047 0 
L 2419 0 
L 2419 1100 
L 313 1100 
L 313 1709 
L 2253 4666 
z
" transform="scale(0.015625)"/>
      <path id="DejaVuSans-36" d="M 2113 2584 
Q 1688 2584 1439 2293 
Q 1191 2003 1191 1497 
Q 1191 994 1439 701 
Q 1688 409 2113 409 
Q 2538 409 2786 701 
Q 3034 994 3034 1497 
Q 3034 2003 2786 2293 
Q 2538 2584 2113 2584 
z
M 3366 4563 
L 3366 3988 
Q 3128 4100 2886 4159 
Q 2644 4219 2406 4219 
Q 1781 4219 1451 3797 
Q 1122 3375 1075 2522 
Q 1259 2794 1537 2939 
Q 1816 3084 2150 3084 
Q 2853 3084 3261 2657 
Q 3669 2231 3669 1497 
Q 3669 778 3244 343 
Q 2819 -91 2113 -91 
Q 1303 -91 875 529 
Q 447 1150 447 2328 
Q 447 3434 972 4092 
Q 1497 4750 2381 4750 
Q 2619 4750 2861 4703 
Q 3103 4656 3366 4563 
z
" transform="scale(0.015625)"/>
     </defs>
     <use xlink:href="#DejaVuSans-34"/>
     <use xlink:href="#DejaVuSans-36" x="63.623047"/>
     <use xlink:href="#DejaVuSans-30" x="127.246094"/>
    </g>
   </g>
   <g id="text_14">
    <!-- 690 -->
    <g style="fill: #4c4c4c" transform="translate(432.835234 200.487519)scale(0.15 -0.15)">
     <defs>
      <path id="DejaVuSans-39" d="M 703 97 
L 703 672 
Q 941 559 1184 500 
Q 1428 441 1663 441 
Q 2288 441 2617 861 
Q 2947 1281 2994 2138 
Q 2813 1869 2534 1725 
Q 2256 1581 1919 1581 
Q 1219 1581 811 2004 
Q 403 2428 403 3163 
Q 403 3881 828 4315 
Q 1253 4750 1959 4750 
Q 2769 4750 3195 4129 
Q 3622 3509 3622 2328 
Q 3622 1225 3098 567 
Q 2575 -91 1691 -91 
Q 1453 -91 1209 -44 
Q 966 3 703 97 
z
M 1959 2075 
Q 2384 2075 2632 2365 
Q 2881 2656 2881 3163 
Q 2881 3666 2632 3958 
Q 2384 4250 1959 4250 
Q 1534 4250 1286 3958 
Q 1038 3666 1038 3163 
Q 1038 2656 1286 2365 
Q 1534 2075 1959 2075 
z
" transform="scale(0.015625)"/>
     </defs>
     <use xlink:href="#DejaVuSans-36"/>
     <use xlink:href="#DejaVuSans-39" x="63.623047"/>
     <use xlink:href="#DejaVuSans-30" x="127.246094"/>
    </g>
   </g>
   <g id="text_15">
    <!-- 1988 -->
    <g style="fill: #4c4c4c" transform="translate(723.592826 445.265488)scale(0.15 -0.15)">
     <defs>
      <path id="DejaVuSans-31" d="M 794 531 
L 1825 531 
L 1825 4091 
L 703 3866 
L 703 4441 
L 1819 4666 
L 2450 4666 
L 2450 531 
L 3481 531 
L 3481 0 
L 794 0 
L 794 531 
z
" transform="scale(0.015625)"/>
      <path id="DejaVuSans-38" d="M 2034 2216 
Q 1584 2216 1326 1975 
Q 1069 1734 1069 1313 
Q 1069 891 1326 650 
Q 1584 409 2034 409 
Q 2484 409 2743 651 
Q 3003 894 3003 1313 
Q 3003 1734 2745 1975 
Q 2488 2216 2034 2216 
z
M 1403 2484 
Q 997 2584 770 2862 
Q 544 3141 544 3541 
Q 544 4100 942 4425 
Q 1341 4750 2034 4750 
Q 2731 4750 3128 4425 
Q 3525 4100 3525 3541 
Q 3525 3141 3298 2862 
Q 3072 2584 2669 2484 
Q 3125 2378 3379 2068 
Q 3634 1759 3634 1313 
Q 3634 634 3220 271 
Q 2806 -91 2034 -91 
Q 1263 -91 848 271 
Q 434 634 434 1313 
Q 434 1759 690 2068 
Q 947 2378 1403 2484 
z
M 1172 3481 
Q 1172 3119 1398 2916 
Q 1625 2713 2034 2713 
Q 2441 2713 2670 2916 
Q 2900 3119 2900 3481 
Q 2900 3844 2670 4047 
Q 2441 4250 2034 4250 
Q 1625 4250 1398 4047 
Q 1172 3844 1172 3481 
z
" transform="scale(0.015625)"/>
     </defs>
     <use xlink:href="#DejaVuSans-31"/>
     <use xlink:href="#DejaVuSans-39" x="63.623047"/>
     <use xlink:href="#DejaVuSans-38" x="127.246094"/>
     <use xlink:href="#DejaVuSans-38" x="190.869141"/>
    </g>
   </g>
   <g id="text_16">
    <!-- 1987 -->
    <g style="fill: #4c4c4c" transform="translate(722.524984 407.774843)rotate(-8.571429)scale(0.15 -0.15)">
     <defs>
      <path id="DejaVuSans-37" d="M 525 4666 
L 3525 4666 
L 3525 4397 
L 1831 0 
L 1172 0 
L 2766 4134 
L 525 4134 
L 525 4666 
z
" transform="scale(0.015625)"/>
     </defs>
     <use xlink:href="#DejaVuSans-31"/>
     <use xlink:href="#DejaVuSans-39" x="63.623047"/>
     <use xlink:href="#DejaVuSans-38" x="127.246094"/>
     <use xlink:href="#DejaVuSans-37" x="190.869141"/>
    </g>
   </g>
   <g id="text_17">
    <!-- 1986 -->
    <g style="fill: #4c4c4c" transform="translate(713.148233 370.780329)rotate(-17.142857)scale(0.15 -0.15)">
     <use xlink:href="#DejaVuSans-31"/>
     <use xlink:href="#DejaVuSans-39" x="63.623047"/>
     <use xlink:href="#DejaVuSans-38" x="127.246094"/>
     <use xlink:href="#DejaVuSans-36" x="190.869141"/>
    </g>
   </g>
   <g id="text_18">
    <!-- 1985 -->
    <g style="fill: #4c4c4c" transform="translate(700.85729 335.25046)rotate(-25.714286)scale(0.15 -0.15)">
     <defs>
      <path id="DejaVuSans-35" d="M 691 4666 
L 3169 4666 
L 3169 4134 
L 1269 4134 
L 1269 2991 
Q 1406 3038 1543 3061 
Q 1681 3084 1819 3084 
Q 2600 3084 3056 2656 
Q 3513 2228 3513 1497 
Q 3513 744 3044 326 
Q 2575 -91 1722 -91 
Q 1428 -91 1123 -41 
Q 819 9 494 109 
L 494 744 
Q 775 591 1075 516 
Q 1375 441 1709 441 
Q 2250 441 2565 725 
Q 2881 1009 2881 1497 
Q 2881 1984 2565 2268 
Q 2250 2553 1709 2553 
Q 1456 2553 1204 2497 
Q 953 2441 691 2322 
L 691 4666 
z
" transform="scale(0.015625)"/>
     </defs>
     <use xlink:href="#DejaVuSans-31"/>
     <use xlink:href="#DejaVuSans-39" x="63.623047"/>
     <use xlink:href="#DejaVuSans-38" x="127.246094"/>
     <use xlink:href="#DejaVuSans-35" x="190.869141"/>
    </g>
   </g>
   <g id="text_19">
    <!-- 1984 -->
    <g style="fill: #4c4c4c" transform="translate(683.738951 301.997095)rotate(-34.285714)scale(0.15 -0.15)">
     <use xlink:href="#DejaVuSans-31"/>
     <use xlink:href="#DejaVuSans-39" x="63.623047"/>
     <use xlink:href="#DejaVuSans-38" x="127.246094"/>
     <use xlink:href="#DejaVuSans-34" x="190.869141"/>
    </g>
   </g>
   <g id="text_20">
    <!-- 1983 -->
    <g style="fill: #4c4c4c" transform="translate(660.402387 271.354586)rotate(-42.857143)scale(0.15 -0.15)">
     <use xlink:href="#DejaVuSans-31"/>
     <use xlink:href="#DejaVuSans-39" x="63.623047"/>
     <use xlink:href="#DejaVuSans-38" x="127.246094"/>
     <use xlink:href="#DejaVuSans-33" x="190.869141"/>
    </g>
   </g>
   <g id="text_21">
    <!-- 1982 -->
    <g style="fill: #4c4c4c" transform="translate(632.50702 244.796206)rotate(-51.428571)scale(0.15 -0.15)">
     <use xlink:href="#DejaVuSans-31"/>
     <use xlink:href="#DejaVuSans-39" x="63.623047"/>
     <use xlink:href="#DejaVuSans-38" x="127.246094"/>
     <use xlink:href="#DejaVuSans-32" x="190.869141"/>
    </g>
   </g>
   <g id="text_22">
    <!-- 1981 -->
    <g style="fill: #4c4c4c" transform="translate(602.0641 222.875861)rotate(-60)scale(0.15 -0.15)">
     <use xlink:href="#DejaVuSans-31"/>
     <use xlink:href="#DejaVuSans-39" x="63.623047"/>
     <use xlink:href="#DejaVuSans-38" x="127.246094"/>
     <use xlink:href="#DejaVuSans-31" x="190.869141"/>
    </g>
   </g>
   <g id="text_23">
    <!-- 1980 -->
    <g style="fill: #4c4c4c" transform="translate(568.262317 205.668181)rotate(-68.571429)scale(0.15 -0.15)">
     <use xlink:href="#DejaVuSans-31"/>
     <use xlink:href="#DejaVuSans-39" x="63.623047"/>
     <use xlink:href="#DejaVuSans-38" x="127.246094"/>
     <use xlink:href="#DejaVuSans-30" x="190.869141"/>
    </g>
   </g>
   <g id="text_24">
    <!-- 1979 -->
    <g style="fill: #4c4c4c" transform="translate(531.657359 193.941495)rotate(-77.142857)scale(0.15 -0.15)">
     <use xlink:href="#DejaVuSans-31"/>
     <use xlink:href="#DejaVuSans-39" x="63.623047"/>
     <use xlink:href="#DejaVuSans-37" x="127.246094"/>
     <use xlink:href="#DejaVuSans-39" x="190.869141"/>
    </g>
   </g>
   <g id="text_25">
    <!-- 1978 -->
    <g style="fill: #4c4c4c" transform="translate(494.359774 188.465556)rotate(-85.714286)scale(0.15 -0.15)">
     <use xlink:href="#DejaVuSans-31"/>
     <use xlink:href="#DejaVuSans-39" x="63.623047"/>
     <use xlink:href="#DejaVuSans-37" x="127.246094"/>
     <use xlink:href="#DejaVuSans-38" x="190.869141"/>
    </g>
   </g>
   <g id="text_26">
    <!-- 2019 -->
    <g style="fill: #4c4c4c" transform="translate(443.572889 153.710094)rotate(-274.285714)scale(0.15 -0.15)">
     <use xlink:href="#DejaVuSans-32"/>
     <use xlink:href="#DejaVuSans-30" x="63.623047"/>
     <use xlink:href="#DejaVuSans-31" x="127.246094"/>
     <use xlink:href="#DejaVuSans-39" x="190.869141"/>
    </g>
   </g>
   <g id="text_27">
    <!-- 2018 -->
    <g style="fill: #4c4c4c" transform="translate(400.879676 158.961429)rotate(-282.857143)scale(0.15 -0.15)">
     <use xlink:href="#DejaVuSans-32"/>
     <use xlink:href="#DejaVuSans-30" x="63.623047"/>
     <use xlink:href="#DejaVuSans-31" x="127.246094"/>
     <use xlink:href="#DejaVuSans-38" x="190.869141"/>
    </g>
   </g>
   <g id="text_28">
    <!-- 2017 -->
    <g style="fill: #4c4c4c" transform="translate(358.960004 172.000392)rotate(-291.428571)scale(0.15 -0.15)">
     <use xlink:href="#DejaVuSans-32"/>
     <use xlink:href="#DejaVuSans-30" x="63.623047"/>
     <use xlink:href="#DejaVuSans-31" x="127.246094"/>
     <use xlink:href="#DejaVuSans-37" x="190.869141"/>
    </g>
   </g>
   <g id="text_29">
    <!-- 2016 -->
    <g style="fill: #4c4c4c" transform="translate(320.911933 190.421151)rotate(-300)scale(0.15 -0.15)">
     <use xlink:href="#DejaVuSans-32"/>
     <use xlink:href="#DejaVuSans-30" x="63.623047"/>
     <use xlink:href="#DejaVuSans-31" x="127.246094"/>
     <use xlink:href="#DejaVuSans-36" x="190.869141"/>
    </g>
   </g>
   <g id="text_30">
    <!-- 2015 -->
    <g style="fill: #4c4c4c" transform="translate(284.993678 214.594841)rotate(-308.571429)scale(0.15 -0.15)">
     <use xlink:href="#DejaVuSans-32"/>
     <use xlink:href="#DejaVuSans-30" x="63.623047"/>
     <use xlink:href="#DejaVuSans-31" x="127.246094"/>
     <use xlink:href="#DejaVuSans-35" x="190.869141"/>
    </g>
   </g>
   <g id="text_31">
    <!-- 2014 -->
    <g style="fill: #4c4c4c" transform="translate(252.884143 245.331924)rotate(-317.142857)scale(0.15 -0.15)">
     <use xlink:href="#DejaVuSans-32"/>
     <use xlink:href="#DejaVuSans-30" x="63.623047"/>
     <use xlink:href="#DejaVuSans-31" x="127.246094"/>
     <use xlink:href="#DejaVuSans-34" x="190.869141"/>
    </g>
   </g>
   <g id="text_32">
    <!-- 2013 -->
    <g style="fill: #4c4c4c" transform="translate(226.299968 280.932473)rotate(-325.714286)scale(0.15 -0.15)">
     <use xlink:href="#DejaVuSans-32"/>
     <use xlink:href="#DejaVuSans-30" x="63.623047"/>
     <use xlink:href="#DejaVuSans-31" x="127.246094"/>
     <use xlink:href="#DejaVuSans-33" x="190.869141"/>
    </g>
   </g>
   <g id="text_33">
    <!-- 2012 -->
    <g style="fill: #4c4c4c" transform="translate(206.621045 318.08447)rotate(-334.285714)scale(0.15 -0.15)">
     <use xlink:href="#DejaVuSans-32"/>
     <use xlink:href="#DejaVuSans-30" x="63.623047"/>
     <use xlink:href="#DejaVuSans-31" x="127.246094"/>
     <use xlink:href="#DejaVuSans-32" x="190.869141"/>
    </g>
   </g>
   <g id="text_34">
    <!-- 2011 -->
    <g style="fill: #4c4c4c" transform="translate(192.678586 359.27954)rotate(-342.857143)scale(0.15 -0.15)">
     <use xlink:href="#DejaVuSans-32"/>
     <use xlink:href="#DejaVuSans-30" x="63.623047"/>
     <use xlink:href="#DejaVuSans-31" x="127.246094"/>
     <use xlink:href="#DejaVuSans-31" x="190.869141"/>
    </g>
   </g>
   <g id="text_35">
    <!-- 2010 -->
    <g style="fill: #4c4c4c" transform="translate(185.15639 401.124773)rotate(-351.428571)scale(0.15 -0.15)">
     <use xlink:href="#DejaVuSans-32"/>
     <use xlink:href="#DejaVuSans-30" x="63.623047"/>
     <use xlink:href="#DejaVuSans-31" x="127.246094"/>
     <use xlink:href="#DejaVuSans-30" x="190.869141"/>
    </g>
   </g>
   <g id="text_36">
    <!-- 2009 -->
    <g style="fill: #4c4c4c" transform="translate(183.16099 445.230038)scale(0.15 -0.15)">
     <use xlink:href="#DejaVuSans-32"/>
     <use xlink:href="#DejaVuSans-30" x="63.623047"/>
     <use xlink:href="#DejaVuSans-30" x="127.246094"/>
     <use xlink:href="#DejaVuSans-39" x="190.869141"/>
    </g>
   </g>
   <g id="text_37">
    <!-- 2008 -->
    <g style="fill: #4c4c4c" transform="translate(186.371133 490.10569)rotate(-8.571429)scale(0.15 -0.15)">
     <use xlink:href="#DejaVuSans-32"/>
     <use xlink:href="#DejaVuSans-30" x="63.623047"/>
     <use xlink:href="#DejaVuSans-30" x="127.246094"/>
     <use xlink:href="#DejaVuSans-38" x="190.869141"/>
    </g>
   </g>
   <g id="text_38">
    <!-- 2007 -->
    <g style="fill: #4c4c4c" transform="translate(198.134142 530.839027)rotate(-17.142857)scale(0.15 -0.15)">
     <use xlink:href="#DejaVuSans-32"/>
     <use xlink:href="#DejaVuSans-30" x="63.623047"/>
     <use xlink:href="#DejaVuSans-30" x="127.246094"/>
     <use xlink:href="#DejaVuSans-37" x="190.869141"/>
    </g>
   </g>
   <g id="text_39">
    <!-- 2006 -->
    <g style="fill: #4c4c4c" transform="translate(215.181608 570.255886)rotate(-25.714286)scale(0.15 -0.15)">
     <use xlink:href="#DejaVuSans-32"/>
     <use xlink:href="#DejaVuSans-30" x="63.623047"/>
     <use xlink:href="#DejaVuSans-30" x="127.246094"/>
     <use xlink:href="#DejaVuSans-36" x="190.869141"/>
    </g>
   </g>
   <g id="text_40">
    <!-- 2005 -->
    <g style="fill: #4c4c4c" transform="translate(236.643193 605.129286)rotate(-34.285714)scale(0.15 -0.15)">
     <use xlink:href="#DejaVuSans-32"/>
     <use xlink:href="#DejaVuSans-30" x="63.623047"/>
     <use xlink:href="#DejaVuSans-30" x="127.246094"/>
     <use xlink:href="#DejaVuSans-35" x="190.869141"/>
    </g>
   </g>
   <g id="text_41">
    <!-- 2004 -->
    <g style="fill: #4c4c4c" transform="translate(263.876219 638.607122)rotate(-42.857143)scale(0.15 -0.15)">
     <use xlink:href="#DejaVuSans-32"/>
     <use xlink:href="#DejaVuSans-30" x="63.623047"/>
     <use xlink:href="#DejaVuSans-30" x="127.246094"/>
     <use xlink:href="#DejaVuSans-34" x="190.869141"/>
    </g>
   </g>
   <g id="text_42">
    <!-- 2003 -->
    <g style="fill: #4c4c4c" transform="translate(298.526739 667.715139)rotate(-51.428571)scale(0.15 -0.15)">
     <use xlink:href="#DejaVuSans-32"/>
     <use xlink:href="#DejaVuSans-30" x="63.623047"/>
     <use xlink:href="#DejaVuSans-30" x="127.246094"/>
     <use xlink:href="#DejaVuSans-33" x="190.869141"/>
    </g>
   </g>
   <g id="text_43">
    <!-- 2002 -->
    <g style="fill: #4c4c4c" transform="translate(334.570182 691.309183)rotate(-60)scale(0.15 -0.15)">
     <use xlink:href="#DejaVuSans-32"/>
     <use xlink:href="#DejaVuSans-30" x="63.623047"/>
     <use xlink:href="#DejaVuSans-30" x="127.246094"/>
     <use xlink:href="#DejaVuSans-32" x="190.869141"/>
    </g>
   </g>
   <g id="text_44">
    <!-- 2001 -->
    <g style="fill: #4c4c4c" transform="translate(372.806507 709.205596)rotate(-68.571429)scale(0.15 -0.15)">
     <use xlink:href="#DejaVuSans-32"/>
     <use xlink:href="#DejaVuSans-30" x="63.623047"/>
     <use xlink:href="#DejaVuSans-30" x="127.246094"/>
     <use xlink:href="#DejaVuSans-31" x="190.869141"/>
    </g>
   </g>
   <g id="text_45">
    <!-- 2000 -->
    <g style="fill: #4c4c4c" transform="translate(413.437974 722.098947)rotate(-77.142857)scale(0.15 -0.15)">
     <use xlink:href="#DejaVuSans-32"/>
     <use xlink:href="#DejaVuSans-30" x="63.623047"/>
     <use xlink:href="#DejaVuSans-30" x="127.246094"/>
     <use xlink:href="#DejaVuSans-30" x="190.869141"/>
    </g>
   </g>
   <g id="text_46">
    <!-- 1999 -->
    <g style="fill: #4c4c4c" transform="translate(455.799077 727.901964)rotate(-85.714286)scale(0.15 -0.15)">
     <use xlink:href="#DejaVuSans-31"/>
     <use xlink:href="#DejaVuSans-39" x="63.623047"/>
     <use xlink:href="#DejaVuSans-39" x="127.246094"/>
     <use xlink:href="#DejaVuSans-39" x="190.869141"/>
    </g>
   </g>
   <g id="text_47">
    <!-- 1998 -->
    <g style="fill: #4c4c4c" transform="translate(483.366528 693.87297)rotate(-274.285714)scale(0.15 -0.15)">
     <use xlink:href="#DejaVuSans-31"/>
     <use xlink:href="#DejaVuSans-39" x="63.623047"/>
     <use xlink:href="#DejaVuSans-39" x="127.246094"/>
     <use xlink:href="#DejaVuSans-38" x="190.869141"/>
    </g>
   </g>
   <g id="text_48">
    <!-- 1997 -->
    <g style="fill: #4c4c4c" transform="translate(521.072207 688.537841)rotate(-282.857143)scale(0.15 -0.15)">
     <use xlink:href="#DejaVuSans-31"/>
     <use xlink:href="#DejaVuSans-39" x="63.623047"/>
     <use xlink:href="#DejaVuSans-39" x="127.246094"/>
     <use xlink:href="#DejaVuSans-37" x="190.869141"/>
    </g>
   </g>
   <g id="text_49">
    <!-- 1996 -->
    <g style="fill: #4c4c4c" transform="translate(558.082928 677.625256)rotate(-291.428571)scale(0.15 -0.15)">
     <use xlink:href="#DejaVuSans-31"/>
     <use xlink:href="#DejaVuSans-39" x="63.623047"/>
     <use xlink:href="#DejaVuSans-39" x="127.246094"/>
     <use xlink:href="#DejaVuSans-36" x="190.869141"/>
    </g>
   </g>
   <g id="text_50">
    <!-- 1995 -->
    <g style="fill: #4c4c4c" transform="translate(591.926906 661.459925)rotate(-300)scale(0.15 -0.15)">
     <use xlink:href="#DejaVuSans-31"/>
     <use xlink:href="#DejaVuSans-39" x="63.623047"/>
     <use xlink:href="#DejaVuSans-39" x="127.246094"/>
     <use xlink:href="#DejaVuSans-35" x="190.869141"/>
    </g>
   </g>
   <g id="text_51">
    <!-- 1994 -->
    <g style="fill: #4c4c4c" transform="translate(622.329283 641.608936)rotate(-308.571429)scale(0.15 -0.15)">
     <use xlink:href="#DejaVuSans-31"/>
     <use xlink:href="#DejaVuSans-39" x="63.623047"/>
     <use xlink:href="#DejaVuSans-39" x="127.246094"/>
     <use xlink:href="#DejaVuSans-34" x="190.869141"/>
    </g>
   </g>
   <g id="text_52">
    <!-- 1993 -->
    <g style="fill: #4c4c4c" transform="translate(651.575684 617.280319)rotate(-317.142857)scale(0.15 -0.15)">
     <use xlink:href="#DejaVuSans-31"/>
     <use xlink:href="#DejaVuSans-39" x="63.623047"/>
     <use xlink:href="#DejaVuSans-39" x="127.246094"/>
     <use xlink:href="#DejaVuSans-33" x="190.869141"/>
    </g>
   </g>
   <g id="text_53">
    <!-- 1992 -->
    <g style="fill: #4c4c4c" transform="translate(676.570777 587.768322)rotate(-325.714286)scale(0.15 -0.15)">
     <use xlink:href="#DejaVuSans-31"/>
     <use xlink:href="#DejaVuSans-39" x="63.623047"/>
     <use xlink:href="#DejaVuSans-39" x="127.246094"/>
     <use xlink:href="#DejaVuSans-32" x="190.869141"/>
    </g>
   </g>
   <g id="text_54">
    <!-- 1991 -->
    <g style="fill: #4c4c4c" transform="translate(697.650713 555.071293)rotate(-334.285714)scale(0.15 -0.15)">
     <use xlink:href="#DejaVuSans-31"/>
     <use xlink:href="#DejaVuSans-39" x="63.623047"/>
     <use xlink:href="#DejaVuSans-39" x="127.246094"/>
     <use xlink:href="#DejaVuSans-31" x="190.869141"/>
    </g>
   </g>
   <g id="text_55">
    <!-- 1990 -->
    <g style="fill: #4c4c4c" transform="translate(713.273234 520.599066)rotate(-342.857143)scale(0.15 -0.15)">
     <use xlink:href="#DejaVuSans-31"/>
     <use xlink:href="#DejaVuSans-39" x="63.623047"/>
     <use xlink:href="#DejaVuSans-39" x="127.246094"/>
     <use xlink:href="#DejaVuSans-30" x="190.869141"/>
    </g>
   </g>
   <g id="text_56">
    <!-- 1989 -->
    <g style="fill: #4c4c4c" transform="translate(722.162156 484.23599)rotate(-351.428571)scale(0.15 -0.15)">
     <use xlink:href="#DejaVuSans-31"/>
     <use xlink:href="#DejaVuSans-39" x="63.623047"/>
     <use xlink:href="#DejaVuSans-38" x="127.246094"/>
     <use xlink:href="#DejaVuSans-39" x="190.869141"/>
    </g>
   </g>
   <g id="text_57">
    <!-- 1978-2019年中国城市数量 -->
    <g style="fill: #4c4c4c" transform="translate(174.690781 67.294524)scale(0.48 -0.48)">
     <defs>
      <path id="MicrosoftYaHei-Bold-31" d="M 2716 4947 
L 2716 0 
L 1700 0 
L 1700 3809 
Q 1513 3647 1188 3517 
Q 863 3388 591 3356 
L 591 4222 
Q 1447 4472 2072 4947 
L 2716 4947 
z
" transform="scale(0.015625)"/>
      <path id="MicrosoftYaHei-Bold-39" d="M 544 941 
Q 931 691 1456 691 
Q 2628 691 2653 2216 
L 2634 2222 
Q 2316 1731 1650 1731 
Q 1047 1731 658 2154 
Q 269 2578 269 3222 
Q 269 3978 737 4450 
Q 1206 4922 1959 4922 
Q 2744 4922 3191 4325 
Q 3638 3728 3638 2659 
Q 3638 1391 3098 653 
Q 2559 -84 1547 -84 
Q 975 -84 544 100 
L 544 941 
z
M 1259 3313 
Q 1259 2928 1445 2709 
Q 1631 2491 1953 2491 
Q 2241 2491 2427 2700 
Q 2613 2909 2613 3219 
Q 2613 3591 2427 3869 
Q 2241 4147 1928 4147 
Q 1625 4147 1442 3906 
Q 1259 3666 1259 3313 
z
" transform="scale(0.015625)"/>
      <path id="MicrosoftYaHei-Bold-37" d="M 3675 4225 
Q 3088 3172 2798 2528 
Q 2509 1884 2328 1275 
Q 2147 666 2050 0 
L 966 0 
Q 1122 947 1517 1917 
Q 1913 2888 2609 4009 
L 300 4009 
L 300 4841 
L 3675 4841 
L 3675 4225 
z
" transform="scale(0.015625)"/>
      <path id="MicrosoftYaHei-Bold-38" d="M 269 1303 
Q 269 1725 512 2053 
Q 756 2381 1219 2534 
Q 850 2719 648 3003 
Q 447 3288 447 3634 
Q 447 3997 645 4292 
Q 844 4588 1200 4755 
Q 1556 4922 1997 4922 
Q 2441 4922 2800 4758 
Q 3159 4594 3359 4298 
Q 3559 4003 3559 3647 
Q 3559 3309 3339 3018 
Q 3119 2728 2747 2559 
Q 3200 2403 3453 2076 
Q 3706 1750 3706 1313 
Q 3706 697 3228 309 
Q 2750 -78 1988 -78 
Q 1225 -78 747 309 
Q 269 697 269 1303 
z
M 1278 1394 
Q 1278 1056 1472 853 
Q 1666 650 1991 650 
Q 2303 650 2503 853 
Q 2703 1056 2703 1394 
Q 2703 1709 2500 1920 
Q 2297 2131 1991 2131 
Q 1675 2131 1476 1920 
Q 1278 1709 1278 1394 
z
M 1428 3531 
Q 1428 3266 1592 3077 
Q 1756 2888 2006 2888 
Q 2247 2888 2415 3072 
Q 2584 3256 2584 3531 
Q 2584 3806 2420 3997 
Q 2256 4188 2006 4188 
Q 1750 4188 1589 3997 
Q 1428 3806 1428 3531 
z
" transform="scale(0.015625)"/>
      <path id="MicrosoftYaHei-Bold-2d" d="M 2328 1497 
L 481 1497 
L 481 2209 
L 2328 2209 
L 2328 1497 
z
" transform="scale(0.015625)"/>
      <path id="MicrosoftYaHei-Bold-32" d="M 1500 841 
L 3553 841 
L 3553 0 
L 334 0 
L 334 359 
Q 334 738 473 1050 
Q 613 1363 856 1633 
Q 1100 1903 1613 2266 
Q 2081 2616 2268 2886 
Q 2456 3156 2456 3459 
Q 2456 4113 1744 4113 
Q 1119 4113 550 3613 
L 550 4513 
Q 1184 4922 1975 4922 
Q 2700 4922 3122 4551 
Q 3544 4181 3544 3531 
Q 3544 3169 3422 2876 
Q 3300 2584 3069 2328 
Q 2838 2072 2328 1713 
Q 1838 1363 1669 1172 
Q 1500 981 1500 841 
z
" transform="scale(0.015625)"/>
      <path id="MicrosoftYaHei-Bold-30" d="M 244 2341 
Q 244 3597 706 4259 
Q 1169 4922 2044 4922 
Q 3713 4922 3713 2453 
Q 3713 1238 3259 577 
Q 2806 -84 1950 -84 
Q 244 -84 244 2341 
z
M 1266 2366 
Q 1266 691 1981 691 
Q 2684 691 2684 2416 
Q 2684 4147 2000 4147 
Q 1266 4147 1266 2366 
z
" transform="scale(0.015625)"/>
      <path id="MicrosoftYaHei-Bold-5e74" d="M 5819 3059 
L 5819 2266 
L 4050 2266 
L 4050 1284 
L 6244 1284 
L 6244 491 
L 4050 491 
L 4050 -828 
L 3138 -828 
L 3138 491 
L 175 491 
L 175 1284 
L 1050 1284 
L 1050 2813 
Q 881 2634 700 2466 
Q 463 2822 138 3266 
Q 1088 4047 1600 5353 
L 2569 5209 
Q 2459 4938 2334 4678 
L 6056 4678 
L 6056 3884 
L 4050 3884 
L 4050 3059 
L 5819 3059 
z
M 1272 3059 
L 3138 3059 
L 3138 3884 
L 1888 3884 
Q 1606 3450 1272 3059 
z
M 1925 1284 
L 3138 1284 
L 3138 2266 
L 1925 2266 
L 1925 1284 
z
" transform="scale(0.015625)"/>
      <path id="MicrosoftYaHei-Bold-4e2d" d="M 2719 5341 
L 3669 5341 
L 3669 4234 
L 6000 4234 
L 6000 728 
L 5075 728 
L 5075 1159 
L 3669 1159 
L 3669 -853 
L 2719 -853 
L 2719 1159 
L 1313 1159 
L 1313 709 
L 388 709 
L 388 4234 
L 2719 4234 
L 2719 5341 
z
M 5075 3372 
L 3669 3372 
L 3669 2022 
L 5075 2022 
L 5075 3372 
z
M 1313 2022 
L 2719 2022 
L 2719 3372 
L 1313 3372 
L 1313 2022 
z
" transform="scale(0.015625)"/>
      <path id="MicrosoftYaHei-Bold-56fd" d="M 356 -797 
L 356 5078 
L 6044 5078 
L 6044 -791 
L 5150 -791 
L 5150 -572 
L 1250 -572 
L 1250 -797 
L 356 -797 
z
M 5150 4309 
L 1250 4309 
L 1250 197 
L 5150 197 
L 5150 4309 
z
M 4800 2047 
L 4334 2047 
Q 4594 1822 4856 1566 
L 4525 1266 
L 4950 1266 
L 4950 534 
L 1419 534 
L 1419 1266 
L 2694 1266 
L 2694 2047 
L 1581 2047 
L 1581 2778 
L 2694 2778 
L 2694 3222 
L 1481 3222 
L 1481 3953 
L 4888 3953 
L 4888 3222 
L 3531 3222 
L 3531 2778 
L 4800 2778 
L 4800 2047 
z
M 3706 1734 
L 4069 2047 
L 3531 2047 
L 3531 1266 
L 4144 1266 
Q 3897 1547 3706 1734 
z
" transform="scale(0.015625)"/>
      <path id="MicrosoftYaHei-Bold-57ce" d="M 3956 1216 
Q 3931 409 3356 347 
Q 3131 316 2738 316 
Q 2713 484 2663 703 
Q 2519 -284 2150 -872 
Q 1813 -509 1525 -259 
Q 1719 66 1838 491 
Q 1063 241 238 -41 
L 75 872 
Q 381 947 663 1016 
L 663 2978 
L 200 2978 
L 200 3791 
L 663 3791 
L 663 5278 
L 1450 5278 
L 1450 3791 
L 1888 3791 
L 1888 2978 
L 1450 2978 
L 1450 1234 
Q 1663 1297 1850 1359 
Q 1831 1016 1844 522 
Q 2044 1216 2044 2159 
L 2044 4278 
L 4119 4278 
Q 4106 4759 4100 5303 
L 4863 5303 
Q 4869 4759 4881 4278 
L 5506 4278 
Q 5250 4622 4950 4972 
L 5500 5316 
Q 5844 4928 6125 4572 
L 5656 4278 
L 6300 4278 
L 6300 3528 
L 4900 3528 
Q 4938 2584 4988 1909 
Q 5263 2447 5494 3084 
L 6244 2728 
Q 5731 1578 5156 703 
Q 5294 78 5475 78 
Q 5625 78 5694 1166 
Q 6069 978 6369 853 
Q 6275 66 6131 -397 
Q 5969 -859 5475 -859 
Q 4881 -859 4581 -72 
Q 4169 -578 3725 -928 
Q 3444 -559 3194 -309 
Q 3825 116 4356 853 
Q 4206 1784 4144 3528 
L 2763 3528 
L 2763 2816 
L 4006 2816 
Q 3981 2116 3956 1216 
z
M 2706 1022 
Q 2869 1009 2931 1009 
Q 3213 1003 3213 1309 
Q 3225 1666 3231 2103 
L 2763 2103 
Q 2756 1516 2706 1022 
z
" transform="scale(0.015625)"/>
      <path id="MicrosoftYaHei-Bold-5e02" d="M 1513 -191 
L 663 -191 
L 663 3003 
L 2750 3003 
L 2750 3728 
L 231 3728 
L 231 4541 
L 2678 4541 
Q 2556 4856 2444 5128 
L 3438 5359 
Q 3588 4969 3728 4541 
L 6200 4541 
L 6200 3728 
L 3650 3728 
L 3650 3003 
L 5888 3003 
L 5888 784 
Q 5888 509 5802 309 
Q 5716 109 5547 -9 
Q 5378 -128 5156 -161 
Q 4934 -194 4125 -203 
Q 4025 209 3894 609 
Q 4238 584 4600 584 
Q 5038 584 5038 1003 
L 5038 2216 
L 3650 2216 
L 3650 -853 
L 2750 -853 
L 2750 2216 
L 1513 2216 
L 1513 -191 
z
" transform="scale(0.015625)"/>
      <path id="MicrosoftYaHei-Bold-6570" d="M 238 4091 
L 725 4091 
Q 559 4425 281 4803 
L 844 5153 
Q 1038 4922 1369 4428 
L 806 4091 
L 1506 4091 
L 1506 5316 
L 2300 5316 
L 2300 4091 
L 2956 4091 
L 2438 4428 
Q 2750 4809 2963 5172 
L 3550 4822 
Q 3341 4466 3031 4091 
L 3394 4091 
L 3394 3453 
L 2300 3453 
L 2300 3016 
L 2513 3303 
Q 2903 3094 3253 2891 
Q 3766 3841 4138 5347 
L 4994 5266 
Q 4869 4781 4728 4341 
L 6294 4341 
L 6294 3578 
L 6041 3578 
Q 5906 1922 5338 856 
Q 5738 391 6319 53 
Q 6094 -203 5775 -778 
Q 5228 -413 4828 109 
Q 4313 -497 3631 -872 
Q 3378 -513 3072 -197 
L 2850 -566 
Q 2475 -350 2031 -128 
Q 1347 -584 394 -778 
Q 281 -434 63 -9 
Q 716 59 1213 253 
Q 781 444 300 641 
Q 513 950 681 1259 
L 169 1259 
L 169 1897 
L 991 1897 
Q 1094 2144 1169 2391 
L 1506 2359 
L 1506 2959 
Q 1044 2472 344 2053 
Q 213 2472 50 2803 
Q 672 3044 1172 3453 
L 238 3453 
L 238 4091 
z
M 4394 3400 
Q 4519 2359 4831 1659 
Q 5203 2478 5275 3578 
L 4463 3578 
Q 4431 3488 4394 3400 
z
M 2300 2216 
L 1984 2216 
Q 1913 2063 1825 1897 
L 3281 1897 
L 3281 1316 
Q 3038 806 2672 413 
L 3294 166 
L 3169 -38 
Q 3859 322 4347 894 
Q 4041 1522 3878 2300 
Q 3769 2103 3656 1922 
Q 3513 2172 3322 2438 
L 3138 2159 
Q 2750 2422 2300 2691 
L 2300 2216 
z
M 1300 934 
L 1950 691 
Q 2231 934 2413 1259 
L 1484 1259 
L 1300 934 
z
" transform="scale(0.015625)"/>
      <path id="MicrosoftYaHei-Bold-91cf" d="M 725 5103 
L 5675 5103 
L 5675 3416 
L 725 3416 
L 725 5103 
z
M 4825 4666 
L 1575 4666 
L 1575 4447 
L 4825 4447 
L 4825 4666 
z
M 4825 3853 
L 4825 4072 
L 1575 4072 
L 1575 3853 
L 4825 3853 
z
M 138 3209 
L 6288 3209 
L 6288 2747 
L 138 2747 
L 138 3209 
z
M 113 -184 
L 2781 -184 
L 2781 53 
L 506 53 
L 506 491 
L 2781 491 
L 2781 716 
L 713 716 
L 713 2534 
L 5681 2534 
L 5681 716 
L 3606 716 
L 3606 491 
L 5925 491 
L 5925 53 
L 3606 53 
L 3606 -184 
L 6300 -184 
L 6300 -647 
L 113 -647 
L 113 -184 
z
M 4881 2097 
L 3606 2097 
L 3606 1816 
L 4881 1816 
L 4881 2097 
z
M 1513 1816 
L 2781 1816 
L 2781 2097 
L 1513 2097 
L 1513 1816 
z
M 4881 1153 
L 4881 1434 
L 3606 1434 
L 3606 1153 
L 4881 1153 
z
M 1513 1153 
L 2781 1153 
L 2781 1434 
L 1513 1434 
L 1513 1153 
z
" transform="scale(0.015625)"/>
     </defs>
     <use xlink:href="#MicrosoftYaHei-Bold-31"/>
     <use xlink:href="#MicrosoftYaHei-Bold-39" x="61.669922"/>
     <use xlink:href="#MicrosoftYaHei-Bold-37" x="123.339844"/>
     <use xlink:href="#MicrosoftYaHei-Bold-38" x="185.009766"/>
     <use xlink:href="#MicrosoftYaHei-Bold-2d" x="246.679688"/>
     <use xlink:href="#MicrosoftYaHei-Bold-32" x="290.332031"/>
     <use xlink:href="#MicrosoftYaHei-Bold-30" x="352.001953"/>
     <use xlink:href="#MicrosoftYaHei-Bold-31" x="413.671875"/>
     <use xlink:href="#MicrosoftYaHei-Bold-39" x="475.341797"/>
     <use xlink:href="#MicrosoftYaHei-Bold-5e74" x="537.011719"/>
     <use xlink:href="#MicrosoftYaHei-Bold-4e2d" x="637.011719"/>
     <use xlink:href="#MicrosoftYaHei-Bold-56fd" x="737.011719"/>
     <use xlink:href="#MicrosoftYaHei-Bold-57ce" x="837.011719"/>
     <use xlink:href="#MicrosoftYaHei-Bold-5e02" x="937.011719"/>
     <use xlink:href="#MicrosoftYaHei-Bold-6570" x="1037.011719"/>
     <use xlink:href="#MicrosoftYaHei-Bold-91cf" x="1137.011719"/>
    </g>
   </g>
  </g>
 </g>
 <defs>
  <clipPath id="p9bda94ee5e">
   <path d="M 716.198281 440.224524 
C 716.198281 408.10132 709.87071 376.290474 697.577692 346.612503 
C 685.284674 316.934532 667.265277 289.966599 644.550742 267.252064 
C 621.836207 244.537528 594.868273 226.518131 565.190302 214.225113 
C 535.512332 201.932095 503.701485 195.604524 471.578281 195.604524 
C 439.455077 195.604524 407.644231 201.932095 377.96626 214.225113 
C 348.288289 226.518131 321.320356 244.537528 298.60582 267.252064 
C 275.891285 289.966599 257.871888 316.934532 245.57887 346.612503 
C 233.285852 376.290474 226.958281 408.10132 226.958281 440.224524 
C 226.958281 472.347729 233.285852 504.158575 245.57887 533.836546 
C 257.871888 563.514516 275.891285 590.48245 298.60582 613.196985 
C 321.320356 635.911521 348.288289 653.930918 377.96626 666.223936 
C 407.644231 678.516954 439.455077 684.844524 471.578281 684.844524 
C 503.701485 684.844524 535.512332 678.516954 565.190302 666.223936 
C 594.868273 653.930918 621.836207 635.911521 644.550742 613.196985 
C 667.265277 590.48245 685.284674 563.514516 697.577692 533.836546 
C 709.87071 504.158575 716.198281 472.347729 716.198281 440.224524 
M 471.578281 440.224524 
C 471.578281 440.224524 471.578281 440.224524 471.578281 440.224524 
C 471.578281 440.224524 471.578281 440.224524 471.578281 440.224524 
C 471.578281 440.224524 471.578281 440.224524 471.578281 440.224524 
C 471.578281 440.224524 471.578281 440.224524 471.578281 440.224524 
C 471.578281 440.224524 471.578281 440.224524 471.578281 440.224524 
C 471.578281 440.224524 471.578281 440.224524 471.578281 440.224524 
C 471.578281 440.224524 471.578281 440.224524 471.578281 440.224524 
C 471.578281 440.224524 471.578281 440.224524 471.578281 440.224524 
C 471.578281 440.224524 471.578281 440.224524 471.578281 440.224524 
C 471.578281 440.224524 471.578281 440.224524 471.578281 440.224524 
C 471.578281 440.224524 471.578281 440.224524 471.578281 440.224524 
C 471.578281 440.224524 471.578281 440.224524 471.578281 440.224524 
C 471.578281 440.224524 471.578281 440.224524 471.578281 440.224524 
C 471.578281 440.224524 471.578281 440.224524 471.578281 440.224524 
C 471.578281 440.224524 471.578281 440.224524 471.578281 440.224524 
C 471.578281 440.224524 471.578281 440.224524 471.578281 440.224524 
M 716.198281 440.224524 
z
"/>
  </clipPath>
 </defs>
</svg>
