<?xml version="1.0" encoding="utf-8" standalone="no"?>
<!DOCTYPE svg PUBLIC "-//W3C//DTD SVG 1.1//EN"
  "http://www.w3.org/Graphics/SVG/1.1/DTD/svg11.dtd">
<svg xmlns:xlink="http://www.w3.org/1999/xlink" width="933.2875pt" height="565.330015pt" viewBox="0 0 933.2875 565.330015" xmlns="http://www.w3.org/2000/svg" version="1.1">
 <metadata>
  <rdf:RDF xmlns:dc="http://purl.org/dc/elements/1.1/" xmlns:cc="http://creativecommons.org/ns#" xmlns:rdf="http://www.w3.org/1999/02/22-rdf-syntax-ns#">
   <cc:Work>
    <dc:type rdf:resource="http://purl.org/dc/dcmitype/StillImage"/>
    <dc:date>2022-10-26T16:50:18.239532</dc:date>
    <dc:format>image/svg+xml</dc:format>
    <dc:creator>
     <cc:Agent>
      <dc:title>Matplotlib v3.5.2, https://matplotlib.org/</dc:title>
     </cc:Agent>
    </dc:creator>
   </cc:Work>
  </rdf:RDF>
 </metadata>
 <defs>
  <style type="text/css">*{stroke-linejoin: round; stroke-linecap: butt}</style>
 </defs>
 <g id="figure_1">
  <g id="patch_1">
   <path d="M 0 565.330015 
L 933.2875 565.330015 
L 933.2875 0 
L 0 0 
L 0 565.330015 
z
" style="fill: none"/>
  </g>
  <g id="axes_1">
   <g id="patch_2">
    <path d="M 33.2875 493.80525 
L 926.0875 493.80525 
L 926.0875 58.92525 
L 33.2875 58.92525 
z
" style="fill: #ffffff"/>
   </g>
   <g id="patch_3">
    <path d="M 73.869318 493.80525 
L 89.403028 493.80525 
L 89.403028 376.080529 
L 73.869318 376.080529 
z
" clip-path="url(#p677a769d91)" style="fill: #e7b488; opacity: 0.8"/>
   </g>
   <g id="patch_4">
    <path d="M 93.286456 493.80525 
L 108.820166 493.80525 
L 108.820166 362.051158 
L 93.286456 362.051158 
z
" clip-path="url(#p677a769d91)" style="fill: #e7b488; opacity: 0.8"/>
   </g>
   <g id="patch_5">
    <path d="M 112.703594 493.80525 
L 128.237304 493.80525 
L 128.237304 357.781349 
L 112.703594 357.781349 
z
" clip-path="url(#p677a769d91)" style="fill: #e7b488; opacity: 0.8"/>
   </g>
   <g id="patch_6">
    <path d="M 132.120732 493.80525 
L 147.654442 493.80525 
L 147.654442 355.951431 
L 132.120732 355.951431 
z
" clip-path="url(#p677a769d91)" style="fill: #e7b488; opacity: 0.8"/>
   </g>
   <g id="patch_7">
    <path d="M 151.53787 493.80525 
L 167.07158 493.80525 
L 167.07158 344.361951 
L 151.53787 344.361951 
z
" clip-path="url(#p677a769d91)" style="fill: #e7b488; opacity: 0.8"/>
   </g>
   <g id="patch_8">
    <path d="M 170.955008 493.80525 
L 186.488718 493.80525 
L 186.488718 322.402936 
L 170.955008 322.402936 
z
" clip-path="url(#p677a769d91)" style="fill: #e7b488; opacity: 0.8"/>
   </g>
   <g id="patch_9">
    <path d="M 190.372145 493.80525 
L 205.905856 493.80525 
L 205.905856 310.813455 
L 190.372145 310.813455 
z
" clip-path="url(#p677a769d91)" style="fill: #e7b488; opacity: 0.8"/>
   </g>
   <g id="patch_10">
    <path d="M 209.789283 493.80525 
L 225.322994 493.80525 
L 225.322994 296.174112 
L 209.789283 296.174112 
z
" clip-path="url(#p677a769d91)" style="fill: #e7b488; opacity: 0.8"/>
   </g>
   <g id="patch_11">
    <path d="M 229.206421 493.80525 
L 244.740132 493.80525 
L 244.740132 278.484905 
L 229.206421 278.484905 
z
" clip-path="url(#p677a769d91)" style="fill: #e7b488; opacity: 0.8"/>
   </g>
   <g id="patch_12">
    <path d="M 248.623559 493.80525 
L 264.157269 493.80525 
L 264.157269 261.405671 
L 248.623559 261.405671 
z
" clip-path="url(#p677a769d91)" style="fill: #e7b488; opacity: 0.8"/>
   </g>
   <g id="patch_13">
    <path d="M 268.040697 493.80525 
L 283.574407 493.80525 
L 283.574407 229.07712 
L 268.040697 229.07712 
z
" clip-path="url(#p677a769d91)" style="fill: #e7b488; opacity: 0.8"/>
   </g>
   <g id="patch_14">
    <path d="M 287.457835 493.80525 
L 302.991545 493.80525 
L 302.991545 219.317558 
L 287.457835 219.317558 
z
" clip-path="url(#p677a769d91)" style="fill: #e7b488; opacity: 0.8"/>
   </g>
   <g id="patch_15">
    <path d="M 306.874973 493.80525 
L 322.408683 493.80525 
L 322.408683 208.948023 
L 306.874973 208.948023 
z
" clip-path="url(#p677a769d91)" style="fill: #e7b488; opacity: 0.8"/>
   </g>
   <g id="patch_16">
    <path d="M 326.292111 493.80525 
L 341.825821 493.80525 
L 341.825821 201.628351 
L 326.292111 201.628351 
z
" clip-path="url(#p677a769d91)" style="fill: #e7b488; opacity: 0.8"/>
   </g>
   <g id="patch_17">
    <path d="M 345.709249 493.80525 
L 361.242959 493.80525 
L 361.242959 178.449391 
L 345.709249 178.449391 
z
" clip-path="url(#p677a769d91)" style="fill: #e7b488; opacity: 0.8"/>
   </g>
   <g id="patch_18">
    <path d="M 365.126386 493.80525 
L 380.660097 493.80525 
L 380.660097 146.12084 
L 365.126386 146.12084 
z
" clip-path="url(#p677a769d91)" style="fill: #e7b488; opacity: 0.8"/>
   </g>
   <g id="patch_19">
    <path d="M 384.543524 493.80525 
L 400.077235 493.80525 
L 400.077235 114.402262 
L 384.543524 114.402262 
z
" clip-path="url(#p677a769d91)" style="fill: #e7b488; opacity: 0.8"/>
   </g>
   <g id="patch_20">
    <path d="M 403.960662 493.80525 
L 419.494373 493.80525 
L 419.494373 103.422755 
L 403.960662 103.422755 
z
" clip-path="url(#p677a769d91)" style="fill: #e7b488; opacity: 0.8"/>
   </g>
   <g id="patch_21">
    <path d="M 423.3778 493.80525 
L 438.91151 493.80525 
L 438.91151 87.563466 
L 423.3778 87.563466 
z
" clip-path="url(#p677a769d91)" style="fill: #e7b488; opacity: 0.8"/>
   </g>
   <g id="patch_22">
    <path d="M 442.794938 493.80525 
L 458.328648 493.80525 
L 458.328648 86.343521 
L 442.794938 86.343521 
z
" clip-path="url(#p677a769d91)" style="fill: #e7b488; opacity: 0.8"/>
   </g>
   <g id="patch_23">
    <path d="M 462.212076 493.80525 
L 477.745786 493.80525 
L 477.745786 86.343521 
L 462.212076 86.343521 
z
" clip-path="url(#p677a769d91)" style="fill: #e7b488; opacity: 0.8"/>
   </g>
   <g id="patch_24">
    <path d="M 481.629214 493.80525 
L 497.162924 493.80525 
L 497.162924 86.953493 
L 481.629214 86.953493 
z
" clip-path="url(#p677a769d91)" style="fill: #e7b488; opacity: 0.8"/>
   </g>
   <g id="patch_25">
    <path d="M 501.046352 493.80525 
L 516.580062 493.80525 
L 516.580062 89.393384 
L 501.046352 89.393384 
z
" clip-path="url(#p677a769d91)" style="fill: #e7b488; opacity: 0.8"/>
   </g>
   <g id="patch_26">
    <path d="M 520.46349 493.80525 
L 535.9972 493.80525 
L 535.9972 90.003356 
L 520.46349 90.003356 
z
" clip-path="url(#p677a769d91)" style="fill: #e7b488; opacity: 0.8"/>
   </g>
   <g id="patch_27">
    <path d="M 539.880627 493.80525 
L 555.414338 493.80525 
L 555.414338 91.223302 
L 539.880627 91.223302 
z
" clip-path="url(#p677a769d91)" style="fill: #e7b488; opacity: 0.8"/>
   </g>
   <g id="patch_28">
    <path d="M 559.297765 493.80525 
L 574.831476 493.80525 
L 574.831476 91.223302 
L 559.297765 91.223302 
z
" clip-path="url(#p677a769d91)" style="fill: #e7b488; opacity: 0.8"/>
   </g>
   <g id="patch_29">
    <path d="M 578.714903 493.80525 
L 594.248614 493.80525 
L 594.248614 90.613329 
L 578.714903 90.613329 
z
" clip-path="url(#p677a769d91)" style="fill: #e7b488; opacity: 0.8"/>
   </g>
   <g id="patch_30">
    <path d="M 598.132041 493.80525 
L 613.665751 493.80525 
L 613.665751 90.613329 
L 598.132041 90.613329 
z
" clip-path="url(#p677a769d91)" style="fill: #e7b488; opacity: 0.8"/>
   </g>
   <g id="patch_31">
    <path d="M 617.549179 493.80525 
L 633.082889 493.80525 
L 633.082889 93.663192 
L 617.549179 93.663192 
z
" clip-path="url(#p677a769d91)" style="fill: #e7b488; opacity: 0.8"/>
   </g>
   <g id="patch_32">
    <path d="M 636.966317 493.80525 
L 652.500027 493.80525 
L 652.500027 94.273165 
L 636.966317 94.273165 
z
" clip-path="url(#p677a769d91)" style="fill: #e7b488; opacity: 0.8"/>
   </g>
   <g id="patch_33">
    <path d="M 656.383455 493.80525 
L 671.917165 493.80525 
L 671.917165 94.273165 
L 656.383455 94.273165 
z
" clip-path="url(#p677a769d91)" style="fill: #e7b488; opacity: 0.8"/>
   </g>
   <g id="patch_34">
    <path d="M 675.800593 493.80525 
L 691.334303 493.80525 
L 691.334303 94.883138 
L 675.800593 94.883138 
z
" clip-path="url(#p677a769d91)" style="fill: #e7b488; opacity: 0.8"/>
   </g>
   <g id="patch_35">
    <path d="M 695.217731 493.80525 
L 710.751441 493.80525 
L 710.751441 93.05322 
L 695.217731 93.05322 
z
" clip-path="url(#p677a769d91)" style="fill: #e7b488; opacity: 0.8"/>
   </g>
   <g id="patch_36">
    <path d="M 714.634868 493.80525 
L 730.168579 493.80525 
L 730.168579 93.05322 
L 714.634868 93.05322 
z
" clip-path="url(#p677a769d91)" style="fill: #e7b488; opacity: 0.8"/>
   </g>
   <g id="patch_37">
    <path d="M 734.052006 493.80525 
L 749.585717 493.80525 
L 749.585717 93.05322 
L 734.052006 93.05322 
z
" clip-path="url(#p677a769d91)" style="fill: #e7b488; opacity: 0.8"/>
   </g>
   <g id="patch_38">
    <path d="M 753.469144 493.80525 
L 769.002855 493.80525 
L 769.002855 92.443247 
L 753.469144 92.443247 
z
" clip-path="url(#p677a769d91)" style="fill: #e7b488; opacity: 0.8"/>
   </g>
   <g id="patch_39">
    <path d="M 772.886282 493.80525 
L 788.419992 493.80525 
L 788.419992 95.49311 
L 772.886282 95.49311 
z
" clip-path="url(#p677a769d91)" style="fill: #e7b488; opacity: 0.8"/>
   </g>
   <g id="patch_40">
    <path d="M 792.30342 493.80525 
L 807.83713 493.80525 
L 807.83713 93.663192 
L 792.30342 93.663192 
z
" clip-path="url(#p677a769d91)" style="fill: #e7b488; opacity: 0.8"/>
   </g>
   <g id="patch_41">
    <path d="M 811.720558 493.80525 
L 827.254268 493.80525 
L 827.254268 93.05322 
L 811.720558 93.05322 
z
" clip-path="url(#p677a769d91)" style="fill: #e7b488; opacity: 0.8"/>
   </g>
   <g id="patch_42">
    <path d="M 831.137696 493.80525 
L 846.671406 493.80525 
L 846.671406 90.613329 
L 831.137696 90.613329 
z
" clip-path="url(#p677a769d91)" style="fill: #e7b488; opacity: 0.8"/>
   </g>
   <g id="patch_43">
    <path d="M 850.554834 493.80525 
L 866.088544 493.80525 
L 866.088544 83.293657 
L 850.554834 83.293657 
z
" clip-path="url(#p677a769d91)" style="fill: #e7b488; opacity: 0.8"/>
   </g>
   <g id="patch_44">
    <path d="M 869.971972 493.80525 
L 885.505682 493.80525 
L 885.505682 79.633821 
L 869.971972 79.633821 
z
" clip-path="url(#p677a769d91)" style="fill: #e7b488; opacity: 0.8"/>
   </g>
   <g id="matplotlib.axis_1">
    <g id="xtick_1">
     <g id="line2d_1">
      <defs>
       <path id="m37fff6973a" d="M 0 0 
L 0 3.5 
" style="stroke: #000000; stroke-width: 0.8"/>
      </defs>
      <g>
       <use xlink:href="#m37fff6973a" x="81.636173" y="493.80525" style="stroke: #000000; stroke-width: 0.8"/>
      </g>
     </g>
    </g>
    <g id="xtick_2">
     <g id="line2d_2">
      <g>
       <use xlink:href="#m37fff6973a" x="101.053311" y="493.80525" style="stroke: #000000; stroke-width: 0.8"/>
      </g>
     </g>
    </g>
    <g id="xtick_3">
     <g id="line2d_3">
      <g>
       <use xlink:href="#m37fff6973a" x="120.470449" y="493.80525" style="stroke: #000000; stroke-width: 0.8"/>
      </g>
     </g>
    </g>
    <g id="xtick_4">
     <g id="line2d_4">
      <g>
       <use xlink:href="#m37fff6973a" x="139.887587" y="493.80525" style="stroke: #000000; stroke-width: 0.8"/>
      </g>
     </g>
    </g>
    <g id="xtick_5">
     <g id="line2d_5">
      <g>
       <use xlink:href="#m37fff6973a" x="159.304725" y="493.80525" style="stroke: #000000; stroke-width: 0.8"/>
      </g>
     </g>
    </g>
    <g id="xtick_6">
     <g id="line2d_6">
      <g>
       <use xlink:href="#m37fff6973a" x="178.721863" y="493.80525" style="stroke: #000000; stroke-width: 0.8"/>
      </g>
     </g>
    </g>
    <g id="xtick_7">
     <g id="line2d_7">
      <g>
       <use xlink:href="#m37fff6973a" x="198.139001" y="493.80525" style="stroke: #000000; stroke-width: 0.8"/>
      </g>
     </g>
    </g>
    <g id="xtick_8">
     <g id="line2d_8">
      <g>
       <use xlink:href="#m37fff6973a" x="217.556139" y="493.80525" style="stroke: #000000; stroke-width: 0.8"/>
      </g>
     </g>
    </g>
    <g id="xtick_9">
     <g id="line2d_9">
      <g>
       <use xlink:href="#m37fff6973a" x="236.973276" y="493.80525" style="stroke: #000000; stroke-width: 0.8"/>
      </g>
     </g>
    </g>
    <g id="xtick_10">
     <g id="line2d_10">
      <g>
       <use xlink:href="#m37fff6973a" x="256.390414" y="493.80525" style="stroke: #000000; stroke-width: 0.8"/>
      </g>
     </g>
    </g>
    <g id="xtick_11">
     <g id="line2d_11">
      <g>
       <use xlink:href="#m37fff6973a" x="275.807552" y="493.80525" style="stroke: #000000; stroke-width: 0.8"/>
      </g>
     </g>
    </g>
    <g id="xtick_12">
     <g id="line2d_12">
      <g>
       <use xlink:href="#m37fff6973a" x="295.22469" y="493.80525" style="stroke: #000000; stroke-width: 0.8"/>
      </g>
     </g>
    </g>
    <g id="xtick_13">
     <g id="line2d_13">
      <g>
       <use xlink:href="#m37fff6973a" x="314.641828" y="493.80525" style="stroke: #000000; stroke-width: 0.8"/>
      </g>
     </g>
    </g>
    <g id="xtick_14">
     <g id="line2d_14">
      <g>
       <use xlink:href="#m37fff6973a" x="334.058966" y="493.80525" style="stroke: #000000; stroke-width: 0.8"/>
      </g>
     </g>
    </g>
    <g id="xtick_15">
     <g id="line2d_15">
      <g>
       <use xlink:href="#m37fff6973a" x="353.476104" y="493.80525" style="stroke: #000000; stroke-width: 0.8"/>
      </g>
     </g>
    </g>
    <g id="xtick_16">
     <g id="line2d_16">
      <g>
       <use xlink:href="#m37fff6973a" x="372.893242" y="493.80525" style="stroke: #000000; stroke-width: 0.8"/>
      </g>
     </g>
    </g>
    <g id="xtick_17">
     <g id="line2d_17">
      <g>
       <use xlink:href="#m37fff6973a" x="392.31038" y="493.80525" style="stroke: #000000; stroke-width: 0.8"/>
      </g>
     </g>
    </g>
    <g id="xtick_18">
     <g id="line2d_18">
      <g>
       <use xlink:href="#m37fff6973a" x="411.727517" y="493.80525" style="stroke: #000000; stroke-width: 0.8"/>
      </g>
     </g>
    </g>
    <g id="xtick_19">
     <g id="line2d_19">
      <g>
       <use xlink:href="#m37fff6973a" x="431.144655" y="493.80525" style="stroke: #000000; stroke-width: 0.8"/>
      </g>
     </g>
    </g>
    <g id="xtick_20">
     <g id="line2d_20">
      <g>
       <use xlink:href="#m37fff6973a" x="450.561793" y="493.80525" style="stroke: #000000; stroke-width: 0.8"/>
      </g>
     </g>
    </g>
    <g id="xtick_21">
     <g id="line2d_21">
      <g>
       <use xlink:href="#m37fff6973a" x="469.978931" y="493.80525" style="stroke: #000000; stroke-width: 0.8"/>
      </g>
     </g>
    </g>
    <g id="xtick_22">
     <g id="line2d_22">
      <g>
       <use xlink:href="#m37fff6973a" x="489.396069" y="493.80525" style="stroke: #000000; stroke-width: 0.8"/>
      </g>
     </g>
    </g>
    <g id="xtick_23">
     <g id="line2d_23">
      <g>
       <use xlink:href="#m37fff6973a" x="508.813207" y="493.80525" style="stroke: #000000; stroke-width: 0.8"/>
      </g>
     </g>
    </g>
    <g id="xtick_24">
     <g id="line2d_24">
      <g>
       <use xlink:href="#m37fff6973a" x="528.230345" y="493.80525" style="stroke: #000000; stroke-width: 0.8"/>
      </g>
     </g>
    </g>
    <g id="xtick_25">
     <g id="line2d_25">
      <g>
       <use xlink:href="#m37fff6973a" x="547.647483" y="493.80525" style="stroke: #000000; stroke-width: 0.8"/>
      </g>
     </g>
    </g>
    <g id="xtick_26">
     <g id="line2d_26">
      <g>
       <use xlink:href="#m37fff6973a" x="567.06462" y="493.80525" style="stroke: #000000; stroke-width: 0.8"/>
      </g>
     </g>
    </g>
    <g id="xtick_27">
     <g id="line2d_27">
      <g>
       <use xlink:href="#m37fff6973a" x="586.481758" y="493.80525" style="stroke: #000000; stroke-width: 0.8"/>
      </g>
     </g>
    </g>
    <g id="xtick_28">
     <g id="line2d_28">
      <g>
       <use xlink:href="#m37fff6973a" x="605.898896" y="493.80525" style="stroke: #000000; stroke-width: 0.8"/>
      </g>
     </g>
    </g>
    <g id="xtick_29">
     <g id="line2d_29">
      <g>
       <use xlink:href="#m37fff6973a" x="625.316034" y="493.80525" style="stroke: #000000; stroke-width: 0.8"/>
      </g>
     </g>
    </g>
    <g id="xtick_30">
     <g id="line2d_30">
      <g>
       <use xlink:href="#m37fff6973a" x="644.733172" y="493.80525" style="stroke: #000000; stroke-width: 0.8"/>
      </g>
     </g>
    </g>
    <g id="xtick_31">
     <g id="line2d_31">
      <g>
       <use xlink:href="#m37fff6973a" x="664.15031" y="493.80525" style="stroke: #000000; stroke-width: 0.8"/>
      </g>
     </g>
    </g>
    <g id="xtick_32">
     <g id="line2d_32">
      <g>
       <use xlink:href="#m37fff6973a" x="683.567448" y="493.80525" style="stroke: #000000; stroke-width: 0.8"/>
      </g>
     </g>
    </g>
    <g id="xtick_33">
     <g id="line2d_33">
      <g>
       <use xlink:href="#m37fff6973a" x="702.984586" y="493.80525" style="stroke: #000000; stroke-width: 0.8"/>
      </g>
     </g>
    </g>
    <g id="xtick_34">
     <g id="line2d_34">
      <g>
       <use xlink:href="#m37fff6973a" x="722.401724" y="493.80525" style="stroke: #000000; stroke-width: 0.8"/>
      </g>
     </g>
    </g>
    <g id="xtick_35">
     <g id="line2d_35">
      <g>
       <use xlink:href="#m37fff6973a" x="741.818861" y="493.80525" style="stroke: #000000; stroke-width: 0.8"/>
      </g>
     </g>
    </g>
    <g id="xtick_36">
     <g id="line2d_36">
      <g>
       <use xlink:href="#m37fff6973a" x="761.235999" y="493.80525" style="stroke: #000000; stroke-width: 0.8"/>
      </g>
     </g>
    </g>
    <g id="xtick_37">
     <g id="line2d_37">
      <g>
       <use xlink:href="#m37fff6973a" x="780.653137" y="493.80525" style="stroke: #000000; stroke-width: 0.8"/>
      </g>
     </g>
    </g>
    <g id="xtick_38">
     <g id="line2d_38">
      <g>
       <use xlink:href="#m37fff6973a" x="800.070275" y="493.80525" style="stroke: #000000; stroke-width: 0.8"/>
      </g>
     </g>
    </g>
    <g id="xtick_39">
     <g id="line2d_39">
      <g>
       <use xlink:href="#m37fff6973a" x="819.487413" y="493.80525" style="stroke: #000000; stroke-width: 0.8"/>
      </g>
     </g>
    </g>
    <g id="xtick_40">
     <g id="line2d_40">
      <g>
       <use xlink:href="#m37fff6973a" x="838.904551" y="493.80525" style="stroke: #000000; stroke-width: 0.8"/>
      </g>
     </g>
    </g>
    <g id="xtick_41">
     <g id="line2d_41">
      <g>
       <use xlink:href="#m37fff6973a" x="858.321689" y="493.80525" style="stroke: #000000; stroke-width: 0.8"/>
      </g>
     </g>
    </g>
    <g id="xtick_42">
     <g id="line2d_42">
      <g>
       <use xlink:href="#m37fff6973a" x="877.738827" y="493.80525" style="stroke: #000000; stroke-width: 0.8"/>
      </g>
     </g>
    </g>
   </g>
   <g id="matplotlib.axis_2">
    <g id="ytick_1">
     <g id="line2d_43">
      <defs>
       <path id="m0c6bb7b9c7" d="M 0 0 
L -3.5 0 
" style="stroke: #000000; stroke-width: 0.8"/>
      </defs>
      <g>
       <use xlink:href="#m0c6bb7b9c7" x="33.2875" y="493.80525" style="stroke: #000000; stroke-width: 0.8"/>
      </g>
     </g>
     <g id="text_1">
      <!-- 0 -->
      <g transform="translate(19.925 497.604469)scale(0.1 -0.1)">
       <defs>
        <path id="DejaVuSans-30" d="M 2034 4250 
Q 1547 4250 1301 3770 
Q 1056 3291 1056 2328 
Q 1056 1369 1301 889 
Q 1547 409 2034 409 
Q 2525 409 2770 889 
Q 3016 1369 3016 2328 
Q 3016 3291 2770 3770 
Q 2525 4250 2034 4250 
z
M 2034 4750 
Q 2819 4750 3233 4129 
Q 3647 3509 3647 2328 
Q 3647 1150 3233 529 
Q 2819 -91 2034 -91 
Q 1250 -91 836 529 
Q 422 1150 422 2328 
Q 422 3509 836 4129 
Q 1250 4750 2034 4750 
z
" transform="scale(0.015625)"/>
       </defs>
       <use xlink:href="#DejaVuSans-30"/>
      </g>
     </g>
    </g>
    <g id="ytick_2">
     <g id="line2d_44">
      <g>
       <use xlink:href="#m0c6bb7b9c7" x="33.2875" y="432.807985" style="stroke: #000000; stroke-width: 0.8"/>
      </g>
     </g>
     <g id="text_2">
      <!-- 100 -->
      <g transform="translate(7.2 436.607204)scale(0.1 -0.1)">
       <defs>
        <path id="DejaVuSans-31" d="M 794 531 
L 1825 531 
L 1825 4091 
L 703 3866 
L 703 4441 
L 1819 4666 
L 2450 4666 
L 2450 531 
L 3481 531 
L 3481 0 
L 794 0 
L 794 531 
z
" transform="scale(0.015625)"/>
       </defs>
       <use xlink:href="#DejaVuSans-31"/>
       <use xlink:href="#DejaVuSans-30" x="63.623047"/>
       <use xlink:href="#DejaVuSans-30" x="127.246094"/>
      </g>
     </g>
    </g>
    <g id="ytick_3">
     <g id="line2d_45">
      <g>
       <use xlink:href="#m0c6bb7b9c7" x="33.2875" y="371.81072" style="stroke: #000000; stroke-width: 0.8"/>
      </g>
     </g>
     <g id="text_3">
      <!-- 200 -->
      <g transform="translate(7.2 375.609939)scale(0.1 -0.1)">
       <defs>
        <path id="DejaVuSans-32" d="M 1228 531 
L 3431 531 
L 3431 0 
L 469 0 
L 469 531 
Q 828 903 1448 1529 
Q 2069 2156 2228 2338 
Q 2531 2678 2651 2914 
Q 2772 3150 2772 3378 
Q 2772 3750 2511 3984 
Q 2250 4219 1831 4219 
Q 1534 4219 1204 4116 
Q 875 4013 500 3803 
L 500 4441 
Q 881 4594 1212 4672 
Q 1544 4750 1819 4750 
Q 2544 4750 2975 4387 
Q 3406 4025 3406 3419 
Q 3406 3131 3298 2873 
Q 3191 2616 2906 2266 
Q 2828 2175 2409 1742 
Q 1991 1309 1228 531 
z
" transform="scale(0.015625)"/>
       </defs>
       <use xlink:href="#DejaVuSans-32"/>
       <use xlink:href="#DejaVuSans-30" x="63.623047"/>
       <use xlink:href="#DejaVuSans-30" x="127.246094"/>
      </g>
     </g>
    </g>
    <g id="ytick_4">
     <g id="line2d_46">
      <g>
       <use xlink:href="#m0c6bb7b9c7" x="33.2875" y="310.813455" style="stroke: #000000; stroke-width: 0.8"/>
      </g>
     </g>
     <g id="text_4">
      <!-- 300 -->
      <g transform="translate(7.2 314.612674)scale(0.1 -0.1)">
       <defs>
        <path id="DejaVuSans-33" d="M 2597 2516 
Q 3050 2419 3304 2112 
Q 3559 1806 3559 1356 
Q 3559 666 3084 287 
Q 2609 -91 1734 -91 
Q 1441 -91 1130 -33 
Q 819 25 488 141 
L 488 750 
Q 750 597 1062 519 
Q 1375 441 1716 441 
Q 2309 441 2620 675 
Q 2931 909 2931 1356 
Q 2931 1769 2642 2001 
Q 2353 2234 1838 2234 
L 1294 2234 
L 1294 2753 
L 1863 2753 
Q 2328 2753 2575 2939 
Q 2822 3125 2822 3475 
Q 2822 3834 2567 4026 
Q 2313 4219 1838 4219 
Q 1578 4219 1281 4162 
Q 984 4106 628 3988 
L 628 4550 
Q 988 4650 1302 4700 
Q 1616 4750 1894 4750 
Q 2613 4750 3031 4423 
Q 3450 4097 3450 3541 
Q 3450 3153 3228 2886 
Q 3006 2619 2597 2516 
z
" transform="scale(0.015625)"/>
       </defs>
       <use xlink:href="#DejaVuSans-33"/>
       <use xlink:href="#DejaVuSans-30" x="63.623047"/>
       <use xlink:href="#DejaVuSans-30" x="127.246094"/>
      </g>
     </g>
    </g>
    <g id="ytick_5">
     <g id="line2d_47">
      <g>
       <use xlink:href="#m0c6bb7b9c7" x="33.2875" y="249.81619" style="stroke: #000000; stroke-width: 0.8"/>
      </g>
     </g>
     <g id="text_5">
      <!-- 400 -->
      <g transform="translate(7.2 253.615409)scale(0.1 -0.1)">
       <defs>
        <path id="DejaVuSans-34" d="M 2419 4116 
L 825 1625 
L 2419 1625 
L 2419 4116 
z
M 2253 4666 
L 3047 4666 
L 3047 1625 
L 3713 1625 
L 3713 1100 
L 3047 1100 
L 3047 0 
L 2419 0 
L 2419 1100 
L 313 1100 
L 313 1709 
L 2253 4666 
z
" transform="scale(0.015625)"/>
       </defs>
       <use xlink:href="#DejaVuSans-34"/>
       <use xlink:href="#DejaVuSans-30" x="63.623047"/>
       <use xlink:href="#DejaVuSans-30" x="127.246094"/>
      </g>
     </g>
    </g>
    <g id="ytick_6">
     <g id="line2d_48">
      <g>
       <use xlink:href="#m0c6bb7b9c7" x="33.2875" y="188.818926" style="stroke: #000000; stroke-width: 0.8"/>
      </g>
     </g>
     <g id="text_6">
      <!-- 500 -->
      <g transform="translate(7.2 192.618144)scale(0.1 -0.1)">
       <defs>
        <path id="DejaVuSans-35" d="M 691 4666 
L 3169 4666 
L 3169 4134 
L 1269 4134 
L 1269 2991 
Q 1406 3038 1543 3061 
Q 1681 3084 1819 3084 
Q 2600 3084 3056 2656 
Q 3513 2228 3513 1497 
Q 3513 744 3044 326 
Q 2575 -91 1722 -91 
Q 1428 -91 1123 -41 
Q 819 9 494 109 
L 494 744 
Q 775 591 1075 516 
Q 1375 441 1709 441 
Q 2250 441 2565 725 
Q 2881 1009 2881 1497 
Q 2881 1984 2565 2268 
Q 2250 2553 1709 2553 
Q 1456 2553 1204 2497 
Q 953 2441 691 2322 
L 691 4666 
z
" transform="scale(0.015625)"/>
       </defs>
       <use xlink:href="#DejaVuSans-35"/>
       <use xlink:href="#DejaVuSans-30" x="63.623047"/>
       <use xlink:href="#DejaVuSans-30" x="127.246094"/>
      </g>
     </g>
    </g>
    <g id="ytick_7">
     <g id="line2d_49">
      <g>
       <use xlink:href="#m0c6bb7b9c7" x="33.2875" y="127.821661" style="stroke: #000000; stroke-width: 0.8"/>
      </g>
     </g>
     <g id="text_7">
      <!-- 600 -->
      <g transform="translate(7.2 131.620879)scale(0.1 -0.1)">
       <defs>
        <path id="DejaVuSans-36" d="M 2113 2584 
Q 1688 2584 1439 2293 
Q 1191 2003 1191 1497 
Q 1191 994 1439 701 
Q 1688 409 2113 409 
Q 2538 409 2786 701 
Q 3034 994 3034 1497 
Q 3034 2003 2786 2293 
Q 2538 2584 2113 2584 
z
M 3366 4563 
L 3366 3988 
Q 3128 4100 2886 4159 
Q 2644 4219 2406 4219 
Q 1781 4219 1451 3797 
Q 1122 3375 1075 2522 
Q 1259 2794 1537 2939 
Q 1816 3084 2150 3084 
Q 2853 3084 3261 2657 
Q 3669 2231 3669 1497 
Q 3669 778 3244 343 
Q 2819 -91 2113 -91 
Q 1303 -91 875 529 
Q 447 1150 447 2328 
Q 447 3434 972 4092 
Q 1497 4750 2381 4750 
Q 2619 4750 2861 4703 
Q 3103 4656 3366 4563 
z
" transform="scale(0.015625)"/>
       </defs>
       <use xlink:href="#DejaVuSans-36"/>
       <use xlink:href="#DejaVuSans-30" x="63.623047"/>
       <use xlink:href="#DejaVuSans-30" x="127.246094"/>
      </g>
     </g>
    </g>
    <g id="ytick_8">
     <g id="line2d_50">
      <g>
       <use xlink:href="#m0c6bb7b9c7" x="33.2875" y="66.824396" style="stroke: #000000; stroke-width: 0.8"/>
      </g>
     </g>
     <g id="text_8">
      <!-- 700 -->
      <g transform="translate(7.2 70.623615)scale(0.1 -0.1)">
       <defs>
        <path id="DejaVuSans-37" d="M 525 4666 
L 3525 4666 
L 3525 4397 
L 1831 0 
L 1172 0 
L 2766 4134 
L 525 4134 
L 525 4666 
z
" transform="scale(0.015625)"/>
       </defs>
       <use xlink:href="#DejaVuSans-37"/>
       <use xlink:href="#DejaVuSans-30" x="63.623047"/>
       <use xlink:href="#DejaVuSans-30" x="127.246094"/>
      </g>
     </g>
    </g>
   </g>
   <g id="patch_45">
    <path d="M 33.2875 493.80525 
L 33.2875 58.92525 
" style="fill: none; stroke: #000000; stroke-width: 0.8; stroke-linejoin: miter; stroke-linecap: square"/>
   </g>
   <g id="patch_46">
    <path d="M 33.2875 493.80525 
L 926.0875 493.80525 
" style="fill: none; stroke: #000000; stroke-width: 0.8; stroke-linejoin: miter; stroke-linecap: square"/>
   </g>
   <g id="text_9">
    <!-- Particular year -->
    <g transform="translate(431.144655 554.802515)scale(0.16 -0.16)">
     <defs>
      <path id="DejaVuSans-50" d="M 1259 4147 
L 1259 2394 
L 2053 2394 
Q 2494 2394 2734 2622 
Q 2975 2850 2975 3272 
Q 2975 3691 2734 3919 
Q 2494 4147 2053 4147 
L 1259 4147 
z
M 628 4666 
L 2053 4666 
Q 2838 4666 3239 4311 
Q 3641 3956 3641 3272 
Q 3641 2581 3239 2228 
Q 2838 1875 2053 1875 
L 1259 1875 
L 1259 0 
L 628 0 
L 628 4666 
z
" transform="scale(0.015625)"/>
      <path id="DejaVuSans-61" d="M 2194 1759 
Q 1497 1759 1228 1600 
Q 959 1441 959 1056 
Q 959 750 1161 570 
Q 1363 391 1709 391 
Q 2188 391 2477 730 
Q 2766 1069 2766 1631 
L 2766 1759 
L 2194 1759 
z
M 3341 1997 
L 3341 0 
L 2766 0 
L 2766 531 
Q 2569 213 2275 61 
Q 1981 -91 1556 -91 
Q 1019 -91 701 211 
Q 384 513 384 1019 
Q 384 1609 779 1909 
Q 1175 2209 1959 2209 
L 2766 2209 
L 2766 2266 
Q 2766 2663 2505 2880 
Q 2244 3097 1772 3097 
Q 1472 3097 1187 3025 
Q 903 2953 641 2809 
L 641 3341 
Q 956 3463 1253 3523 
Q 1550 3584 1831 3584 
Q 2591 3584 2966 3190 
Q 3341 2797 3341 1997 
z
" transform="scale(0.015625)"/>
      <path id="DejaVuSans-72" d="M 2631 2963 
Q 2534 3019 2420 3045 
Q 2306 3072 2169 3072 
Q 1681 3072 1420 2755 
Q 1159 2438 1159 1844 
L 1159 0 
L 581 0 
L 581 3500 
L 1159 3500 
L 1159 2956 
Q 1341 3275 1631 3429 
Q 1922 3584 2338 3584 
Q 2397 3584 2469 3576 
Q 2541 3569 2628 3553 
L 2631 2963 
z
" transform="scale(0.015625)"/>
      <path id="DejaVuSans-74" d="M 1172 4494 
L 1172 3500 
L 2356 3500 
L 2356 3053 
L 1172 3053 
L 1172 1153 
Q 1172 725 1289 603 
Q 1406 481 1766 481 
L 2356 481 
L 2356 0 
L 1766 0 
Q 1100 0 847 248 
Q 594 497 594 1153 
L 594 3053 
L 172 3053 
L 172 3500 
L 594 3500 
L 594 4494 
L 1172 4494 
z
" transform="scale(0.015625)"/>
      <path id="DejaVuSans-69" d="M 603 3500 
L 1178 3500 
L 1178 0 
L 603 0 
L 603 3500 
z
M 603 4863 
L 1178 4863 
L 1178 4134 
L 603 4134 
L 603 4863 
z
" transform="scale(0.015625)"/>
      <path id="DejaVuSans-63" d="M 3122 3366 
L 3122 2828 
Q 2878 2963 2633 3030 
Q 2388 3097 2138 3097 
Q 1578 3097 1268 2742 
Q 959 2388 959 1747 
Q 959 1106 1268 751 
Q 1578 397 2138 397 
Q 2388 397 2633 464 
Q 2878 531 3122 666 
L 3122 134 
Q 2881 22 2623 -34 
Q 2366 -91 2075 -91 
Q 1284 -91 818 406 
Q 353 903 353 1747 
Q 353 2603 823 3093 
Q 1294 3584 2113 3584 
Q 2378 3584 2631 3529 
Q 2884 3475 3122 3366 
z
" transform="scale(0.015625)"/>
      <path id="DejaVuSans-75" d="M 544 1381 
L 544 3500 
L 1119 3500 
L 1119 1403 
Q 1119 906 1312 657 
Q 1506 409 1894 409 
Q 2359 409 2629 706 
Q 2900 1003 2900 1516 
L 2900 3500 
L 3475 3500 
L 3475 0 
L 2900 0 
L 2900 538 
Q 2691 219 2414 64 
Q 2138 -91 1772 -91 
Q 1169 -91 856 284 
Q 544 659 544 1381 
z
M 1991 3584 
L 1991 3584 
z
" transform="scale(0.015625)"/>
      <path id="DejaVuSans-6c" d="M 603 4863 
L 1178 4863 
L 1178 0 
L 603 0 
L 603 4863 
z
" transform="scale(0.015625)"/>
      <path id="DejaVuSans-20" transform="scale(0.015625)"/>
      <path id="DejaVuSans-79" d="M 2059 -325 
Q 1816 -950 1584 -1140 
Q 1353 -1331 966 -1331 
L 506 -1331 
L 506 -850 
L 844 -850 
Q 1081 -850 1212 -737 
Q 1344 -625 1503 -206 
L 1606 56 
L 191 3500 
L 800 3500 
L 1894 763 
L 2988 3500 
L 3597 3500 
L 2059 -325 
z
" transform="scale(0.015625)"/>
      <path id="DejaVuSans-65" d="M 3597 1894 
L 3597 1613 
L 953 1613 
Q 991 1019 1311 708 
Q 1631 397 2203 397 
Q 2534 397 2845 478 
Q 3156 559 3463 722 
L 3463 178 
Q 3153 47 2828 -22 
Q 2503 -91 2169 -91 
Q 1331 -91 842 396 
Q 353 884 353 1716 
Q 353 2575 817 3079 
Q 1281 3584 2069 3584 
Q 2775 3584 3186 3129 
Q 3597 2675 3597 1894 
z
M 3022 2063 
Q 3016 2534 2758 2815 
Q 2500 3097 2075 3097 
Q 1594 3097 1305 2825 
Q 1016 2553 972 2059 
L 3022 2063 
z
" transform="scale(0.015625)"/>
     </defs>
     <use xlink:href="#DejaVuSans-50"/>
     <use xlink:href="#DejaVuSans-61" x="55.802734"/>
     <use xlink:href="#DejaVuSans-72" x="117.082031"/>
     <use xlink:href="#DejaVuSans-74" x="158.195312"/>
     <use xlink:href="#DejaVuSans-69" x="197.404297"/>
     <use xlink:href="#DejaVuSans-63" x="225.1875"/>
     <use xlink:href="#DejaVuSans-75" x="280.167969"/>
     <use xlink:href="#DejaVuSans-6c" x="343.546875"/>
     <use xlink:href="#DejaVuSans-61" x="371.330078"/>
     <use xlink:href="#DejaVuSans-72" x="432.609375"/>
     <use xlink:href="#DejaVuSans-20" x="473.722656"/>
     <use xlink:href="#DejaVuSans-79" x="505.509766"/>
     <use xlink:href="#DejaVuSans-65" x="564.689453"/>
     <use xlink:href="#DejaVuSans-61" x="626.212891"/>
     <use xlink:href="#DejaVuSans-72" x="687.492188"/>
    </g>
   </g>
   <g id="text_10">
    <!-- Number -->
    <g style="fill: #e7b488" transform="translate(9.792763 54.624943)scale(0.15 -0.15)">
     <defs>
      <path id="DejaVuSans-4e" d="M 628 4666 
L 1478 4666 
L 3547 763 
L 3547 4666 
L 4159 4666 
L 4159 0 
L 3309 0 
L 1241 3903 
L 1241 0 
L 628 0 
L 628 4666 
z
" transform="scale(0.015625)"/>
      <path id="DejaVuSans-6d" d="M 3328 2828 
Q 3544 3216 3844 3400 
Q 4144 3584 4550 3584 
Q 5097 3584 5394 3201 
Q 5691 2819 5691 2113 
L 5691 0 
L 5113 0 
L 5113 2094 
Q 5113 2597 4934 2840 
Q 4756 3084 4391 3084 
Q 3944 3084 3684 2787 
Q 3425 2491 3425 1978 
L 3425 0 
L 2847 0 
L 2847 2094 
Q 2847 2600 2669 2842 
Q 2491 3084 2119 3084 
Q 1678 3084 1418 2786 
Q 1159 2488 1159 1978 
L 1159 0 
L 581 0 
L 581 3500 
L 1159 3500 
L 1159 2956 
Q 1356 3278 1631 3431 
Q 1906 3584 2284 3584 
Q 2666 3584 2933 3390 
Q 3200 3197 3328 2828 
z
" transform="scale(0.015625)"/>
      <path id="DejaVuSans-62" d="M 3116 1747 
Q 3116 2381 2855 2742 
Q 2594 3103 2138 3103 
Q 1681 3103 1420 2742 
Q 1159 2381 1159 1747 
Q 1159 1113 1420 752 
Q 1681 391 2138 391 
Q 2594 391 2855 752 
Q 3116 1113 3116 1747 
z
M 1159 2969 
Q 1341 3281 1617 3432 
Q 1894 3584 2278 3584 
Q 2916 3584 3314 3078 
Q 3713 2572 3713 1747 
Q 3713 922 3314 415 
Q 2916 -91 2278 -91 
Q 1894 -91 1617 61 
Q 1341 213 1159 525 
L 1159 0 
L 581 0 
L 581 4863 
L 1159 4863 
L 1159 2969 
z
" transform="scale(0.015625)"/>
     </defs>
     <use xlink:href="#DejaVuSans-4e"/>
     <use xlink:href="#DejaVuSans-75" x="74.804688"/>
     <use xlink:href="#DejaVuSans-6d" x="138.183594"/>
     <use xlink:href="#DejaVuSans-62" x="235.595703"/>
     <use xlink:href="#DejaVuSans-65" x="299.072266"/>
     <use xlink:href="#DejaVuSans-72" x="360.595703"/>
    </g>
   </g>
   <g id="text_11">
    <!-- 1 -->
    <g transform="translate(78.723603 506.004703)scale(0.1 -0.1)">
     <use xlink:href="#DejaVuSans-31"/>
    </g>
   </g>
   <g id="text_12">
    <!-- 9 -->
    <g transform="translate(78.723603 515.154293)scale(0.1 -0.1)">
     <defs>
      <path id="DejaVuSans-39" d="M 703 97 
L 703 672 
Q 941 559 1184 500 
Q 1428 441 1663 441 
Q 2288 441 2617 861 
Q 2947 1281 2994 2138 
Q 2813 1869 2534 1725 
Q 2256 1581 1919 1581 
Q 1219 1581 811 2004 
Q 403 2428 403 3163 
Q 403 3881 828 4315 
Q 1253 4750 1959 4750 
Q 2769 4750 3195 4129 
Q 3622 3509 3622 2328 
Q 3622 1225 3098 567 
Q 2575 -91 1691 -91 
Q 1453 -91 1209 -44 
Q 966 3 703 97 
z
M 1959 2075 
Q 2384 2075 2632 2365 
Q 2881 2656 2881 3163 
Q 2881 3666 2632 3958 
Q 2384 4250 1959 4250 
Q 1534 4250 1286 3958 
Q 1038 3666 1038 3163 
Q 1038 2656 1286 2365 
Q 1534 2075 1959 2075 
z
" transform="scale(0.015625)"/>
     </defs>
     <use xlink:href="#DejaVuSans-39"/>
    </g>
   </g>
   <g id="text_13">
    <!-- 7 -->
    <g transform="translate(78.723603 524.303882)scale(0.1 -0.1)">
     <use xlink:href="#DejaVuSans-37"/>
    </g>
   </g>
   <g id="text_14">
    <!-- 8 -->
    <g transform="translate(78.723603 533.453472)scale(0.1 -0.1)">
     <defs>
      <path id="DejaVuSans-38" d="M 2034 2216 
Q 1584 2216 1326 1975 
Q 1069 1734 1069 1313 
Q 1069 891 1326 650 
Q 1584 409 2034 409 
Q 2484 409 2743 651 
Q 3003 894 3003 1313 
Q 3003 1734 2745 1975 
Q 2488 2216 2034 2216 
z
M 1403 2484 
Q 997 2584 770 2862 
Q 544 3141 544 3541 
Q 544 4100 942 4425 
Q 1341 4750 2034 4750 
Q 2731 4750 3128 4425 
Q 3525 4100 3525 3541 
Q 3525 3141 3298 2862 
Q 3072 2584 2669 2484 
Q 3125 2378 3379 2068 
Q 3634 1759 3634 1313 
Q 3634 634 3220 271 
Q 2806 -91 2034 -91 
Q 1263 -91 848 271 
Q 434 634 434 1313 
Q 434 1759 690 2068 
Q 947 2378 1403 2484 
z
M 1172 3481 
Q 1172 3119 1398 2916 
Q 1625 2713 2034 2713 
Q 2441 2713 2670 2916 
Q 2900 3119 2900 3481 
Q 2900 3844 2670 4047 
Q 2441 4250 2034 4250 
Q 1625 4250 1398 4047 
Q 1172 3844 1172 3481 
z
" transform="scale(0.015625)"/>
     </defs>
     <use xlink:href="#DejaVuSans-38"/>
    </g>
   </g>
   <g id="text_15">
    <!-- 1 -->
    <g transform="translate(98.140741 506.004703)scale(0.1 -0.1)">
     <use xlink:href="#DejaVuSans-31"/>
    </g>
   </g>
   <g id="text_16">
    <!-- 9 -->
    <g transform="translate(98.140741 515.154293)scale(0.1 -0.1)">
     <use xlink:href="#DejaVuSans-39"/>
    </g>
   </g>
   <g id="text_17">
    <!-- 7 -->
    <g transform="translate(98.140741 524.303882)scale(0.1 -0.1)">
     <use xlink:href="#DejaVuSans-37"/>
    </g>
   </g>
   <g id="text_18">
    <!-- 9 -->
    <g transform="translate(98.140741 533.453472)scale(0.1 -0.1)">
     <use xlink:href="#DejaVuSans-39"/>
    </g>
   </g>
   <g id="text_19">
    <!-- 1 -->
    <g transform="translate(117.557878 506.004703)scale(0.1 -0.1)">
     <use xlink:href="#DejaVuSans-31"/>
    </g>
   </g>
   <g id="text_20">
    <!-- 9 -->
    <g transform="translate(117.557878 515.154293)scale(0.1 -0.1)">
     <use xlink:href="#DejaVuSans-39"/>
    </g>
   </g>
   <g id="text_21">
    <!-- 8 -->
    <g transform="translate(117.557878 524.303882)scale(0.1 -0.1)">
     <use xlink:href="#DejaVuSans-38"/>
    </g>
   </g>
   <g id="text_22">
    <!-- 0 -->
    <g transform="translate(117.557878 533.453472)scale(0.1 -0.1)">
     <use xlink:href="#DejaVuSans-30"/>
    </g>
   </g>
   <g id="text_23">
    <!-- 1 -->
    <g transform="translate(136.975016 506.004703)scale(0.1 -0.1)">
     <use xlink:href="#DejaVuSans-31"/>
    </g>
   </g>
   <g id="text_24">
    <!-- 9 -->
    <g transform="translate(136.975016 515.154293)scale(0.1 -0.1)">
     <use xlink:href="#DejaVuSans-39"/>
    </g>
   </g>
   <g id="text_25">
    <!-- 8 -->
    <g transform="translate(136.975016 524.303882)scale(0.1 -0.1)">
     <use xlink:href="#DejaVuSans-38"/>
    </g>
   </g>
   <g id="text_26">
    <!-- 1 -->
    <g transform="translate(136.975016 533.453472)scale(0.1 -0.1)">
     <use xlink:href="#DejaVuSans-31"/>
    </g>
   </g>
   <g id="text_27">
    <!-- 1 -->
    <g transform="translate(156.392154 506.004703)scale(0.1 -0.1)">
     <use xlink:href="#DejaVuSans-31"/>
    </g>
   </g>
   <g id="text_28">
    <!-- 9 -->
    <g transform="translate(156.392154 515.154293)scale(0.1 -0.1)">
     <use xlink:href="#DejaVuSans-39"/>
    </g>
   </g>
   <g id="text_29">
    <!-- 8 -->
    <g transform="translate(156.392154 524.303882)scale(0.1 -0.1)">
     <use xlink:href="#DejaVuSans-38"/>
    </g>
   </g>
   <g id="text_30">
    <!-- 2 -->
    <g transform="translate(156.392154 533.453472)scale(0.1 -0.1)">
     <use xlink:href="#DejaVuSans-32"/>
    </g>
   </g>
   <g id="text_31">
    <!-- 1 -->
    <g transform="translate(175.809292 506.004703)scale(0.1 -0.1)">
     <use xlink:href="#DejaVuSans-31"/>
    </g>
   </g>
   <g id="text_32">
    <!-- 9 -->
    <g transform="translate(175.809292 515.154293)scale(0.1 -0.1)">
     <use xlink:href="#DejaVuSans-39"/>
    </g>
   </g>
   <g id="text_33">
    <!-- 8 -->
    <g transform="translate(175.809292 524.303882)scale(0.1 -0.1)">
     <use xlink:href="#DejaVuSans-38"/>
    </g>
   </g>
   <g id="text_34">
    <!-- 3 -->
    <g transform="translate(175.809292 533.453472)scale(0.1 -0.1)">
     <use xlink:href="#DejaVuSans-33"/>
    </g>
   </g>
   <g id="text_35">
    <!-- 1 -->
    <g transform="translate(195.22643 506.004703)scale(0.1 -0.1)">
     <use xlink:href="#DejaVuSans-31"/>
    </g>
   </g>
   <g id="text_36">
    <!-- 9 -->
    <g transform="translate(195.22643 515.154293)scale(0.1 -0.1)">
     <use xlink:href="#DejaVuSans-39"/>
    </g>
   </g>
   <g id="text_37">
    <!-- 8 -->
    <g transform="translate(195.22643 524.303882)scale(0.1 -0.1)">
     <use xlink:href="#DejaVuSans-38"/>
    </g>
   </g>
   <g id="text_38">
    <!-- 4 -->
    <g transform="translate(195.22643 533.453472)scale(0.1 -0.1)">
     <use xlink:href="#DejaVuSans-34"/>
    </g>
   </g>
   <g id="text_39">
    <!-- 1 -->
    <g transform="translate(214.643568 506.004703)scale(0.1 -0.1)">
     <use xlink:href="#DejaVuSans-31"/>
    </g>
   </g>
   <g id="text_40">
    <!-- 9 -->
    <g transform="translate(214.643568 515.154293)scale(0.1 -0.1)">
     <use xlink:href="#DejaVuSans-39"/>
    </g>
   </g>
   <g id="text_41">
    <!-- 8 -->
    <g transform="translate(214.643568 524.303882)scale(0.1 -0.1)">
     <use xlink:href="#DejaVuSans-38"/>
    </g>
   </g>
   <g id="text_42">
    <!-- 5 -->
    <g transform="translate(214.643568 533.453472)scale(0.1 -0.1)">
     <use xlink:href="#DejaVuSans-35"/>
    </g>
   </g>
   <g id="text_43">
    <!-- 1 -->
    <g transform="translate(234.060706 506.004703)scale(0.1 -0.1)">
     <use xlink:href="#DejaVuSans-31"/>
    </g>
   </g>
   <g id="text_44">
    <!-- 9 -->
    <g transform="translate(234.060706 515.154293)scale(0.1 -0.1)">
     <use xlink:href="#DejaVuSans-39"/>
    </g>
   </g>
   <g id="text_45">
    <!-- 8 -->
    <g transform="translate(234.060706 524.303882)scale(0.1 -0.1)">
     <use xlink:href="#DejaVuSans-38"/>
    </g>
   </g>
   <g id="text_46">
    <!-- 6 -->
    <g transform="translate(234.060706 533.453472)scale(0.1 -0.1)">
     <use xlink:href="#DejaVuSans-36"/>
    </g>
   </g>
   <g id="text_47">
    <!-- 1 -->
    <g transform="translate(253.477844 506.004703)scale(0.1 -0.1)">
     <use xlink:href="#DejaVuSans-31"/>
    </g>
   </g>
   <g id="text_48">
    <!-- 9 -->
    <g transform="translate(253.477844 515.154293)scale(0.1 -0.1)">
     <use xlink:href="#DejaVuSans-39"/>
    </g>
   </g>
   <g id="text_49">
    <!-- 8 -->
    <g transform="translate(253.477844 524.303882)scale(0.1 -0.1)">
     <use xlink:href="#DejaVuSans-38"/>
    </g>
   </g>
   <g id="text_50">
    <!-- 7 -->
    <g transform="translate(253.477844 533.453472)scale(0.1 -0.1)">
     <use xlink:href="#DejaVuSans-37"/>
    </g>
   </g>
   <g id="text_51">
    <!-- 1 -->
    <g transform="translate(272.894982 506.004703)scale(0.1 -0.1)">
     <use xlink:href="#DejaVuSans-31"/>
    </g>
   </g>
   <g id="text_52">
    <!-- 9 -->
    <g transform="translate(272.894982 515.154293)scale(0.1 -0.1)">
     <use xlink:href="#DejaVuSans-39"/>
    </g>
   </g>
   <g id="text_53">
    <!-- 8 -->
    <g transform="translate(272.894982 524.303882)scale(0.1 -0.1)">
     <use xlink:href="#DejaVuSans-38"/>
    </g>
   </g>
   <g id="text_54">
    <!-- 8 -->
    <g transform="translate(272.894982 533.453472)scale(0.1 -0.1)">
     <use xlink:href="#DejaVuSans-38"/>
    </g>
   </g>
   <g id="text_55">
    <!-- 1 -->
    <g transform="translate(292.312119 506.004703)scale(0.1 -0.1)">
     <use xlink:href="#DejaVuSans-31"/>
    </g>
   </g>
   <g id="text_56">
    <!-- 9 -->
    <g transform="translate(292.312119 515.154293)scale(0.1 -0.1)">
     <use xlink:href="#DejaVuSans-39"/>
    </g>
   </g>
   <g id="text_57">
    <!-- 8 -->
    <g transform="translate(292.312119 524.303882)scale(0.1 -0.1)">
     <use xlink:href="#DejaVuSans-38"/>
    </g>
   </g>
   <g id="text_58">
    <!-- 9 -->
    <g transform="translate(292.312119 533.453472)scale(0.1 -0.1)">
     <use xlink:href="#DejaVuSans-39"/>
    </g>
   </g>
   <g id="text_59">
    <!-- 1 -->
    <g transform="translate(311.729257 506.004703)scale(0.1 -0.1)">
     <use xlink:href="#DejaVuSans-31"/>
    </g>
   </g>
   <g id="text_60">
    <!-- 9 -->
    <g transform="translate(311.729257 515.154293)scale(0.1 -0.1)">
     <use xlink:href="#DejaVuSans-39"/>
    </g>
   </g>
   <g id="text_61">
    <!-- 9 -->
    <g transform="translate(311.729257 524.303882)scale(0.1 -0.1)">
     <use xlink:href="#DejaVuSans-39"/>
    </g>
   </g>
   <g id="text_62">
    <!-- 0 -->
    <g transform="translate(311.729257 533.453472)scale(0.1 -0.1)">
     <use xlink:href="#DejaVuSans-30"/>
    </g>
   </g>
   <g id="text_63">
    <!-- 1 -->
    <g transform="translate(331.146395 506.004703)scale(0.1 -0.1)">
     <use xlink:href="#DejaVuSans-31"/>
    </g>
   </g>
   <g id="text_64">
    <!-- 9 -->
    <g transform="translate(331.146395 515.154293)scale(0.1 -0.1)">
     <use xlink:href="#DejaVuSans-39"/>
    </g>
   </g>
   <g id="text_65">
    <!-- 9 -->
    <g transform="translate(331.146395 524.303882)scale(0.1 -0.1)">
     <use xlink:href="#DejaVuSans-39"/>
    </g>
   </g>
   <g id="text_66">
    <!-- 1 -->
    <g transform="translate(331.146395 533.453472)scale(0.1 -0.1)">
     <use xlink:href="#DejaVuSans-31"/>
    </g>
   </g>
   <g id="text_67">
    <!-- 1 -->
    <g transform="translate(350.563533 506.004703)scale(0.1 -0.1)">
     <use xlink:href="#DejaVuSans-31"/>
    </g>
   </g>
   <g id="text_68">
    <!-- 9 -->
    <g transform="translate(350.563533 515.154293)scale(0.1 -0.1)">
     <use xlink:href="#DejaVuSans-39"/>
    </g>
   </g>
   <g id="text_69">
    <!-- 9 -->
    <g transform="translate(350.563533 524.303882)scale(0.1 -0.1)">
     <use xlink:href="#DejaVuSans-39"/>
    </g>
   </g>
   <g id="text_70">
    <!-- 2 -->
    <g transform="translate(350.563533 533.453472)scale(0.1 -0.1)">
     <use xlink:href="#DejaVuSans-32"/>
    </g>
   </g>
   <g id="text_71">
    <!-- 1 -->
    <g transform="translate(369.980671 506.004703)scale(0.1 -0.1)">
     <use xlink:href="#DejaVuSans-31"/>
    </g>
   </g>
   <g id="text_72">
    <!-- 9 -->
    <g transform="translate(369.980671 515.154293)scale(0.1 -0.1)">
     <use xlink:href="#DejaVuSans-39"/>
    </g>
   </g>
   <g id="text_73">
    <!-- 9 -->
    <g transform="translate(369.980671 524.303882)scale(0.1 -0.1)">
     <use xlink:href="#DejaVuSans-39"/>
    </g>
   </g>
   <g id="text_74">
    <!-- 3 -->
    <g transform="translate(369.980671 533.453472)scale(0.1 -0.1)">
     <use xlink:href="#DejaVuSans-33"/>
    </g>
   </g>
   <g id="text_75">
    <!-- 1 -->
    <g transform="translate(389.397809 506.004703)scale(0.1 -0.1)">
     <use xlink:href="#DejaVuSans-31"/>
    </g>
   </g>
   <g id="text_76">
    <!-- 9 -->
    <g transform="translate(389.397809 515.154293)scale(0.1 -0.1)">
     <use xlink:href="#DejaVuSans-39"/>
    </g>
   </g>
   <g id="text_77">
    <!-- 9 -->
    <g transform="translate(389.397809 524.303882)scale(0.1 -0.1)">
     <use xlink:href="#DejaVuSans-39"/>
    </g>
   </g>
   <g id="text_78">
    <!-- 4 -->
    <g transform="translate(389.397809 533.453472)scale(0.1 -0.1)">
     <use xlink:href="#DejaVuSans-34"/>
    </g>
   </g>
   <g id="text_79">
    <!-- 1 -->
    <g transform="translate(408.814947 506.004703)scale(0.1 -0.1)">
     <use xlink:href="#DejaVuSans-31"/>
    </g>
   </g>
   <g id="text_80">
    <!-- 9 -->
    <g transform="translate(408.814947 515.154293)scale(0.1 -0.1)">
     <use xlink:href="#DejaVuSans-39"/>
    </g>
   </g>
   <g id="text_81">
    <!-- 9 -->
    <g transform="translate(408.814947 524.303882)scale(0.1 -0.1)">
     <use xlink:href="#DejaVuSans-39"/>
    </g>
   </g>
   <g id="text_82">
    <!-- 5 -->
    <g transform="translate(408.814947 533.453472)scale(0.1 -0.1)">
     <use xlink:href="#DejaVuSans-35"/>
    </g>
   </g>
   <g id="text_83">
    <!-- 1 -->
    <g transform="translate(428.232085 506.004703)scale(0.1 -0.1)">
     <use xlink:href="#DejaVuSans-31"/>
    </g>
   </g>
   <g id="text_84">
    <!-- 9 -->
    <g transform="translate(428.232085 515.154293)scale(0.1 -0.1)">
     <use xlink:href="#DejaVuSans-39"/>
    </g>
   </g>
   <g id="text_85">
    <!-- 9 -->
    <g transform="translate(428.232085 524.303882)scale(0.1 -0.1)">
     <use xlink:href="#DejaVuSans-39"/>
    </g>
   </g>
   <g id="text_86">
    <!-- 6 -->
    <g transform="translate(428.232085 533.453472)scale(0.1 -0.1)">
     <use xlink:href="#DejaVuSans-36"/>
    </g>
   </g>
   <g id="text_87">
    <!-- 1 -->
    <g transform="translate(447.649222 506.004703)scale(0.1 -0.1)">
     <use xlink:href="#DejaVuSans-31"/>
    </g>
   </g>
   <g id="text_88">
    <!-- 9 -->
    <g transform="translate(447.649222 515.154293)scale(0.1 -0.1)">
     <use xlink:href="#DejaVuSans-39"/>
    </g>
   </g>
   <g id="text_89">
    <!-- 9 -->
    <g transform="translate(447.649222 524.303882)scale(0.1 -0.1)">
     <use xlink:href="#DejaVuSans-39"/>
    </g>
   </g>
   <g id="text_90">
    <!-- 7 -->
    <g transform="translate(447.649222 533.453472)scale(0.1 -0.1)">
     <use xlink:href="#DejaVuSans-37"/>
    </g>
   </g>
   <g id="text_91">
    <!-- 1 -->
    <g transform="translate(467.06636 506.004703)scale(0.1 -0.1)">
     <use xlink:href="#DejaVuSans-31"/>
    </g>
   </g>
   <g id="text_92">
    <!-- 9 -->
    <g transform="translate(467.06636 515.154293)scale(0.1 -0.1)">
     <use xlink:href="#DejaVuSans-39"/>
    </g>
   </g>
   <g id="text_93">
    <!-- 9 -->
    <g transform="translate(467.06636 524.303882)scale(0.1 -0.1)">
     <use xlink:href="#DejaVuSans-39"/>
    </g>
   </g>
   <g id="text_94">
    <!-- 8 -->
    <g transform="translate(467.06636 533.453472)scale(0.1 -0.1)">
     <use xlink:href="#DejaVuSans-38"/>
    </g>
   </g>
   <g id="text_95">
    <!-- 1 -->
    <g transform="translate(486.483498 506.004703)scale(0.1 -0.1)">
     <use xlink:href="#DejaVuSans-31"/>
    </g>
   </g>
   <g id="text_96">
    <!-- 9 -->
    <g transform="translate(486.483498 515.154293)scale(0.1 -0.1)">
     <use xlink:href="#DejaVuSans-39"/>
    </g>
   </g>
   <g id="text_97">
    <!-- 9 -->
    <g transform="translate(486.483498 524.303882)scale(0.1 -0.1)">
     <use xlink:href="#DejaVuSans-39"/>
    </g>
   </g>
   <g id="text_98">
    <!-- 9 -->
    <g transform="translate(486.483498 533.453472)scale(0.1 -0.1)">
     <use xlink:href="#DejaVuSans-39"/>
    </g>
   </g>
   <g id="text_99">
    <!-- 2 -->
    <g transform="translate(505.900636 506.004703)scale(0.1 -0.1)">
     <use xlink:href="#DejaVuSans-32"/>
    </g>
   </g>
   <g id="text_100">
    <!-- 0 -->
    <g transform="translate(505.900636 515.154293)scale(0.1 -0.1)">
     <use xlink:href="#DejaVuSans-30"/>
    </g>
   </g>
   <g id="text_101">
    <!-- 0 -->
    <g transform="translate(505.900636 524.303882)scale(0.1 -0.1)">
     <use xlink:href="#DejaVuSans-30"/>
    </g>
   </g>
   <g id="text_102">
    <!-- 0 -->
    <g transform="translate(505.900636 533.453472)scale(0.1 -0.1)">
     <use xlink:href="#DejaVuSans-30"/>
    </g>
   </g>
   <g id="text_103">
    <!-- 2 -->
    <g transform="translate(525.317774 506.004703)scale(0.1 -0.1)">
     <use xlink:href="#DejaVuSans-32"/>
    </g>
   </g>
   <g id="text_104">
    <!-- 0 -->
    <g transform="translate(525.317774 515.154293)scale(0.1 -0.1)">
     <use xlink:href="#DejaVuSans-30"/>
    </g>
   </g>
   <g id="text_105">
    <!-- 0 -->
    <g transform="translate(525.317774 524.303882)scale(0.1 -0.1)">
     <use xlink:href="#DejaVuSans-30"/>
    </g>
   </g>
   <g id="text_106">
    <!-- 1 -->
    <g transform="translate(525.317774 533.453472)scale(0.1 -0.1)">
     <use xlink:href="#DejaVuSans-31"/>
    </g>
   </g>
   <g id="text_107">
    <!-- 2 -->
    <g transform="translate(544.734912 506.004703)scale(0.1 -0.1)">
     <use xlink:href="#DejaVuSans-32"/>
    </g>
   </g>
   <g id="text_108">
    <!-- 0 -->
    <g transform="translate(544.734912 515.154293)scale(0.1 -0.1)">
     <use xlink:href="#DejaVuSans-30"/>
    </g>
   </g>
   <g id="text_109">
    <!-- 0 -->
    <g transform="translate(544.734912 524.303882)scale(0.1 -0.1)">
     <use xlink:href="#DejaVuSans-30"/>
    </g>
   </g>
   <g id="text_110">
    <!-- 2 -->
    <g transform="translate(544.734912 533.453472)scale(0.1 -0.1)">
     <use xlink:href="#DejaVuSans-32"/>
    </g>
   </g>
   <g id="text_111">
    <!-- 2 -->
    <g transform="translate(564.15205 506.004703)scale(0.1 -0.1)">
     <use xlink:href="#DejaVuSans-32"/>
    </g>
   </g>
   <g id="text_112">
    <!-- 0 -->
    <g transform="translate(564.15205 515.154293)scale(0.1 -0.1)">
     <use xlink:href="#DejaVuSans-30"/>
    </g>
   </g>
   <g id="text_113">
    <!-- 0 -->
    <g transform="translate(564.15205 524.303882)scale(0.1 -0.1)">
     <use xlink:href="#DejaVuSans-30"/>
    </g>
   </g>
   <g id="text_114">
    <!-- 3 -->
    <g transform="translate(564.15205 533.453472)scale(0.1 -0.1)">
     <use xlink:href="#DejaVuSans-33"/>
    </g>
   </g>
   <g id="text_115">
    <!-- 2 -->
    <g transform="translate(583.569188 506.004703)scale(0.1 -0.1)">
     <use xlink:href="#DejaVuSans-32"/>
    </g>
   </g>
   <g id="text_116">
    <!-- 0 -->
    <g transform="translate(583.569188 515.154293)scale(0.1 -0.1)">
     <use xlink:href="#DejaVuSans-30"/>
    </g>
   </g>
   <g id="text_117">
    <!-- 0 -->
    <g transform="translate(583.569188 524.303882)scale(0.1 -0.1)">
     <use xlink:href="#DejaVuSans-30"/>
    </g>
   </g>
   <g id="text_118">
    <!-- 4 -->
    <g transform="translate(583.569188 533.453472)scale(0.1 -0.1)">
     <use xlink:href="#DejaVuSans-34"/>
    </g>
   </g>
   <g id="text_119">
    <!-- 2 -->
    <g transform="translate(602.986326 506.004703)scale(0.1 -0.1)">
     <use xlink:href="#DejaVuSans-32"/>
    </g>
   </g>
   <g id="text_120">
    <!-- 0 -->
    <g transform="translate(602.986326 515.154293)scale(0.1 -0.1)">
     <use xlink:href="#DejaVuSans-30"/>
    </g>
   </g>
   <g id="text_121">
    <!-- 0 -->
    <g transform="translate(602.986326 524.303882)scale(0.1 -0.1)">
     <use xlink:href="#DejaVuSans-30"/>
    </g>
   </g>
   <g id="text_122">
    <!-- 5 -->
    <g transform="translate(602.986326 533.453472)scale(0.1 -0.1)">
     <use xlink:href="#DejaVuSans-35"/>
    </g>
   </g>
   <g id="text_123">
    <!-- 2 -->
    <g transform="translate(622.403463 506.004703)scale(0.1 -0.1)">
     <use xlink:href="#DejaVuSans-32"/>
    </g>
   </g>
   <g id="text_124">
    <!-- 0 -->
    <g transform="translate(622.403463 515.154293)scale(0.1 -0.1)">
     <use xlink:href="#DejaVuSans-30"/>
    </g>
   </g>
   <g id="text_125">
    <!-- 0 -->
    <g transform="translate(622.403463 524.303882)scale(0.1 -0.1)">
     <use xlink:href="#DejaVuSans-30"/>
    </g>
   </g>
   <g id="text_126">
    <!-- 6 -->
    <g transform="translate(622.403463 533.453472)scale(0.1 -0.1)">
     <use xlink:href="#DejaVuSans-36"/>
    </g>
   </g>
   <g id="text_127">
    <!-- 2 -->
    <g transform="translate(641.820601 506.004703)scale(0.1 -0.1)">
     <use xlink:href="#DejaVuSans-32"/>
    </g>
   </g>
   <g id="text_128">
    <!-- 0 -->
    <g transform="translate(641.820601 515.154293)scale(0.1 -0.1)">
     <use xlink:href="#DejaVuSans-30"/>
    </g>
   </g>
   <g id="text_129">
    <!-- 0 -->
    <g transform="translate(641.820601 524.303882)scale(0.1 -0.1)">
     <use xlink:href="#DejaVuSans-30"/>
    </g>
   </g>
   <g id="text_130">
    <!-- 7 -->
    <g transform="translate(641.820601 533.453472)scale(0.1 -0.1)">
     <use xlink:href="#DejaVuSans-37"/>
    </g>
   </g>
   <g id="text_131">
    <!-- 2 -->
    <g transform="translate(661.237739 506.004703)scale(0.1 -0.1)">
     <use xlink:href="#DejaVuSans-32"/>
    </g>
   </g>
   <g id="text_132">
    <!-- 0 -->
    <g transform="translate(661.237739 515.154293)scale(0.1 -0.1)">
     <use xlink:href="#DejaVuSans-30"/>
    </g>
   </g>
   <g id="text_133">
    <!-- 0 -->
    <g transform="translate(661.237739 524.303882)scale(0.1 -0.1)">
     <use xlink:href="#DejaVuSans-30"/>
    </g>
   </g>
   <g id="text_134">
    <!-- 8 -->
    <g transform="translate(661.237739 533.453472)scale(0.1 -0.1)">
     <use xlink:href="#DejaVuSans-38"/>
    </g>
   </g>
   <g id="text_135">
    <!-- 2 -->
    <g transform="translate(680.654877 506.004703)scale(0.1 -0.1)">
     <use xlink:href="#DejaVuSans-32"/>
    </g>
   </g>
   <g id="text_136">
    <!-- 0 -->
    <g transform="translate(680.654877 515.154293)scale(0.1 -0.1)">
     <use xlink:href="#DejaVuSans-30"/>
    </g>
   </g>
   <g id="text_137">
    <!-- 0 -->
    <g transform="translate(680.654877 524.303882)scale(0.1 -0.1)">
     <use xlink:href="#DejaVuSans-30"/>
    </g>
   </g>
   <g id="text_138">
    <!-- 9 -->
    <g transform="translate(680.654877 533.453472)scale(0.1 -0.1)">
     <use xlink:href="#DejaVuSans-39"/>
    </g>
   </g>
   <g id="text_139">
    <!-- 2 -->
    <g transform="translate(700.072015 506.004703)scale(0.1 -0.1)">
     <use xlink:href="#DejaVuSans-32"/>
    </g>
   </g>
   <g id="text_140">
    <!-- 0 -->
    <g transform="translate(700.072015 515.154293)scale(0.1 -0.1)">
     <use xlink:href="#DejaVuSans-30"/>
    </g>
   </g>
   <g id="text_141">
    <!-- 1 -->
    <g transform="translate(700.072015 524.303882)scale(0.1 -0.1)">
     <use xlink:href="#DejaVuSans-31"/>
    </g>
   </g>
   <g id="text_142">
    <!-- 0 -->
    <g transform="translate(700.072015 533.453472)scale(0.1 -0.1)">
     <use xlink:href="#DejaVuSans-30"/>
    </g>
   </g>
   <g id="text_143">
    <!-- 2 -->
    <g transform="translate(719.489153 506.004703)scale(0.1 -0.1)">
     <use xlink:href="#DejaVuSans-32"/>
    </g>
   </g>
   <g id="text_144">
    <!-- 0 -->
    <g transform="translate(719.489153 515.154293)scale(0.1 -0.1)">
     <use xlink:href="#DejaVuSans-30"/>
    </g>
   </g>
   <g id="text_145">
    <!-- 1 -->
    <g transform="translate(719.489153 524.303882)scale(0.1 -0.1)">
     <use xlink:href="#DejaVuSans-31"/>
    </g>
   </g>
   <g id="text_146">
    <!-- 1 -->
    <g transform="translate(719.489153 533.453472)scale(0.1 -0.1)">
     <use xlink:href="#DejaVuSans-31"/>
    </g>
   </g>
   <g id="text_147">
    <!-- 2 -->
    <g transform="translate(738.906291 506.004703)scale(0.1 -0.1)">
     <use xlink:href="#DejaVuSans-32"/>
    </g>
   </g>
   <g id="text_148">
    <!-- 0 -->
    <g transform="translate(738.906291 515.154293)scale(0.1 -0.1)">
     <use xlink:href="#DejaVuSans-30"/>
    </g>
   </g>
   <g id="text_149">
    <!-- 1 -->
    <g transform="translate(738.906291 524.303882)scale(0.1 -0.1)">
     <use xlink:href="#DejaVuSans-31"/>
    </g>
   </g>
   <g id="text_150">
    <!-- 2 -->
    <g transform="translate(738.906291 533.453472)scale(0.1 -0.1)">
     <use xlink:href="#DejaVuSans-32"/>
    </g>
   </g>
   <g id="text_151">
    <!-- 2 -->
    <g transform="translate(758.323429 506.004703)scale(0.1 -0.1)">
     <use xlink:href="#DejaVuSans-32"/>
    </g>
   </g>
   <g id="text_152">
    <!-- 0 -->
    <g transform="translate(758.323429 515.154293)scale(0.1 -0.1)">
     <use xlink:href="#DejaVuSans-30"/>
    </g>
   </g>
   <g id="text_153">
    <!-- 1 -->
    <g transform="translate(758.323429 524.303882)scale(0.1 -0.1)">
     <use xlink:href="#DejaVuSans-31"/>
    </g>
   </g>
   <g id="text_154">
    <!-- 3 -->
    <g transform="translate(758.323429 533.453472)scale(0.1 -0.1)">
     <use xlink:href="#DejaVuSans-33"/>
    </g>
   </g>
   <g id="text_155">
    <!-- 2 -->
    <g transform="translate(777.740567 506.004703)scale(0.1 -0.1)">
     <use xlink:href="#DejaVuSans-32"/>
    </g>
   </g>
   <g id="text_156">
    <!-- 0 -->
    <g transform="translate(777.740567 515.154293)scale(0.1 -0.1)">
     <use xlink:href="#DejaVuSans-30"/>
    </g>
   </g>
   <g id="text_157">
    <!-- 1 -->
    <g transform="translate(777.740567 524.303882)scale(0.1 -0.1)">
     <use xlink:href="#DejaVuSans-31"/>
    </g>
   </g>
   <g id="text_158">
    <!-- 4 -->
    <g transform="translate(777.740567 533.453472)scale(0.1 -0.1)">
     <use xlink:href="#DejaVuSans-34"/>
    </g>
   </g>
   <g id="text_159">
    <!-- 2 -->
    <g transform="translate(797.157704 506.004703)scale(0.1 -0.1)">
     <use xlink:href="#DejaVuSans-32"/>
    </g>
   </g>
   <g id="text_160">
    <!-- 0 -->
    <g transform="translate(797.157704 515.154293)scale(0.1 -0.1)">
     <use xlink:href="#DejaVuSans-30"/>
    </g>
   </g>
   <g id="text_161">
    <!-- 1 -->
    <g transform="translate(797.157704 524.303882)scale(0.1 -0.1)">
     <use xlink:href="#DejaVuSans-31"/>
    </g>
   </g>
   <g id="text_162">
    <!-- 5 -->
    <g transform="translate(797.157704 533.453472)scale(0.1 -0.1)">
     <use xlink:href="#DejaVuSans-35"/>
    </g>
   </g>
   <g id="text_163">
    <!-- 2 -->
    <g transform="translate(816.574842 506.004703)scale(0.1 -0.1)">
     <use xlink:href="#DejaVuSans-32"/>
    </g>
   </g>
   <g id="text_164">
    <!-- 0 -->
    <g transform="translate(816.574842 515.154293)scale(0.1 -0.1)">
     <use xlink:href="#DejaVuSans-30"/>
    </g>
   </g>
   <g id="text_165">
    <!-- 1 -->
    <g transform="translate(816.574842 524.303882)scale(0.1 -0.1)">
     <use xlink:href="#DejaVuSans-31"/>
    </g>
   </g>
   <g id="text_166">
    <!-- 6 -->
    <g transform="translate(816.574842 533.453472)scale(0.1 -0.1)">
     <use xlink:href="#DejaVuSans-36"/>
    </g>
   </g>
   <g id="text_167">
    <!-- 2 -->
    <g transform="translate(835.99198 506.004703)scale(0.1 -0.1)">
     <use xlink:href="#DejaVuSans-32"/>
    </g>
   </g>
   <g id="text_168">
    <!-- 0 -->
    <g transform="translate(835.99198 515.154293)scale(0.1 -0.1)">
     <use xlink:href="#DejaVuSans-30"/>
    </g>
   </g>
   <g id="text_169">
    <!-- 1 -->
    <g transform="translate(835.99198 524.303882)scale(0.1 -0.1)">
     <use xlink:href="#DejaVuSans-31"/>
    </g>
   </g>
   <g id="text_170">
    <!-- 7 -->
    <g transform="translate(835.99198 533.453472)scale(0.1 -0.1)">
     <use xlink:href="#DejaVuSans-37"/>
    </g>
   </g>
   <g id="text_171">
    <!-- 2 -->
    <g transform="translate(855.409118 506.004703)scale(0.1 -0.1)">
     <use xlink:href="#DejaVuSans-32"/>
    </g>
   </g>
   <g id="text_172">
    <!-- 0 -->
    <g transform="translate(855.409118 515.154293)scale(0.1 -0.1)">
     <use xlink:href="#DejaVuSans-30"/>
    </g>
   </g>
   <g id="text_173">
    <!-- 1 -->
    <g transform="translate(855.409118 524.303882)scale(0.1 -0.1)">
     <use xlink:href="#DejaVuSans-31"/>
    </g>
   </g>
   <g id="text_174">
    <!-- 8 -->
    <g transform="translate(855.409118 533.453472)scale(0.1 -0.1)">
     <use xlink:href="#DejaVuSans-38"/>
    </g>
   </g>
   <g id="text_175">
    <!-- 2 -->
    <g transform="translate(874.826256 506.004703)scale(0.1 -0.1)">
     <use xlink:href="#DejaVuSans-32"/>
    </g>
   </g>
   <g id="text_176">
    <!-- 0 -->
    <g transform="translate(874.826256 515.154293)scale(0.1 -0.1)">
     <use xlink:href="#DejaVuSans-30"/>
    </g>
   </g>
   <g id="text_177">
    <!-- 1 -->
    <g transform="translate(874.826256 524.303882)scale(0.1 -0.1)">
     <use xlink:href="#DejaVuSans-31"/>
    </g>
   </g>
   <g id="text_178">
    <!-- 9 -->
    <g transform="translate(874.826256 533.453472)scale(0.1 -0.1)">
     <use xlink:href="#DejaVuSans-39"/>
    </g>
   </g>
   <g id="text_179">
    <!-- Number of Chinese cities from 1978 to 2019 -->
    <g style="fill: #4c4c4c" transform="translate(145.747656 31.18125)scale(0.3 -0.3)">
     <defs>
      <path id="MicrosoftYaHei-Bold-4e" d="M 4863 0 
L 3806 0 
L 1756 3131 
Q 1597 3375 1525 3525 
L 1509 3525 
Q 1538 3275 1538 2753 
L 1538 0 
L 559 0 
L 559 4841 
L 1684 4841 
L 3659 1797 
Q 3856 1494 3900 1413 
L 3916 1413 
Q 3884 1588 3884 2081 
L 3884 4841 
L 4863 4841 
L 4863 0 
z
" transform="scale(0.015625)"/>
      <path id="MicrosoftYaHei-Bold-75" d="M 3691 0 
L 2688 0 
L 2688 528 
L 2672 528 
Q 2284 -84 1613 -84 
Q 406 -84 406 1372 
L 406 3456 
L 1416 3456 
L 1416 1466 
Q 1416 691 2022 691 
Q 2325 691 2506 903 
Q 2688 1116 2688 1478 
L 2688 3456 
L 3691 3456 
L 3691 0 
z
" transform="scale(0.015625)"/>
      <path id="MicrosoftYaHei-Bold-6d" d="M 5881 0 
L 4875 0 
L 4875 1972 
Q 4875 2766 4297 2766 
Q 4028 2766 3850 2525 
Q 3672 2284 3672 1938 
L 3672 0 
L 2666 0 
L 2666 1997 
Q 2666 2766 2094 2766 
Q 1809 2766 1639 2536 
Q 1469 2306 1469 1928 
L 1469 0 
L 459 0 
L 459 3456 
L 1469 3456 
L 1469 2916 
L 1481 2916 
Q 1663 3213 1963 3377 
Q 2263 3541 2594 3541 
Q 3322 3541 3591 2888 
Q 3991 3541 4753 3541 
Q 5881 3541 5881 2147 
L 5881 0 
z
" transform="scale(0.015625)"/>
      <path id="MicrosoftYaHei-Bold-62" d="M 1469 416 
L 1469 0 
L 459 0 
L 459 5116 
L 1469 5116 
L 1469 2928 
L 1481 2928 
Q 1878 3541 2613 3541 
Q 3266 3541 3636 3084 
Q 4006 2628 4006 1825 
Q 4006 966 3581 441 
Q 3156 -84 2453 -84 
Q 1809 -84 1481 416 
L 1469 416 
z
M 1453 1494 
Q 1453 1153 1656 922 
Q 1859 691 2172 691 
Q 2550 691 2761 984 
Q 2972 1278 2972 1816 
Q 2972 2263 2780 2514 
Q 2588 2766 2231 2766 
Q 1894 2766 1673 2512 
Q 1453 2259 1453 1863 
L 1453 1494 
z
" transform="scale(0.015625)"/>
      <path id="MicrosoftYaHei-Bold-65" d="M 3528 1444 
L 1253 1444 
Q 1306 641 2222 641 
Q 2794 641 3231 922 
L 3231 181 
Q 2759 -84 1994 -84 
Q 1169 -84 711 381 
Q 253 847 253 1678 
Q 253 2506 740 3023 
Q 1228 3541 1966 3541 
Q 2700 3541 3114 3095 
Q 3528 2650 3528 1872 
L 3528 1444 
z
M 2588 2075 
Q 2588 2850 1959 2850 
Q 1700 2850 1500 2637 
Q 1300 2425 1250 2075 
L 2588 2075 
z
" transform="scale(0.015625)"/>
      <path id="MicrosoftYaHei-Bold-72" d="M 2663 2541 
Q 2478 2647 2216 2647 
Q 1872 2647 1670 2384 
Q 1469 2122 1469 1663 
L 1469 0 
L 459 0 
L 459 3456 
L 1469 3456 
L 1469 2806 
L 1481 2806 
Q 1731 3516 2391 3516 
Q 2569 3516 2663 3475 
L 2663 2541 
z
" transform="scale(0.015625)"/>
      <path id="MicrosoftYaHei-Bold-20" transform="scale(0.015625)"/>
      <path id="MicrosoftYaHei-Bold-6f" d="M 253 1713 
Q 253 2566 764 3053 
Q 1275 3541 2138 3541 
Q 2972 3541 3462 3061 
Q 3953 2581 3953 1772 
Q 3953 922 3450 419 
Q 2947 -84 2088 -84 
Q 1244 -84 748 398 
Q 253 881 253 1713 
z
M 1275 1725 
Q 1275 691 2119 691 
Q 2928 691 2928 1753 
Q 2928 2766 2113 2766 
Q 1716 2766 1495 2494 
Q 1275 2222 1275 1725 
z
" transform="scale(0.015625)"/>
      <path id="MicrosoftYaHei-Bold-66" d="M 2653 4338 
Q 2447 4419 2263 4419 
Q 1744 4419 1744 3844 
L 1744 3456 
L 2531 3456 
L 2531 2703 
L 1744 2703 
L 1744 0 
L 734 0 
L 734 2703 
L 156 2703 
L 156 3456 
L 734 3456 
L 734 3900 
Q 734 4491 1118 4844 
Q 1503 5197 2128 5197 
Q 2447 5197 2653 5131 
L 2653 4338 
z
" transform="scale(0.015625)"/>
      <path id="MicrosoftYaHei-Bold-43" d="M 4013 175 
Q 3484 -84 2634 -84 
Q 1541 -84 898 570 
Q 256 1225 256 2316 
Q 256 3463 973 4192 
Q 1691 4922 2825 4922 
Q 3534 4922 4013 4738 
L 4013 3741 
Q 3522 4028 2900 4028 
Q 2191 4028 1766 3575 
Q 1341 3122 1341 2391 
Q 1341 1678 1744 1243 
Q 2147 809 2834 809 
Q 3481 809 4013 1122 
L 4013 175 
z
" transform="scale(0.015625)"/>
      <path id="MicrosoftYaHei-Bold-68" d="M 3725 0 
L 2719 0 
L 2719 1969 
Q 2719 2766 2138 2766 
Q 1847 2766 1658 2544 
Q 1469 2322 1469 1969 
L 1469 0 
L 459 0 
L 459 5116 
L 1469 5116 
L 1469 2938 
L 1481 2938 
Q 1878 3541 2550 3541 
Q 3725 3541 3725 2122 
L 3725 0 
z
" transform="scale(0.015625)"/>
      <path id="MicrosoftYaHei-Bold-69" d="M 369 4572 
Q 369 4803 533 4948 
Q 697 5094 953 5094 
Q 1216 5094 1378 4945 
Q 1541 4797 1541 4572 
Q 1541 4344 1375 4192 
Q 1209 4041 953 4041 
Q 700 4041 534 4194 
Q 369 4347 369 4572 
z
M 444 0 
L 444 3456 
L 1450 3456 
L 1450 0 
L 444 0 
z
" transform="scale(0.015625)"/>
      <path id="MicrosoftYaHei-Bold-6e" d="M 3744 0 
L 2741 0 
L 2741 1928 
Q 2741 2766 2138 2766 
Q 1850 2766 1659 2542 
Q 1469 2319 1469 1972 
L 1469 0 
L 459 0 
L 459 3456 
L 1469 3456 
L 1469 2906 
L 1481 2906 
Q 1859 3541 2594 3541 
Q 3744 3541 3744 2116 
L 3744 0 
z
" transform="scale(0.015625)"/>
      <path id="MicrosoftYaHei-Bold-73" d="M 369 928 
Q 888 613 1384 613 
Q 2009 613 2009 947 
Q 2009 1184 1494 1344 
Q 850 1544 609 1789 
Q 369 2034 369 2453 
Q 369 2963 781 3252 
Q 1194 3541 1863 3541 
Q 2338 3541 2778 3400 
L 2778 2606 
Q 2375 2844 1891 2844 
Q 1650 2844 1503 2758 
Q 1356 2672 1356 2531 
Q 1356 2294 1794 2147 
Q 2263 1991 2498 1862 
Q 2734 1734 2857 1525 
Q 2981 1316 2981 1041 
Q 2981 506 2553 211 
Q 2125 -84 1409 -84 
Q 847 -84 369 94 
L 369 928 
z
" transform="scale(0.015625)"/>
      <path id="MicrosoftYaHei-Bold-63" d="M 3050 128 
Q 2688 -84 2019 -84 
Q 1228 -84 740 397 
Q 253 878 253 1644 
Q 253 2525 778 3033 
Q 1303 3541 2178 3541 
Q 2769 3541 3053 3378 
L 3053 2513 
Q 2706 2766 2297 2766 
Q 1834 2766 1554 2484 
Q 1275 2203 1275 1713 
Q 1275 1238 1540 964 
Q 1806 691 2263 691 
Q 2666 691 3050 947 
L 3050 128 
z
" transform="scale(0.015625)"/>
      <path id="MicrosoftYaHei-Bold-74" d="M 2494 41 
Q 2266 -84 1803 -84 
Q 703 -84 703 1072 
L 703 2703 
L 134 2703 
L 134 3456 
L 703 3456 
L 703 4216 
L 1706 4503 
L 1706 3456 
L 2494 3456 
L 2494 2703 
L 1706 2703 
L 1706 1247 
Q 1706 694 2144 694 
Q 2313 694 2494 794 
L 2494 41 
z
" transform="scale(0.015625)"/>
      <path id="MicrosoftYaHei-Bold-31" d="M 2716 4947 
L 2716 0 
L 1700 0 
L 1700 3809 
Q 1513 3647 1188 3517 
Q 863 3388 591 3356 
L 591 4222 
Q 1447 4472 2072 4947 
L 2716 4947 
z
" transform="scale(0.015625)"/>
      <path id="MicrosoftYaHei-Bold-39" d="M 544 941 
Q 931 691 1456 691 
Q 2628 691 2653 2216 
L 2634 2222 
Q 2316 1731 1650 1731 
Q 1047 1731 658 2154 
Q 269 2578 269 3222 
Q 269 3978 737 4450 
Q 1206 4922 1959 4922 
Q 2744 4922 3191 4325 
Q 3638 3728 3638 2659 
Q 3638 1391 3098 653 
Q 2559 -84 1547 -84 
Q 975 -84 544 100 
L 544 941 
z
M 1259 3313 
Q 1259 2928 1445 2709 
Q 1631 2491 1953 2491 
Q 2241 2491 2427 2700 
Q 2613 2909 2613 3219 
Q 2613 3591 2427 3869 
Q 2241 4147 1928 4147 
Q 1625 4147 1442 3906 
Q 1259 3666 1259 3313 
z
" transform="scale(0.015625)"/>
      <path id="MicrosoftYaHei-Bold-37" d="M 3675 4225 
Q 3088 3172 2798 2528 
Q 2509 1884 2328 1275 
Q 2147 666 2050 0 
L 966 0 
Q 1122 947 1517 1917 
Q 1913 2888 2609 4009 
L 300 4009 
L 300 4841 
L 3675 4841 
L 3675 4225 
z
" transform="scale(0.015625)"/>
      <path id="MicrosoftYaHei-Bold-38" d="M 269 1303 
Q 269 1725 512 2053 
Q 756 2381 1219 2534 
Q 850 2719 648 3003 
Q 447 3288 447 3634 
Q 447 3997 645 4292 
Q 844 4588 1200 4755 
Q 1556 4922 1997 4922 
Q 2441 4922 2800 4758 
Q 3159 4594 3359 4298 
Q 3559 4003 3559 3647 
Q 3559 3309 3339 3018 
Q 3119 2728 2747 2559 
Q 3200 2403 3453 2076 
Q 3706 1750 3706 1313 
Q 3706 697 3228 309 
Q 2750 -78 1988 -78 
Q 1225 -78 747 309 
Q 269 697 269 1303 
z
M 1278 1394 
Q 1278 1056 1472 853 
Q 1666 650 1991 650 
Q 2303 650 2503 853 
Q 2703 1056 2703 1394 
Q 2703 1709 2500 1920 
Q 2297 2131 1991 2131 
Q 1675 2131 1476 1920 
Q 1278 1709 1278 1394 
z
M 1428 3531 
Q 1428 3266 1592 3077 
Q 1756 2888 2006 2888 
Q 2247 2888 2415 3072 
Q 2584 3256 2584 3531 
Q 2584 3806 2420 3997 
Q 2256 4188 2006 4188 
Q 1750 4188 1589 3997 
Q 1428 3806 1428 3531 
z
" transform="scale(0.015625)"/>
      <path id="MicrosoftYaHei-Bold-32" d="M 1500 841 
L 3553 841 
L 3553 0 
L 334 0 
L 334 359 
Q 334 738 473 1050 
Q 613 1363 856 1633 
Q 1100 1903 1613 2266 
Q 2081 2616 2268 2886 
Q 2456 3156 2456 3459 
Q 2456 4113 1744 4113 
Q 1119 4113 550 3613 
L 550 4513 
Q 1184 4922 1975 4922 
Q 2700 4922 3122 4551 
Q 3544 4181 3544 3531 
Q 3544 3169 3422 2876 
Q 3300 2584 3069 2328 
Q 2838 2072 2328 1713 
Q 1838 1363 1669 1172 
Q 1500 981 1500 841 
z
" transform="scale(0.015625)"/>
      <path id="MicrosoftYaHei-Bold-30" d="M 244 2341 
Q 244 3597 706 4259 
Q 1169 4922 2044 4922 
Q 3713 4922 3713 2453 
Q 3713 1238 3259 577 
Q 2806 -84 1950 -84 
Q 244 -84 244 2341 
z
M 1266 2366 
Q 1266 691 1981 691 
Q 2684 691 2684 2416 
Q 2684 4147 2000 4147 
Q 1266 4147 1266 2366 
z
" transform="scale(0.015625)"/>
     </defs>
     <use xlink:href="#MicrosoftYaHei-Bold-4e"/>
     <use xlink:href="#MicrosoftYaHei-Bold-75" x="84.814453"/>
     <use xlink:href="#MicrosoftYaHei-Bold-6d" x="149.609375"/>
     <use xlink:href="#MicrosoftYaHei-Bold-62" x="247.802734"/>
     <use xlink:href="#MicrosoftYaHei-Bold-65" x="314.404297"/>
     <use xlink:href="#MicrosoftYaHei-Bold-72" x="372.607422"/>
     <use xlink:href="#MicrosoftYaHei-Bold-20" x="414.990234"/>
     <use xlink:href="#MicrosoftYaHei-Bold-6f" x="444.775391"/>
     <use xlink:href="#MicrosoftYaHei-Bold-66" x="508.873047"/>
     <use xlink:href="#MicrosoftYaHei-Bold-20" x="549.400391"/>
     <use xlink:href="#MicrosoftYaHei-Bold-43" x="579.185547"/>
     <use xlink:href="#MicrosoftYaHei-Bold-68" x="646.519531"/>
     <use xlink:href="#MicrosoftYaHei-Bold-69" x="711.070312"/>
     <use xlink:href="#MicrosoftYaHei-Bold-6e" x="740.660156"/>
     <use xlink:href="#MicrosoftYaHei-Bold-65" x="805.455078"/>
     <use xlink:href="#MicrosoftYaHei-Bold-73" x="863.658203"/>
     <use xlink:href="#MicrosoftYaHei-Bold-65" x="913.023438"/>
     <use xlink:href="#MicrosoftYaHei-Bold-20" x="971.226562"/>
     <use xlink:href="#MicrosoftYaHei-Bold-63" x="1001.011719"/>
     <use xlink:href="#MicrosoftYaHei-Bold-69" x="1052.671875"/>
     <use xlink:href="#MicrosoftYaHei-Bold-74" x="1082.261719"/>
     <use xlink:href="#MicrosoftYaHei-Bold-69" x="1123.667969"/>
     <use xlink:href="#MicrosoftYaHei-Bold-65" x="1153.257812"/>
     <use xlink:href="#MicrosoftYaHei-Bold-73" x="1211.460938"/>
     <use xlink:href="#MicrosoftYaHei-Bold-20" x="1260.826172"/>
     <use xlink:href="#MicrosoftYaHei-Bold-66" x="1290.611328"/>
     <use xlink:href="#MicrosoftYaHei-Bold-72" x="1331.138672"/>
     <use xlink:href="#MicrosoftYaHei-Bold-6f" x="1373.021484"/>
     <use xlink:href="#MicrosoftYaHei-Bold-6d" x="1438.744141"/>
     <use xlink:href="#MicrosoftYaHei-Bold-20" x="1536.9375"/>
     <use xlink:href="#MicrosoftYaHei-Bold-31" x="1566.722656"/>
     <use xlink:href="#MicrosoftYaHei-Bold-39" x="1628.392578"/>
     <use xlink:href="#MicrosoftYaHei-Bold-37" x="1690.0625"/>
     <use xlink:href="#MicrosoftYaHei-Bold-38" x="1751.732422"/>
     <use xlink:href="#MicrosoftYaHei-Bold-20" x="1813.402344"/>
     <use xlink:href="#MicrosoftYaHei-Bold-74" x="1843.1875"/>
     <use xlink:href="#MicrosoftYaHei-Bold-6f" x="1884.09375"/>
     <use xlink:href="#MicrosoftYaHei-Bold-20" x="1949.816406"/>
     <use xlink:href="#MicrosoftYaHei-Bold-32" x="1979.601562"/>
     <use xlink:href="#MicrosoftYaHei-Bold-30" x="2041.271484"/>
     <use xlink:href="#MicrosoftYaHei-Bold-31" x="2102.941406"/>
     <use xlink:href="#MicrosoftYaHei-Bold-39" x="2164.611328"/>
    </g>
   </g>
  </g>
 </g>
 <defs>
  <clipPath id="p677a769d91">
   <rect x="33.2875" y="58.92525" width="892.8" height="434.88"/>
  </clipPath>
 </defs>
</svg>
